Savate Serif.ufo
<glyph name="exclam" format="1">
  <advance width="330"/>
  <unicode hex="0021"/>
  <outline>
    <contour>
      <point x="248" y="600" type="curve" smooth="yes"/>
      <point x="248" y="480"/>
      <point x="212" y="424"/>
      <point x="199" y="298" type="curve" smooth="yes"/>
      <point x="196" y="270"/>
      <point x="194" y="234"/>
      <point x="200" y="186" type="curve"/>
      <point x="126" y="186" type="line"/>
      <point x="132" y="233"/>
      <point x="130" y="271"/>
      <point x="127" y="298" type="curve" smooth="yes"/>
      <point x="114" y="423"/>
      <point x="82" y="478"/>
      <point x="82" y="600" type="curve" smooth="yes"/>
      <point x="82" y="662"/>
      <point x="96" y="740"/>
      <point x="166" y="740" type="curve" smooth="yes"/>
      <point x="235" y="740"/>
      <point x="248" y="660"/>
    </contour>
    <contour>
      <point x="233" y="46" type="curve" smooth="yes"/>
      <point x="233" y="8"/>
      <point x="207" y="-10"/>
      <point x="166" y="-10" type="curve" smooth="yes"/>
      <point x="120" y="-10"/>
      <point x="95" y="8"/>
      <point x="95" y="46" type="curve" smooth="yes"/>
      <point x="95" y="88"/>
      <point x="119" y="106"/>
      <point x="166" y="106" type="curve" smooth="yes"/>
      <point x="208" y="106"/>
      <point x="233" y="89"/>
    </contour>
  </outline>
</glyph>
<glyph name="ampersand" format="1">
  <advance width="730"/>
  <unicode hex="0026"/>
  <outline>
    <contour>
      <point x="274" y="115" type="curve" smooth="yes"/>
      <point x="325" y="115"/>
      <point x="366" y="126"/>
      <point x="389" y="152" type="curve"/>
      <point x="389" y="153" type="line"/>
      <point x="389" y="310" type="line"/>
      <point x="346" y="310" type="line" smooth="yes"/>
      <point x="309" y="310"/>
      <point x="277" y="313"/>
      <point x="249" y="319" type="curve"/>
      <point x="195" y="316"/>
      <point x="151" y="269"/>
      <point x="151" y="222" type="curve" smooth="yes"/>
      <point x="151" y="158"/>
      <point x="194" y="115"/>
    </contour>
    <contour>
      <point x="532" y="-10" type="curve" smooth="yes"/>
      <point x="481" y="-11"/>
      <point x="439" y="0"/>
      <point x="414" y="39" type="curve"/>
      <point x="382" y="3"/>
      <point x="317" y="-10"/>
      <point x="264" y="-10" type="curve" smooth="yes"/>
      <point x="135" y="-10"/>
      <point x="60" y="68"/>
      <point x="60" y="174" type="curve" smooth="yes"/>
      <point x="60" y="253"/>
      <point x="98" y="320"/>
      <point x="176" y="350" type="curve"/>
      <point x="123" y="386"/>
      <point x="103" y="447"/>
      <point x="103" y="531" type="curve" smooth="yes"/>
      <point x="103" y="672"/>
      <point x="193" y="742"/>
      <point x="313" y="742" type="curve" smooth="yes"/>
      <point x="342" y="742"/>
      <point x="378" y="734"/>
      <point x="398" y="724" type="curve"/>
      <point x="379" y="577" type="line"/>
      <point x="360" y="590"/>
      <point x="322" y="599"/>
      <point x="293" y="599" type="curve" smooth="yes"/>
      <point x="204" y="599"/>
      <point x="155" y="579"/>
      <point x="154" y="526" type="curve" smooth="yes"/>
      <point x="152" y="482"/>
      <point x="196" y="455"/>
      <point x="266" y="455" type="curve" smooth="yes"/>
      <point x="389" y="455" type="line"/>
      <point x="389" y="530" type="line"/>
      <point x="451" y="530" type="line"/>
      <point x="451" y="455" type="line"/>
      <point x="554" y="455" type="line"/>
      <point x="554" y="310" type="line"/>
      <point x="451" y="310" type="line"/>
      <point x="451" y="206" type="line" smooth="yes"/>
      <point x="451" y="136"/>
      <point x="481" y="116"/>
      <point x="533" y="115" type="curve" smooth="yes"/>
      <point x="584" y="115"/>
      <point x="619" y="123"/>
      <point x="636" y="146" type="curve"/>
      <point x="665" y="52" type="line"/>
      <point x="651" y="24"/>
      <point x="602" y="-9"/>
    </contour>
  </outline>
</glyph>
<glyph name="parenleft" format="1">
  <advance width="330"/>
  <unicode hex="0028"/>
  <outline>
    <contour>
      <point x="238" y="-9" type="curve"/>
      <point x="265" y="-210" type="line"/>
      <point x="118" y="-158"/>
      <point x="40" y="6"/>
      <point x="40" y="269" type="curve" smooth="yes"/>
      <point x="40" y="583"/>
      <point x="125" y="756"/>
      <point x="272" y="810" type="curve"/>
      <point x="253" y="622" type="line"/>
      <point x="144" y="566"/>
      <point x="96" y="439"/>
      <point x="95" y="271" type="curve" smooth="yes"/>
      <point x="95" y="141"/>
      <point x="134" y="44"/>
    </contour>
  </outline>
</glyph>
<glyph name="plus" format="1">
  <advance width="530"/>
  <unicode hex="002B"/>
  <outline>
    <contour>
      <point x="460" y="266" type="line"/>
      <point x="301" y="266" type="line"/>
      <point x="301" y="80" type="line"/>
      <point x="223" y="80" type="line"/>
      <point x="223" y="266" type="line"/>
      <point x="70" y="266" type="line"/>
      <point x="70" y="377" type="line"/>
      <point x="223" y="377" type="line"/>
      <point x="223" y="550" type="line"/>
      <point x="301" y="550" type="line"/>
      <point x="301" y="377" type="line"/>
      <point x="460" y="377" type="line"/>
    </contour>
  </outline>
</glyph>
<glyph name="comma" format="1">
  <advance width="280"/>
  <unicode hex="002C"/>
  <outline>
    <contour>
      <point x="64" y="-172" type="curve"/>
      <point x="44" y="-158" type="line"/>
      <point x="110" y="-104"/>
      <point x="132" y="41"/>
      <point x="95" y="125" type="curve"/>
      <point x="221" y="125" type="line"/>
      <point x="240" y="8"/>
      <point x="170" y="-140"/>
    </contour>
  </outline>
</glyph>
<glyph name="period" format="1">
  <advance width="330"/>
  <unicode hex="002E"/>
  <outline>
    <contour>
      <point x="251" y="66" type="curve" smooth="yes"/>
      <point x="251" y="18"/>
      <point x="219" y="-5"/>
      <point x="168" y="-5" type="curve" smooth="yes"/>
      <point x="110" y="-5"/>
      <point x="79" y="18"/>
      <point x="79" y="66" type="curve" smooth="yes"/>
      <point x="79" y="118"/>
      <point x="109" y="140"/>
      <point x="168" y="140" type="curve" smooth="yes"/>
      <point x="220" y="140"/>
      <point x="251" y="119"/>
    </contour>
  </outline>
</glyph>
<glyph name="one" format="1">
  <advance width="430"/>
  <unicode hex="0031"/>
  <outline>
    <contour>
      <point x="410" y="0" type="line"/>
      <point x="289" y="-0"/>
      <point x="168" y="0"/>
      <point x="47" y="0" type="curve"/>
      <point x="47" y="144" type="line"/>
      <point x="410" y="144" type="line"/>
    </contour>
    <contour>
      <point x="50" y="452" type="curve"/>
      <point x="50" y="633" type="line"/>
      <point x="93" y="633"/>
      <point x="192" y="677"/>
      <point x="202" y="730" type="curve"/>
      <point x="300" y="730" type="line"/>
      <point x="300" y="0" type="line"/>
      <point x="230" y="0" type="line"/>
      <point x="230" y="537" type="line"/>
      <point x="205" y="492"/>
      <point x="103" y="452"/>
    </contour>
  </outline>
</glyph>
<glyph name="two" format="1">
  <advance width="630"/>
  <unicode hex="0032"/>
  <outline>
    <contour>
      <point x="523" y="226" type="line"/>
      <point x="581" y="226" type="line"/>
      <point x="581" y="1" type="line"/>
      <point x="561.667" y="1"/>
      <point x="542.333" y="1"/>
      <point x="523" y="1" type="curve"/>
    </contour>
    <contour>
      <point x="121" y="596" type="line"/>
      <point x="88" y="633" type="line"/>
      <point x="125" y="690"/>
      <point x="199" y="740"/>
      <point x="303" y="740" type="curve" smooth="yes"/>
      <point x="461" y="740"/>
      <point x="545" y="660"/>
      <point x="545" y="527" type="curve" smooth="yes"/>
      <point x="545" y="350"/>
      <point x="386" y="226"/>
      <point x="282" y="141" type="curve"/>
      <point x="580" y="141" type="line"/>
      <point x="580" y="0" type="line"/>
      <point x="60" y="0" type="line"/>
      <point x="60" y="60" type="line"/>
      <point x="281" y="216"/>
      <point x="456" y="360"/>
      <point x="456" y="468" type="curve" smooth="yes"/>
      <point x="456" y="513"/>
      <point x="402" y="566"/>
      <point x="292" y="566" type="curve" smooth="yes"/>
      <point x="206" y="566"/>
      <point x="153" y="533"/>
      <point x="121" y="494" type="curve"/>
      <point x="63" y="494" type="line"/>
      <point x="63" y="730" type="line"/>
      <point x="121" y="730" type="line"/>
    </contour>
  </outline>
</glyph>
<glyph name="three" format="1">
  <advance width="630"/>
  <unicode hex="0033"/>
  <outline>
    <contour>
      <point x="116" y="804" type="line"/>
      <point x="174" y="804" type="line"/>
      <point x="174" y="565" type="line"/>
      <point x="154.667" y="565"/>
      <point x="135.333" y="565"/>
      <point x="116" y="565" type="curve"/>
    </contour>
    <contour>
      <point x="134" y="96.6953" type="line"/>
      <point x="134" y="0" type="line"/>
      <point x="114.667" y="0"/>
      <point x="103.333" y="0"/>
      <point x="84" y="0" type="curve"/>
      <point x="84" y="187" type="line"/>
      <point x="134" y="187" type="line"/>
      <point x="172" y="149"/>
      <point x="256" y="128"/>
      <point x="323" y="128" type="curve" smooth="yes"/>
      <point x="442" y="128"/>
      <point x="501.262" y="165.008"/>
      <point x="499" y="234" type="curve" smooth="yes"/>
      <point x="497" y="295"/>
      <point x="431" y="344"/>
      <point x="250" y="325" type="curve" smooth="yes"/>
      <point x="174" y="317" type="line"/>
      <point x="375" y="565" type="line"/>
      <point x="118" y="565" type="line"/>
      <point x="118" y="730" type="line"/>
      <point x="540" y="730" type="line"/>
      <point x="542" y="680" type="line"/>
      <point x="358" y="444" type="line"/>
      <point x="492" y="434"/>
      <point x="560" y="368"/>
      <point x="560" y="231" type="curve" smooth="yes"/>
      <point x="560" y="60"/>
      <point x="462" y="-10"/>
      <point x="309" y="-10" type="curve" smooth="yes"/>
      <point x="220" y="-10"/>
      <point x="145" y="21"/>
      <point x="105" y="93" type="curve"/>
    </contour>
  </outline>
</glyph>
<glyph name="four" format="1">
  <advance width="630"/>
  <unicode hex="0034"/>
  <outline>
    <contour>
      <point x="586" y="0" type="line"/>
      <point x="465" y="0"/>
      <point x="318" y="0"/>
      <point x="197" y="0" type="curve"/>
      <point x="197" y="144" type="line"/>
      <point x="586" y="144" type="line"/>
    </contour>
    <contour>
      <point x="586" y="231" type="line"/>
      <point x="465" y="231" type="line"/>
      <point x="465" y="0" type="line"/>
      <point x="394" y="0" type="line"/>
      <point x="394" y="231" type="line"/>
      <point x="47" y="231" type="line"/>
      <point x="47" y="308" type="line"/>
      <point x="394" y="308" type="line"/>
      <point x="394" y="616" type="line"/>
      <point x="204" y="308" type="line"/>
      <point x="47" y="308" type="line"/>
      <point x="295" y="730" type="line"/>
      <point x="465" y="730" type="line"/>
      <point x="465" y="308" type="line"/>
      <point x="586" y="308" type="line"/>
    </contour>
  </outline>
</glyph>
<glyph name="five" format="1">
  <advance width="630"/>
  <unicode hex="0035"/>
  <outline>
    <contour>
      <point x="125" y="106" type="line"/>
      <point x="125" y="0" type="line"/>
      <point x="105.667" y="0"/>
      <point x="87.333" y="0"/>
      <point x="68" y="0" type="curve"/>
      <point x="67" y="213" type="line"/>
      <point x="67" y="213"/>
      <point x="103" y="213"/>
      <point x="120" y="213" type="curve"/>
      <point x="143" y="172"/>
      <point x="222" y="117"/>
      <point x="323" y="117" type="curve" smooth="yes"/>
      <point x="450" y="117"/>
      <point x="510" y="162"/>
      <point x="509" y="230" type="curve" smooth="yes"/>
      <point x="508" y="290"/>
      <point x="452" y="336"/>
      <point x="338" y="336" type="curve" smooth="yes"/>
      <point x="269" y="336"/>
      <point x="204" y="323"/>
      <point x="175" y="279" type="curve"/>
      <point x="93" y="348" type="line"/>
      <point x="156" y="710" type="line"/>
      <point x="509" y="710" type="line"/>
      <point x="521" y="566" type="line"/>
      <point x="205" y="566" type="line"/>
      <point x="174" y="393" type="line"/>
      <point x="196" y="427"/>
      <point x="266" y="455"/>
      <point x="351" y="455" type="curve" smooth="yes"/>
      <point x="484" y="455"/>
      <point x="570" y="383"/>
      <point x="570" y="228" type="curve" smooth="yes"/>
      <point x="570" y="52"/>
      <point x="474" y="-10"/>
      <point x="322" y="-10" type="curve" smooth="yes"/>
      <point x="201" y="-10"/>
      <point x="118" y="47"/>
      <point x="78" y="148" type="curve"/>
    </contour>
    <contour>
      <point x="466" y="775" type="line"/>
      <point x="524" y="775" type="line"/>
      <point x="524" y="566" type="line"/>
      <point x="504.667" y="566"/>
      <point x="485.333" y="566"/>
      <point x="466" y="566" type="curve"/>
    </contour>
  </outline>
</glyph>
<glyph name="six" format="1">
  <advance width="630"/>
  <unicode hex="0036"/>
  <outline>
    <contour>
      <point x="476" y="623" type="line"/>
      <point x="476" y="727" type="line"/>
      <point x="495.333" y="727"/>
      <point x="507.667" y="727"/>
      <point x="527" y="727" type="curve"/>
      <point x="527" y="538" type="line"/>
      <point x="476" y="538" type="line"/>
      <point x="440" y="577"/>
      <point x="378" y="582"/>
      <point x="318" y="582" type="curve" smooth="yes"/>
      <point x="210" y="582"/>
      <point x="130" y="522"/>
      <point x="130" y="386" type="curve"/>
      <point x="168" y="445"/>
      <point x="232" y="477"/>
      <point x="324" y="477" type="curve" smooth="yes"/>
      <point x="468" y="477"/>
      <point x="560" y="387"/>
      <point x="560" y="223" type="curve" smooth="yes"/>
      <point x="560" y="84"/>
      <point x="472" y="-13"/>
      <point x="318" y="-13" type="curve" smooth="yes"/>
      <point x="159" y="-13"/>
      <point x="70" y="79"/>
      <point x="70" y="286" type="curve" smooth="yes"/>
      <point x="70" y="645"/>
      <point x="163" y="737"/>
      <point x="311" y="737" type="curve" smooth="yes"/>
      <point x="390" y="737"/>
      <point x="460" y="702"/>
      <point x="500" y="637" type="curve"/>
    </contour>
    <contour>
      <point x="476" y="643" type="move"/>
    </contour>
    <contour>
      <point x="318" y="119" type="curve" smooth="yes"/>
      <point x="452" y="119"/>
      <point x="497" y="167"/>
      <point x="497" y="224" type="curve" smooth="yes"/>
      <point x="497" y="298"/>
      <point x="451" y="338"/>
      <point x="318" y="338" type="curve" smooth="yes"/>
      <point x="179" y="338"/>
      <point x="132" y="289"/>
      <point x="133" y="224" type="curve" smooth="yes"/>
      <point x="134" y="153"/>
      <point x="193" y="119"/>
    </contour>
  </outline>
</glyph>
<glyph name="seven" format="1">
  <advance width="530"/>
  <unicode hex="0037"/>
  <outline>
    <contour>
      <point x="43" y="730" type="line"/>
      <point x="101" y="730" type="line"/>
      <point x="101" y="471" type="line"/>
      <point x="81.667" y="471"/>
      <point x="62.333" y="471"/>
      <point x="43" y="471" type="curve"/>
    </contour>
    <contour>
      <point x="383" y="0" type="line"/>
      <point x="262" y="0"/>
      <point x="172" y="0"/>
      <point x="51" y="0" type="curve"/>
      <point x="51" y="144" type="line"/>
      <point x="383" y="144" type="line"/>
    </contour>
    <contour>
      <point x="218" y="0" type="curve"/>
      <point x="142" y="0" type="line"/>
      <point x="142" y="184"/>
      <point x="280" y="453"/>
      <point x="379" y="550" type="curve"/>
      <point x="44" y="550" type="line"/>
      <point x="44" y="730" type="line"/>
      <point x="493" y="730" type="line"/>
      <point x="493" y="584" type="line"/>
      <point x="341" y="408"/>
      <point x="218" y="199"/>
    </contour>
  </outline>
</glyph>
<glyph name="eight" format="1">
  <advance width="630"/>
  <unicode hex="0038"/>
  <outline>
    <contour>
      <point x="324" y="-10" type="curve" smooth="yes"/>
      <point x="170" y="-10"/>
      <point x="74" y="74"/>
      <point x="74" y="208" type="curve" smooth="yes"/>
      <point x="74" y="288"/>
      <point x="104" y="343"/>
      <point x="170" y="379" type="curve"/>
      <point x="112" y="405"/>
      <point x="83" y="458"/>
      <point x="83" y="539" type="curve" smooth="yes"/>
      <point x="83" y="674"/>
      <point x="192" y="740"/>
      <point x="324" y="740" type="curve" smooth="yes"/>
      <point x="461" y="740"/>
      <point x="553" y="685"/>
      <point x="553" y="521" type="curve" smooth="yes"/>
      <point x="553" y="455"/>
      <point x="533" y="399"/>
      <point x="485" y="357" type="curve"/>
      <point x="542" y="324"/>
      <point x="576" y="265"/>
      <point x="576" y="180" type="curve" smooth="yes"/>
      <point x="576" y="67"/>
      <point x="490" y="-10"/>
    </contour>
    <contour>
      <point x="147" y="484" type="curve" smooth="yes"/>
      <point x="147" y="450"/>
      <point x="178" y="418"/>
      <point x="236" y="404" type="curve"/>
      <point x="262" y="411"/>
      <point x="291" y="416"/>
      <point x="324" y="420" type="curve" smooth="yes"/>
      <point x="425" y="432"/>
      <point x="493" y="446"/>
      <point x="494" y="501" type="curve" smooth="yes"/>
      <point x="495" y="549"/>
      <point x="436" y="576"/>
      <point x="324" y="576" type="curve" smooth="yes"/>
      <point x="211" y="576"/>
      <point x="147" y="524"/>
    </contour>
    <contour>
      <point x="324" y="106" type="curve" smooth="yes"/>
      <point x="446" y="106"/>
      <point x="508" y="159"/>
      <point x="508" y="220" type="curve" smooth="yes"/>
      <point x="511" y="270"/>
      <point x="483" y="309"/>
      <point x="440" y="327" type="curve"/>
      <point x="409" y="311"/>
      <point x="370" y="298"/>
      <point x="324" y="291" type="curve" smooth="yes"/>
      <point x="188" y="269"/>
      <point x="138" y="237"/>
      <point x="137" y="190" type="curve" smooth="yes"/>
      <point x="136" y="144"/>
      <point x="197" y="106"/>
    </contour>
  </outline>
</glyph>
<glyph name="colon" format="1">
  <advance width="280"/>
  <unicode hex="003A"/>
  <outline>
    <contour>
      <point x="226" y="386" type="curve" smooth="yes"/>
      <point x="226" y="338"/>
      <point x="194" y="315"/>
      <point x="143" y="315" type="curve" smooth="yes"/>
      <point x="85" y="315"/>
      <point x="54" y="338"/>
      <point x="54" y="386" type="curve" smooth="yes"/>
      <point x="54" y="438"/>
      <point x="84" y="460"/>
      <point x="143" y="460" type="curve" smooth="yes"/>
      <point x="195" y="460"/>
      <point x="226" y="439"/>
    </contour>
    <contour>
      <point x="226" y="86" type="curve" smooth="yes"/>
      <point x="226" y="38"/>
      <point x="194" y="15"/>
      <point x="143" y="15" type="curve" smooth="yes"/>
      <point x="85" y="15"/>
      <point x="54" y="38"/>
      <point x="54" y="86" type="curve" smooth="yes"/>
      <point x="54" y="138"/>
      <point x="84" y="160"/>
      <point x="143" y="160" type="curve" smooth="yes"/>
      <point x="195" y="160"/>
      <point x="226" y="139"/>
    </contour>
  </outline>
</glyph>
<glyph name="equal" format="1">
  <advance width="530"/>
  <unicode hex="003D"/>
  <outline>
    <contour>
      <point x="460" y="386" type="line"/>
      <point x="70" y="386" type="line"/>
      <point x="70" y="495" type="line"/>
      <point x="460" y="495" type="line"/>
    </contour>
    <contour>
      <point x="460" y="168" type="line"/>
      <point x="70" y="168" type="line"/>
      <point x="70" y="277" type="line"/>
      <point x="460" y="277" type="line"/>
    </contour>
  </outline>
</glyph>
<glyph name="A" format="1">
  <advance width="791"/>
  <unicode hex="0041"/>
  <outline>
    <contour>
      <point x="582" y="570" type="line"/>
      <point x="461" y="570"/>
      <point x="580" y="570"/>
      <point x="459" y="570" type="curve"/>
      <point x="340" y="730" type="line"/>
      <point x="582" y="730" type="line"/>
    </contour>
    <contour>
      <point x="772" y="0" type="line"/>
      <point x="671.667" y="0"/>
      <point x="571.333" y="0"/>
      <point x="471" y="0" type="curve"/>
      <point x="471" y="140" type="line"/>
      <point x="772" y="140" type="line"/>
    </contour>
    <contour>
      <point x="394" y="0" type="line"/>
      <point x="273" y="0"/>
      <point x="152" y="0"/>
      <point x="31" y="0" type="curve"/>
      <point x="31" y="140" type="line"/>
      <point x="394" y="140" type="line"/>
    </contour>
    <contour>
      <point x="420" y="583" type="line"/>
      <point x="332" y="330" type="line"/>
      <point x="515" y="330" type="line"/>
    </contour>
    <contour>
      <point x="638" y="0" type="line"/>
      <point x="541" y="259" type="line"/>
      <point x="309" y="259" type="line"/>
      <point x="223" y="0" type="line"/>
      <point x="83" y="0" type="line"/>
      <point x="339" y="730" type="line"/>
      <point x="452" y="730" type="line"/>
      <point x="719" y="0" type="line"/>
    </contour>
  </outline>
</glyph>
<glyph name="B" format="1">
  <advance width="680"/>
  <unicode hex="0042"/>
  <outline>
    <contour>
      <point x="413" y="0" type="line"/>
      <point x="292" y="0"/>
      <point x="171" y="0"/>
      <point x="50" y="0" type="curve"/>
      <point x="50" y="144" type="line"/>
      <point x="413" y="144" type="line"/>
    </contour>
    <contour>
      <point x="413" y="570" type="line"/>
      <point x="292" y="570"/>
      <point x="171" y="570"/>
      <point x="50" y="570" type="curve"/>
      <point x="50" y="730" type="line"/>
      <point x="413" y="730" type="line"/>
    </contour>
    <contour>
      <point x="134" y="0" type="line"/>
      <point x="134" y="730" type="line"/>
      <point x="394" y="730" type="line" smooth="yes"/>
      <point x="556" y="730"/>
      <point x="634" y="648"/>
      <point x="634" y="539" type="curve" smooth="yes"/>
      <point x="634" y="426"/>
      <point x="608" y="388"/>
      <point x="554" y="366" type="curve"/>
      <point x="625" y="341"/>
      <point x="650" y="293"/>
      <point x="650" y="198" type="curve" smooth="yes"/>
      <point x="650" y="85"/>
      <point x="568" y="0"/>
      <point x="413" y="0" type="curve" smooth="yes"/>
    </contour>
    <contour>
      <point x="206" y="401" type="line"/>
      <point x="447" y="401" type="line" smooth="yes"/>
      <point x="541" y="401"/>
      <point x="562" y="439"/>
      <point x="562" y="487" type="curve" smooth="yes"/>
      <point x="562" y="528"/>
      <point x="533" y="570"/>
      <point x="427" y="570" type="curve" smooth="yes"/>
      <point x="206" y="570" type="line"/>
    </contour>
    <contour>
      <point x="206" y="144" type="line"/>
      <point x="447" y="144" type="line" smooth="yes"/>
      <point x="536" y="144"/>
      <point x="575" y="182"/>
      <point x="575" y="239" type="curve" smooth="yes"/>
      <point x="575" y="286"/>
      <point x="544" y="329"/>
      <point x="444" y="329" type="curve" smooth="yes"/>
      <point x="206" y="329" type="line"/>
    </contour>
  </outline>
</glyph>
<glyph name="D" format="1">
  <advance width="731"/>
  <unicode hex="0044"/>
  <outline>
    <contour>
      <point x="423" y="555" type="line"/>
      <point x="302" y="555"/>
      <point x="181" y="555"/>
      <point x="60" y="555" type="curve"/>
      <point x="60" y="730" type="line"/>
      <point x="423" y="730" type="line"/>
    </contour>
    <contour>
      <point x="423" y="0" type="line"/>
      <point x="302" y="0"/>
      <point x="181" y="0"/>
      <point x="60" y="0" type="curve"/>
      <point x="60" y="144" type="line"/>
      <point x="423" y="144" type="line"/>
    </contour>
    <contour>
      <point x="170" y="0" type="line"/>
      <point x="170" y="730" type="line"/>
      <point x="413" y="730" type="line" smooth="yes"/>
      <point x="592" y="730"/>
      <point x="721" y="626"/>
      <point x="721" y="359" type="curve" smooth="yes"/>
      <point x="721" y="90"/>
      <point x="593" y="0"/>
      <point x="417" y="0" type="curve" smooth="yes"/>
    </contour>
    <contour>
      <point x="242" y="144" type="line"/>
      <point x="451" y="144" type="line" smooth="yes"/>
      <point x="556" y="144"/>
      <point x="660" y="225"/>
      <point x="660" y="346" type="curve" smooth="yes"/>
      <point x="660" y="466"/>
      <point x="571" y="555"/>
      <point x="434" y="555" type="curve" smooth="yes"/>
      <point x="242" y="555" type="line"/>
    </contour>
  </outline>
</glyph>
<glyph name="E" format="1">
  <advance width="626"/>
  <unicode hex="0045"/>
  <outline>
    <contour>
      <point x="435" y="467" type="line"/>
      <point x="483" y="467" type="line"/>
      <point x="483" y="238" type="line"/>
      <point x="463.667" y="238"/>
      <point x="454.333" y="238"/>
      <point x="435" y="238" type="curve"/>
    </contour>
    <contour>
      <point x="526" y="730" type="line"/>
      <point x="584" y="730" type="line"/>
      <point x="584" y="471" type="line"/>
      <point x="564.667" y="471"/>
      <point x="545.333" y="471"/>
      <point x="526" y="471" type="curve"/>
    </contour>
    <contour>
      <point x="533" y="229" type="line"/>
      <point x="591" y="229" type="line"/>
      <point x="591" y="0" type="line"/>
      <point x="571.667" y="-0"/>
      <point x="552.333" y="0"/>
      <point x="533" y="0" type="curve"/>
    </contour>
    <contour>
      <point x="443" y="550" type="line"/>
      <point x="322" y="550"/>
      <point x="171" y="550"/>
      <point x="50" y="550" type="curve"/>
      <point x="50" y="730" type="line"/>
      <point x="443" y="730" type="line"/>
    </contour>
    <contour>
      <point x="591" y="0" type="line"/>
      <point x="410.667" y="-0"/>
      <point x="230.333" y="0"/>
      <point x="50" y="0" type="curve"/>
      <point x="50" y="144" type="line"/>
      <point x="591" y="144" type="line"/>
    </contour>
    <contour>
      <point x="140" y="0" type="line"/>
      <point x="140" y="730" type="line"/>
      <point x="584" y="730" type="line"/>
      <point x="584" y="550" type="line"/>
      <point x="211" y="550" type="line"/>
      <point x="211" y="383" type="line"/>
      <point x="483" y="383" type="line"/>
      <point x="483" y="327" type="line"/>
      <point x="211" y="327" type="line"/>
      <point x="211" y="131" type="line"/>
      <point x="590" y="131" type="line"/>
      <point x="590" y="0" type="line"/>
    </contour>
  </outline>
</glyph>
<glyph name="F" format="1">
  <advance width="641"/>
  <unicode hex="0046"/>
  <outline>
    <contour>
      <point x="474" y="441" type="line"/>
      <point x="532" y="441" type="line"/>
      <point x="532" y="212" type="line"/>
      <point x="512.667" y="212"/>
      <point x="493.333" y="212"/>
      <point x="474" y="212" type="curve"/>
    </contour>
    <contour>
      <point x="553" y="730" type="line"/>
      <point x="611" y="730" type="line"/>
      <point x="611" y="471" type="line"/>
      <point x="591.667" y="471"/>
      <point x="572.333" y="471"/>
      <point x="553" y="471" type="curve"/>
    </contour>
    <contour>
      <point x="443" y="550" type="line"/>
      <point x="322" y="550"/>
      <point x="171" y="550"/>
      <point x="50" y="550" type="curve"/>
      <point x="50" y="730" type="line"/>
      <point x="443" y="730" type="line"/>
    </contour>
    <contour>
      <point x="393" y="0" type="line"/>
      <point x="278.667" y="-0"/>
      <point x="164.333" y="0"/>
      <point x="50" y="0" type="curve"/>
      <point x="50" y="144" type="line"/>
      <point x="393" y="144" type="line"/>
    </contour>
    <contour>
      <point x="180" y="0" type="line"/>
      <point x="180" y="730" type="line"/>
      <point x="610" y="730" type="line"/>
      <point x="610" y="547" type="line"/>
      <point x="252" y="547" type="line"/>
      <point x="252" y="386" type="line"/>
      <point x="532" y="386" type="line"/>
      <point x="532" y="268" type="line"/>
      <point x="252" y="268" type="line"/>
      <point x="252" y="0" type="line"/>
    </contour>
  </outline>
</glyph>
<glyph name="G" format="1">
  <advance width="705"/>
  <unicode hex="0047"/>
  <outline>
    <contour>
      <point x="577" y="740" type="line"/>
      <point x="636" y="740" type="line"/>
      <point x="636" y="485" type="line"/>
      <point x="617" y="485"/>
      <point x="596" y="485"/>
      <point x="577" y="485" type="curve"/>
    </contour>
    <contour>
      <point x="601" y="0" type="line"/>
      <point x="591" y="81" type="line"/>
      <point x="541" y="15"/>
      <point x="462" y="-10"/>
      <point x="360" y="-10" type="curve" smooth="yes"/>
      <point x="180" y="-10"/>
      <point x="60" y="107"/>
      <point x="60" y="354" type="curve" smooth="yes"/>
      <point x="60" y="633"/>
      <point x="188" y="740"/>
      <point x="362" y="740" type="curve" smooth="yes"/>
      <point x="492" y="740"/>
      <point x="605" y="658"/>
      <point x="605" y="535" type="curve"/>
      <point x="577" y="485" type="line"/>
      <point x="533" y="539"/>
      <point x="461" y="563"/>
      <point x="362" y="563" type="curve" smooth="yes"/>
      <point x="197" y="563"/>
      <point x="124" y="460"/>
      <point x="123" y="334" type="curve" smooth="yes"/>
      <point x="123" y="208"/>
      <point x="209" y="129"/>
      <point x="362" y="129" type="curve" smooth="yes"/>
      <point x="497" y="129"/>
      <point x="586" y="178"/>
      <point x="595" y="291" type="curve"/>
      <point x="390" y="291" type="line"/>
      <point x="390" y="364" type="line"/>
      <point x="655" y="364" type="line"/>
      <point x="655" y="0" type="line"/>
    </contour>
  </outline>
</glyph>
<glyph name="H" format="1">
  <advance width="880"/>
  <unicode hex="0048"/>
  <outline>
    <contour>
      <point x="830" y="555" type="line"/>
      <point x="709" y="555"/>
      <point x="628" y="555"/>
      <point x="507" y="555" type="curve"/>
      <point x="507" y="730" type="line"/>
      <point x="830" y="730" type="line"/>
    </contour>
    <contour>
      <point x="373" y="555" type="line"/>
      <point x="252" y="555"/>
      <point x="171" y="555"/>
      <point x="50" y="555" type="curve"/>
      <point x="50" y="730" type="line"/>
      <point x="373" y="730" type="line"/>
    </contour>
    <contour>
      <point x="373" y="0" type="line"/>
      <point x="272.667" y="0"/>
      <point x="150.333" y="0"/>
      <point x="50" y="0" type="curve"/>
      <point x="50" y="140" type="line"/>
      <point x="373" y="140" type="line"/>
    </contour>
    <contour>
      <point x="830" y="0" type="line"/>
      <point x="729.667" y="0"/>
      <point x="607.333" y="0"/>
      <point x="507" y="0" type="curve"/>
      <point x="507" y="140" type="line"/>
      <point x="830" y="140" type="line"/>
    </contour>
    <contour>
      <point x="246" y="0" type="line"/>
      <point x="175" y="0" type="line"/>
      <point x="175" y="730" type="line"/>
      <point x="246" y="730" type="line"/>
      <point x="246" y="430" type="line"/>
      <point x="634" y="430" type="line"/>
      <point x="634" y="730" type="line"/>
      <point x="705" y="730" type="line"/>
      <point x="705" y="0" type="line"/>
      <point x="634" y="0" type="line"/>
      <point x="634" y="295" type="line"/>
      <point x="246" y="295" type="line"/>
    </contour>
  </outline>
</glyph>
<glyph name="K" format="1">
  <advance width="724"/>
  <unicode hex="004B"/>
  <outline>
    <contour>
      <point x="684" y="555" type="line"/>
      <point x="563" y="555"/>
      <point x="630" y="555"/>
      <point x="509" y="555" type="curve"/>
      <point x="509" y="730" type="line"/>
      <point x="684" y="730" type="line"/>
    </contour>
    <contour>
      <point x="684" y="0" type="line"/>
      <point x="584" y="0"/>
      <point x="482" y="0"/>
      <point x="382" y="0" type="curve"/>
      <point x="382" y="140" type="line"/>
      <point x="684" y="140" type="line"/>
    </contour>
    <contour>
      <point x="312" y="555" type="line"/>
      <point x="191" y="555"/>
      <point x="183" y="555"/>
      <point x="62" y="555" type="curve"/>
      <point x="62" y="730" type="line"/>
      <point x="312" y="730" type="line"/>
    </contour>
    <contour>
      <point x="324" y="0" type="line"/>
      <point x="224" y="0"/>
      <point x="160" y="0"/>
      <point x="60" y="0" type="curve"/>
      <point x="60" y="140" type="line"/>
      <point x="324" y="140" type="line"/>
    </contour>
    <contour>
      <point x="576" y="0" type="line"/>
      <point x="338" y="333" type="line"/>
      <point x="223" y="209" type="line"/>
      <point x="223" y="0" type="line"/>
      <point x="152" y="0" type="line"/>
      <point x="152" y="730" type="line"/>
      <point x="223" y="730" type="line"/>
      <point x="223" y="409" type="line"/>
      <point x="503" y="730" type="line"/>
      <point x="684" y="730" type="line"/>
      <point x="390" y="390" type="line"/>
      <point x="665" y="0" type="line"/>
    </contour>
  </outline>
</glyph>
<glyph name="L" format="1">
  <advance width="575"/>
  <unicode hex="004C"/>
  <outline>
    <contour>
      <point x="497" y="246" type="line"/>
      <point x="555" y="246" type="line"/>
      <point x="555" y="-3" type="line"/>
      <point x="497" y="-3" type="line"/>
    </contour>
    <contour>
      <point x="302" y="552" type="line"/>
      <point x="181" y="552"/>
      <point x="181" y="552"/>
      <point x="60" y="552" type="curve"/>
      <point x="60" y="727" type="line"/>
      <point x="302" y="727" type="line"/>
    </contour>
    <contour>
      <point x="423" y="-3" type="line"/>
      <point x="323" y="-3"/>
      <point x="160" y="-3"/>
      <point x="60" y="-3" type="curve"/>
      <point x="60" y="137" type="line"/>
      <point x="423" y="137" type="line"/>
    </contour>
    <contour>
      <point x="555" y="-3" type="line"/>
      <point x="145" y="-3" type="line"/>
      <point x="145" y="727" type="line"/>
      <point x="213" y="727" type="line"/>
      <point x="213" y="137" type="line"/>
      <point x="555" y="137" type="line"/>
    </contour>
  </outline>
</glyph>
<glyph name="M" format="1">
  <advance width="1000"/>
  <unicode hex="004D"/>
  <outline>
    <contour>
      <point x="940" y="555" type="line"/>
      <point x="819" y="555"/>
      <point x="907" y="555"/>
      <point x="786" y="555" type="curve"/>
      <point x="786" y="730" type="line"/>
      <point x="940" y="730" type="line"/>
    </contour>
    <contour>
      <point x="940" y="0" type="line"/>
      <point x="840" y="0"/>
      <point x="796" y="0"/>
      <point x="696" y="0" type="curve"/>
      <point x="696" y="140" type="line"/>
      <point x="940" y="140" type="line"/>
    </contour>
    <contour>
      <point x="223" y="555" type="line"/>
      <point x="102" y="555"/>
      <point x="181" y="555"/>
      <point x="60" y="555" type="curve"/>
      <point x="60" y="613"/>
      <point x="60" y="672"/>
      <point x="60" y="730" type="curve"/>
      <point x="223" y="730" type="line"/>
    </contour>
    <contour>
      <point x="313" y="0" type="line"/>
      <point x="213" y="0"/>
      <point x="160" y="0"/>
      <point x="60" y="0" type="curve"/>
      <point x="60" y="140" type="line"/>
      <point x="313" y="140" type="line"/>
    </contour>
    <contour>
      <point x="449" y="0" type="line"/>
      <point x="225" y="591" type="line"/>
      <point x="225" y="0" type="line"/>
      <point x="150" y="0" type="line"/>
      <point x="150" y="730" type="line"/>
      <point x="315" y="730" type="line"/>
      <point x="505" y="119" type="line"/>
      <point x="698" y="730" type="line"/>
      <point x="850" y="730" type="line"/>
      <point x="850" y="0" type="line"/>
      <point x="780" y="0" type="line"/>
      <point x="780" y="587" type="line"/>
      <point x="569" y="0" type="line"/>
    </contour>
  </outline>
</glyph>
<glyph name="N" format="1">
  <advance width="880"/>
  <unicode hex="004E"/>
  <outline>
    <contour>
      <point x="830" y="550" type="line"/>
      <point x="709" y="550"/>
      <point x="669" y="550"/>
      <point x="548" y="550" type="curve"/>
      <point x="548" y="730" type="line"/>
      <point x="830" y="730" type="line"/>
    </contour>
    <contour>
      <point x="830" y="0" type="line"/>
      <point x="649.667" y="0"/>
      <point x="847.333" y="0"/>
      <point x="667" y="0" type="curve"/>
      <point x="667" y="144" type="line"/>
      <point x="830" y="144" type="line"/>
    </contour>
    <contour>
      <point x="213" y="550" type="line"/>
      <point x="92" y="550"/>
      <point x="171" y="550"/>
      <point x="50" y="550" type="curve"/>
      <point x="50" y="730" type="line"/>
      <point x="213" y="730" type="line"/>
    </contour>
    <contour>
      <point x="337" y="0" type="line"/>
      <point x="241.333" y="0"/>
      <point x="145.667" y="0"/>
      <point x="50" y="0" type="curve"/>
      <point x="50" y="144" type="line"/>
      <point x="337" y="144" type="line"/>
    </contour>
    <contour>
      <point x="579" y="0" type="line"/>
      <point x="227" y="590" type="line"/>
      <point x="227" y="0" type="line"/>
      <point x="155" y="0" type="line"/>
      <point x="155" y="730" type="line"/>
      <point x="321" y="730" type="line"/>
      <point x="653" y="106" type="line"/>
      <point x="653" y="730" type="line"/>
      <point x="725" y="730" type="line"/>
      <point x="725" y="0" type="line"/>
    </contour>
  </outline>
</glyph>
<glyph name="P" format="1">
  <advance width="680"/>
  <unicode hex="0050"/>
  <outline>
    <contour>
      <point x="373" y="555" type="line"/>
      <point x="252" y="555"/>
      <point x="171" y="555"/>
      <point x="50" y="555" type="curve"/>
      <point x="50" y="730" type="line"/>
      <point x="373" y="730" type="line"/>
    </contour>
    <contour>
      <point x="337" y="0" type="line"/>
      <point x="229.333" y="0"/>
      <point x="157.667" y="0"/>
      <point x="50" y="0" type="curve"/>
      <point x="50" y="140" type="line"/>
      <point x="337" y="140" type="line"/>
    </contour>
    <contour>
      <point x="374" y="210" type="curve" smooth="yes"/>
      <point x="226" y="210" type="line"/>
      <point x="226" y="0" type="line"/>
      <point x="155" y="0" type="line"/>
      <point x="155" y="730" type="line"/>
      <point x="375" y="730" type="line" smooth="yes"/>
      <point x="552" y="730"/>
      <point x="650" y="673"/>
      <point x="650" y="470" type="curve" smooth="yes"/>
      <point x="650" y="290"/>
      <point x="556" y="210"/>
    </contour>
    <contour>
      <point x="414" y="347" type="line" smooth="yes"/>
      <point x="535" y="347"/>
      <point x="590" y="389"/>
      <point x="589" y="451" type="curve" smooth="yes"/>
      <point x="588" y="519"/>
      <point x="529" y="555"/>
      <point x="414" y="555" type="curve" smooth="yes"/>
      <point x="226" y="555" type="line"/>
      <point x="226" y="347" type="line"/>
    </contour>
  </outline>
</glyph>
<glyph name="Q" format="1">
  <advance width="714"/>
  <unicode hex="0051"/>
  <outline>
    <contour>
      <point x="659" y="-85" type="line"/>
      <point x="569" y="-85" type="line"/>
      <point x="502" y="23" type="line"/>
      <point x="460" y="1"/>
      <point x="411" y="-10"/>
      <point x="357" y="-10" type="curve" smooth="yes"/>
      <point x="185" y="-10"/>
      <point x="60" y="99"/>
      <point x="60" y="351" type="curve" smooth="yes"/>
      <point x="60" y="632"/>
      <point x="181" y="740"/>
      <point x="357" y="740" type="curve" smooth="yes"/>
      <point x="533" y="740"/>
      <point x="654" y="632"/>
      <point x="654" y="351" type="curve" smooth="yes"/>
      <point x="654" y="217"/>
      <point x="619" y="124"/>
      <point x="560" y="65" type="curve"/>
    </contour>
    <contour>
      <point x="357" y="129" type="curve" smooth="yes"/>
      <point x="383" y="129"/>
      <point x="408" y="131"/>
      <point x="431" y="136" type="curve"/>
      <point x="340" y="282" type="line"/>
      <point x="418" y="282" type="line"/>
      <point x="498" y="160" type="line"/>
      <point x="556" y="192"/>
      <point x="594" y="252"/>
      <point x="593" y="351" type="curve" smooth="yes"/>
      <point x="591" y="464"/>
      <point x="511" y="534"/>
      <point x="357" y="534" type="curve" smooth="yes"/>
      <point x="202" y="534"/>
      <point x="123" y="464"/>
      <point x="122" y="351" type="curve" smooth="yes"/>
      <point x="121" y="185"/>
      <point x="230" y="129"/>
    </contour>
  </outline>
</glyph>
<glyph name="S" format="1">
  <advance width="668.0098525325473"/>
  <unicode hex="0053"/>
  <outline>
    <contour>
      <point x="530" y="740" type="line"/>
      <point x="588" y="740" type="line"/>
      <point x="588" y="520" type="line"/>
      <point x="569" y="520"/>
      <point x="549" y="520"/>
      <point x="530" y="520" type="curve"/>
    </contour>
    <contour>
      <point x="60" y="262" type="line"/>
      <point x="118" y="262" type="line"/>
      <point x="118" y="0" type="line"/>
      <point x="99" y="0"/>
      <point x="79" y="0"/>
      <point x="60" y="0" type="curve"/>
    </contour>
    <contour>
      <point x="344" y="-10" type="curve" smooth="yes"/>
      <point x="216" y="-10"/>
      <point x="102" y="59"/>
      <point x="82" y="150" type="curve"/>
      <point x="118" y="262" type="line"/>
      <point x="147" y="193"/>
      <point x="227" y="137"/>
      <point x="334" y="137" type="curve" smooth="yes"/>
      <point x="470" y="137"/>
      <point x="523" y="179"/>
      <point x="523" y="234" type="curve" smooth="yes"/>
      <point x="523" y="283"/>
      <point x="467" y="322"/>
      <point x="331" y="332" type="curve" smooth="yes"/>
      <point x="121" y="348"/>
      <point x="66" y="420"/>
      <point x="66" y="547" type="curve" smooth="yes"/>
      <point x="66" y="667"/>
      <point x="161" y="760"/>
      <point x="327" y="760" type="curve" smooth="yes"/>
      <point x="449" y="760"/>
      <point x="541" y="682"/>
      <point x="558" y="607" type="curve"/>
      <point x="530" y="520" type="line"/>
      <point x="494" y="550"/>
      <point x="445" y="591"/>
      <point x="329" y="591" type="curve" smooth="yes"/>
      <point x="194" y="591"/>
      <point x="155" y="541"/>
      <point x="155" y="490" type="curve" smooth="yes"/>
      <point x="155" y="445"/>
      <point x="183" y="413"/>
      <point x="337" y="400" type="curve" smooth="yes"/>
      <point x="544" y="383"/>
      <point x="619" y="304"/>
      <point x="618" y="187" type="curve" smooth="yes"/>
      <point x="618" y="60"/>
      <point x="524" y="-10"/>
    </contour>
  </outline>
</glyph>
<glyph name="T" format="1">
  <advance width="630"/>
  <unicode hex="0054"/>
  <outline>
    <contour>
      <point x="40" y="706" type="line"/>
      <point x="98" y="706" type="line"/>
      <point x="98" y="457" type="line"/>
      <point x="40" y="457" type="line"/>
    </contour>
    <contour>
      <point x="532" y="706" type="line"/>
      <point x="590" y="706" type="line"/>
      <point x="590" y="457" type="line"/>
      <point x="532" y="457" type="line"/>
    </contour>
    <contour>
      <point x="466" y="0" type="line"/>
      <point x="366" y="0"/>
      <point x="265" y="0"/>
      <point x="165" y="0" type="curve"/>
      <point x="165" y="140" type="line"/>
      <point x="466" y="140" type="line"/>
    </contour>
    <contour>
      <point x="40" y="550" type="line"/>
      <point x="40" y="730" type="line"/>
      <point x="590" y="730" type="line"/>
      <point x="590" y="550" type="line"/>
      <point x="352" y="550" type="line"/>
      <point x="352" y="0" type="line"/>
      <point x="281" y="0" type="line"/>
      <point x="281" y="550" type="line"/>
    </contour>
  </outline>
</glyph>
<glyph name="U" format="1">
  <advance width="829"/>
  <unicode hex="0055"/>
  <outline>
    <contour>
      <point x="789" y="555" type="line"/>
      <point x="668" y="555"/>
      <point x="618" y="555"/>
      <point x="497" y="555" type="curve"/>
      <point x="497" y="730" type="line"/>
      <point x="789" y="730" type="line"/>
    </contour>
    <contour>
      <point x="333" y="555" type="line"/>
      <point x="212" y="555"/>
      <point x="161" y="555"/>
      <point x="40" y="555" type="curve"/>
      <point x="40" y="730" type="line"/>
      <point x="333" y="730" type="line"/>
    </contour>
    <contour>
      <point x="633" y="361" type="curve" smooth="yes"/>
      <point x="633" y="730" type="line"/>
      <point x="701" y="730" type="line"/>
      <point x="701" y="296" type="line" smooth="yes"/>
      <point x="701" y="83"/>
      <point x="591" y="-10"/>
      <point x="416" y="-10" type="curve" smooth="yes"/>
      <point x="249" y="-10"/>
      <point x="131" y="82"/>
      <point x="131" y="294" type="curve" smooth="yes"/>
      <point x="131" y="730" type="line"/>
      <point x="197" y="730" type="line"/>
      <point x="197" y="369" type="line" smooth="yes"/>
      <point x="197" y="310"/>
      <point x="205" y="251"/>
      <point x="240" y="215" type="curve" smooth="yes"/>
      <point x="281" y="174"/>
      <point x="340" y="155"/>
      <point x="419" y="155" type="curve" smooth="yes"/>
      <point x="493" y="155"/>
      <point x="552" y="173"/>
      <point x="591" y="215" type="curve" smooth="yes"/>
      <point x="622" y="249"/>
      <point x="633" y="308"/>
    </contour>
  </outline>
</glyph>
<glyph name="V" format="1">
  <advance width="759"/>
  <unicode hex="0056"/>
  <outline>
    <contour>
      <point x="749" y="555" type="line"/>
      <point x="628" y="555"/>
      <point x="541" y="555"/>
      <point x="420" y="555" type="curve"/>
      <point x="420" y="730" type="line"/>
      <point x="749" y="730" type="line"/>
    </contour>
    <contour>
      <point x="262" y="555" type="line"/>
      <point x="141" y="555"/>
      <point x="141" y="555"/>
      <point x="20" y="555" type="curve"/>
      <point x="20" y="730" type="line"/>
      <point x="262" y="730" type="line"/>
    </contour>
    <contour>
      <point x="436" y="0" type="line"/>
      <point x="313" y="0" type="line"/>
      <point x="40" y="730" type="line"/>
      <point x="118" y="730" type="line"/>
      <point x="347" y="133" type="line"/>
      <point x="580" y="729" type="line"/>
      <point x="730" y="729" type="line"/>
    </contour>
  </outline>
</glyph>
<glyph name="W" format="1">
  <advance width="1027"/>
  <unicode hex="0057"/>
  <outline>
    <contour>
      <point x="1017" y="555" type="line"/>
      <point x="896" y="555"/>
      <point x="806" y="555"/>
      <point x="685" y="555" type="curve"/>
      <point x="685" y="730" type="line"/>
      <point x="1017" y="730" type="line"/>
    </contour>
    <contour>
      <point x="352" y="555" type="line"/>
      <point x="231" y="555"/>
      <point x="141" y="555"/>
      <point x="20" y="555" type="curve"/>
      <point x="20" y="730" type="line"/>
      <point x="352" y="730" type="line"/>
    </contour>
    <contour>
      <point x="650" y="0" type="line"/>
      <point x="535" y="370" type="line"/>
      <point x="403" y="0" type="line"/>
      <point x="290" y="0" type="line"/>
      <point x="79" y="730" type="line"/>
      <point x="153" y="730" type="line"/>
      <point x="326" y="137" type="line"/>
      <point x="485" y="599" type="line"/>
      <point x="543" y="599" type="line"/>
      <point x="684" y="146" type="line"/>
      <point x="851" y="729" type="line"/>
      <point x="979" y="729" type="line"/>
      <point x="759" y="0" type="line"/>
    </contour>
  </outline>
</glyph>
<glyph name="X" format="1">
  <advance width="691"/>
  <unicode hex="0058"/>
  <outline>
    <contour>
      <point x="670" y="0" type="line"/>
      <point x="573" y="0"/>
      <point x="485" y="0"/>
      <point x="388" y="0" type="curve"/>
      <point x="388" y="137" type="line"/>
      <point x="670" y="137" type="line"/>
    </contour>
    <contour>
      <point x="670" y="555" type="line"/>
      <point x="553" y="555"/>
      <point x="473" y="555"/>
      <point x="356" y="555" type="curve"/>
      <point x="356" y="730" type="line"/>
      <point x="670" y="730" type="line"/>
    </contour>
    <contour>
      <point x="336" y="0" type="line"/>
      <point x="239" y="0"/>
      <point x="118" y="0"/>
      <point x="21" y="0" type="curve"/>
      <point x="21" y="137" type="line"/>
      <point x="336" y="137" type="line"/>
    </contour>
    <contour>
      <point x="313" y="555" type="line"/>
      <point x="196" y="555"/>
      <point x="173" y="555"/>
      <point x="56" y="555" type="curve"/>
      <point x="56" y="729" type="line"/>
      <point x="313" y="729" type="line"/>
    </contour>
    <contour>
      <point x="551" y="1" type="line"/>
      <point x="363" y="284" type="line"/>
      <point x="177" y="1" type="line"/>
      <point x="32" y="1" type="line"/>
      <point x="297" y="381" type="line"/>
      <point x="63" y="729" type="line"/>
      <point x="140" y="729" type="line"/>
      <point x="337" y="444" type="line"/>
      <point x="523" y="729" type="line"/>
      <point x="658" y="729" type="line"/>
      <point x="403" y="349" type="line"/>
      <point x="641" y="1" type="line"/>
    </contour>
  </outline>
</glyph>
<glyph name="Y" format="1">
  <advance width="702"/>
  <unicode hex="0059"/>
  <outline>
    <contour>
      <point x="506" y="-1" type="line"/>
      <point x="406" y="-1"/>
      <point x="283" y="-1"/>
      <point x="183" y="-1" type="curve"/>
      <point x="183" y="139" type="line"/>
      <point x="506" y="139" type="line"/>
    </contour>
    <contour>
      <point x="294" y="555" type="line"/>
      <point x="173" y="555"/>
      <point x="141" y="555"/>
      <point x="20" y="555" type="curve"/>
      <point x="20" y="730" type="line"/>
      <point x="294" y="730" type="line"/>
    </contour>
    <contour>
      <point x="692" y="555" type="line"/>
      <point x="571" y="555"/>
      <point x="472" y="555"/>
      <point x="351" y="555" type="curve"/>
      <point x="351" y="730" type="line"/>
      <point x="692" y="730" type="line"/>
    </contour>
    <contour>
      <point x="381" y="0" type="line"/>
      <point x="310" y="0" type="line"/>
      <point x="310" y="252" type="line"/>
      <point x="42" y="730" type="line"/>
      <point x="115" y="730" type="line"/>
      <point x="314" y="357" type="line"/>
      <point x="513" y="730" type="line"/>
      <point x="649" y="725" type="line"/>
      <point x="381" y="247" type="line"/>
    </contour>
  </outline>
</glyph>
<glyph name="Z" format="1">
  <advance width="665"/>
  <unicode hex="005A"/>
  <outline>
    <contour>
      <point x="557" y="219" type="line"/>
      <point x="615" y="219" type="line"/>
      <point x="615" y="0" type="line"/>
      <point x="596" y="0"/>
      <point x="576" y="0"/>
      <point x="557" y="0" type="curve"/>
    </contour>
    <contour>
      <point x="77" y="729" type="line"/>
      <point x="135" y="729" type="line"/>
      <point x="135" y="470" type="line"/>
      <point x="116" y="470"/>
      <point x="96" y="470"/>
      <point x="77" y="470" type="curve"/>
    </contour>
    <contour>
      <point x="615" y="0" type="line"/>
      <point x="45" y="0" type="line"/>
      <point x="45" y="41" type="line"/>
      <point x="433" y="545" type="line"/>
      <point x="78" y="545" type="line"/>
      <point x="78" y="730" type="line"/>
      <point x="635" y="730" type="line"/>
      <point x="635" y="699" type="line"/>
      <point x="215" y="141" type="line"/>
      <point x="615" y="141" type="line"/>
    </contour>
  </outline>
</glyph>
<glyph name="bracketleft" format="1">
  <advance width="330"/>
  <unicode hex="005B"/>
  <outline>
    <contour>
      <point x="60" y="-200" type="line"/>
      <point x="60" y="800" type="line"/>
      <point x="258" y="800" type="line"/>
      <point x="258" y="626" type="line"/>
      <point x="130" y="626" type="line"/>
      <point x="130" y="-26" type="line"/>
      <point x="258" y="-26" type="line"/>
      <point x="258" y="-200" type="line"/>
    </contour>
  </outline>
</glyph>
<glyph name="bracketright" format="1">
  <advance width="330"/>
  <unicode hex="005D"/>
  <outline>
    <contour>
      <point x="320" y="-200" type="line"/>
      <point x="122" y="-200" type="line"/>
      <point x="122" y="-26" type="line"/>
      <point x="250" y="-26" type="line"/>
      <point x="250" y="626" type="line"/>
      <point x="122" y="626" type="line"/>
      <point x="122" y="800" type="line"/>
      <point x="320" y="800" type="line"/>
    </contour>
  </outline>
</glyph>
<glyph name="asciicircum" format="1">
  <advance width="530"/>
  <unicode hex="005E"/>
  <outline>
    <contour>
      <point x="444" y="235" type="line"/>
      <point x="376" y="230"/>
      <point x="282" y="249"/>
      <point x="262" y="289" type="curve"/>
      <point x="242" y="249"/>
      <point x="148" y="230"/>
      <point x="80" y="235" type="curve"/>
      <point x="80" y="269" type="line"/>
      <point x="144" y="280"/>
      <point x="220" y="351"/>
      <point x="252" y="410" type="curve"/>
      <point x="272" y="410" type="line"/>
      <point x="304" y="351"/>
      <point x="380" y="280"/>
      <point x="444" y="269" type="curve"/>
    </contour>
  </outline>
</glyph>
<glyph name="underscore" format="1">
  <advance width="530"/>
  <unicode hex="005F"/>
  <outline>
    <contour>
      <point x="515" y="0" type="line"/>
      <point x="15" y="0" type="line"/>
      <point x="15" y="71" type="line"/>
      <point x="515" y="71" type="line"/>
    </contour>
  </outline>
</glyph>
<glyph name="a" format="1">
  <advance width="612"/>
  <unicode hex="0061"/>
  <outline>
    <contour>
      <point x="261" y="115" type="curve" smooth="yes"/>
      <point x="323" y="115"/>
      <point x="378" y="129"/>
      <point x="410" y="159" type="curve"/>
      <point x="410" y="210" type="line"/>
      <point x="369" y="241"/>
      <point x="324" y="256"/>
      <point x="268" y="256" type="curve" smooth="yes"/>
      <point x="170" y="256"/>
      <point x="128" y="230"/>
      <point x="128" y="184" type="curve" smooth="yes"/>
      <point x="128" y="140"/>
      <point x="168" y="115"/>
    </contour>
    <contour>
      <point x="439" y="77" type="line"/>
      <point x="412" y="29"/>
      <point x="338" y="-10"/>
      <point x="260" y="-10" type="curve" smooth="yes"/>
      <point x="118" y="-10"/>
      <point x="50" y="58"/>
      <point x="50" y="155" type="curve" smooth="yes"/>
      <point x="50" y="260"/>
      <point x="131" y="327"/>
      <point x="250" y="327" type="curve" smooth="yes"/>
      <point x="297" y="327"/>
      <point x="367" y="318"/>
      <point x="409" y="289" type="curve"/>
      <point x="404" y="383"/>
      <point x="360" y="422"/>
      <point x="266" y="422" type="curve" smooth="yes"/>
      <point x="181" y="422"/>
      <point x="131" y="395"/>
      <point x="104" y="363" type="curve"/>
      <point x="100" y="492" type="line"/>
      <point x="138" y="537"/>
      <point x="201" y="560"/>
      <point x="276" y="560" type="curve" smooth="yes"/>
      <point x="412" y="560"/>
      <point x="473" y="501"/>
      <point x="473" y="316" type="curve" smooth="yes"/>
      <point x="473" y="212" type="line" smooth="yes"/>
      <point x="473" y="195"/>
      <point x="473" y="183"/>
      <point x="473" y="158" type="curve"/>
      <point x="481" y="135"/>
      <point x="502" y="123"/>
      <point x="526" y="123" type="curve" smooth="yes"/>
      <point x="557" y="123"/>
      <point x="582" y="132"/>
      <point x="605" y="161" type="curve"/>
      <point x="605" y="123"/>
      <point x="605" y="52"/>
      <point x="605" y="37" type="curve"/>
      <point x="587" y="14"/>
      <point x="559" y="0"/>
      <point x="519" y="0" type="curve"/>
      <point x="469" y="0"/>
      <point x="432" y="26"/>
      <point x="414" y="72" type="curve"/>
    </contour>
  </outline>
</glyph>
<glyph name="b" format="1">
  <advance width="638"/>
  <unicode hex="0062"/>
  <outline>
    <contour>
      <point x="203" y="624" type="line"/>
      <point x="82" y="624"/>
      <point x="161" y="624"/>
      <point x="40" y="624" type="curve"/>
      <point x="40" y="799" type="line"/>
      <point x="203" y="799" type="line"/>
    </contour>
    <contour>
      <point x="203" y="0" type="line"/>
      <point x="82" y="0"/>
      <point x="161" y="0"/>
      <point x="40" y="0" type="curve"/>
      <point x="40" y="144" type="line"/>
      <point x="203" y="144" type="line"/>
    </contour>
    <contour>
      <point x="377" y="-10" type="curve" smooth="yes"/>
      <point x="304" y="-10"/>
      <point x="243" y="31"/>
      <point x="211" y="86" type="curve"/>
      <point x="204" y="0" type="line"/>
      <point x="149" y="0" type="line"/>
      <point x="149" y="799" type="line"/>
      <point x="214" y="799" type="line"/>
      <point x="214" y="461" type="line"/>
      <point x="248" y="535"/>
      <point x="318" y="559"/>
      <point x="382" y="560" type="curve" smooth="yes"/>
      <point x="505" y="561"/>
      <point x="588" y="481"/>
      <point x="588" y="266" type="curve" smooth="yes"/>
      <point x="588" y="91"/>
      <point x="511" y="-10"/>
    </contour>
    <contour>
      <point x="371" y="108" type="curve" smooth="yes"/>
      <point x="477" y="108"/>
      <point x="530" y="169"/>
      <point x="529" y="266" type="curve" smooth="yes"/>
      <point x="529" y="344"/>
      <point x="478" y="398"/>
      <point x="375" y="398" type="curve" smooth="yes"/>
      <point x="258" y="398"/>
      <point x="215" y="343"/>
      <point x="214" y="266" type="curve" smooth="yes"/>
      <point x="214" y="167" type="line"/>
      <point x="247" y="122"/>
      <point x="291" y="108"/>
    </contour>
  </outline>
</glyph>
<glyph name="c" format="1">
  <advance width="520"/>
  <unicode hex="0063"/>
  <outline>
    <contour>
      <point x="412" y="408" type="line"/>
      <point x="412" y="559" type="line"/>
      <point x="470" y="559" type="line"/>
      <point x="470" y="340" type="line"/>
      <point x="451" y="340"/>
      <point x="431" y="340"/>
      <point x="412" y="340" type="curve"/>
      <point x="390" y="376"/>
      <point x="353" y="402"/>
      <point x="270" y="402" type="curve" smooth="yes"/>
      <point x="173" y="402"/>
      <point x="110" y="352"/>
      <point x="109" y="266" type="curve" smooth="yes"/>
      <point x="108" y="181"/>
      <point x="155" y="108"/>
      <point x="270" y="108" type="curve" smooth="yes"/>
      <point x="353" y="108"/>
      <point x="401" y="130"/>
      <point x="428" y="183" type="curve"/>
      <point x="480" y="112" type="line"/>
      <point x="446" y="34"/>
      <point x="373" y="-10"/>
      <point x="265" y="-10" type="curve" smooth="yes"/>
      <point x="138" y="-10"/>
      <point x="50" y="79"/>
      <point x="50" y="271" type="curve" smooth="yes"/>
      <point x="50" y="479"/>
      <point x="145" y="560"/>
      <point x="265" y="560" type="curve" smooth="yes"/>
      <point x="360" y="560"/>
      <point x="416" y="514"/>
      <point x="431" y="419" type="curve"/>
    </contour>
  </outline>
</glyph>
<glyph name="d" format="1">
  <advance width="617"/>
  <unicode hex="0064"/>
  <outline>
    <contour>
      <point x="477" y="625" type="line"/>
      <point x="356" y="625"/>
      <point x="425" y="625"/>
      <point x="304" y="625" type="curve"/>
      <point x="304" y="800" type="line"/>
      <point x="477" y="800" type="line"/>
    </contour>
    <contour>
      <point x="607" y="0" type="line"/>
      <point x="553" y="0"/>
      <point x="498" y="0"/>
      <point x="444" y="0" type="curve"/>
      <point x="444" y="144" type="line"/>
      <point x="607" y="144" type="line"/>
    </contour>
    <contour>
      <point x="266" y="108" type="curve" smooth="yes"/>
      <point x="340" y="108"/>
      <point x="390" y="120"/>
      <point x="424" y="168" type="curve"/>
      <point x="424" y="266" type="line" smooth="yes"/>
      <point x="423" y="340"/>
      <point x="380" y="398"/>
      <point x="264" y="398" type="curve" smooth="yes"/>
      <point x="162" y="398"/>
      <point x="109" y="339"/>
      <point x="109" y="265" type="curve"/>
      <point x="108" y="171"/>
      <point x="161" y="108"/>
    </contour>
    <contour>
      <point x="434" y="0" type="line"/>
      <point x="427" y="86" type="line"/>
      <point x="396" y="31"/>
      <point x="335" y="-10"/>
      <point x="262" y="-10" type="curve" smooth="yes"/>
      <point x="128" y="-10"/>
      <point x="50" y="91"/>
      <point x="50" y="266" type="curve" smooth="yes"/>
      <point x="50" y="481"/>
      <point x="134" y="561"/>
      <point x="258" y="560" type="curve" smooth="yes"/>
      <point x="321" y="559"/>
      <point x="390" y="536"/>
      <point x="424" y="461" type="curve"/>
      <point x="424" y="800" type="line"/>
      <point x="489" y="800" type="line"/>
      <point x="489" y="0" type="line"/>
    </contour>
  </outline>
</glyph>
<glyph name="e" format="1">
  <advance width="532"/>
  <unicode hex="0065"/>
  <outline>
    <contour>
      <point x="270" y="408" type="curve" smooth="yes"/>
      <point x="195" y="408"/>
      <point x="125" y="373"/>
      <point x="111" y="297" type="curve"/>
      <point x="435" y="297" type="line"/>
      <point x="435" y="358"/>
      <point x="372" y="408"/>
    </contour>
    <contour>
      <point x="481" y="126" type="line"/>
      <point x="448" y="50"/>
      <point x="374" y="-10"/>
      <point x="277" y="-10" type="curve" smooth="yes"/>
      <point x="127" y="-10"/>
      <point x="50" y="105"/>
      <point x="50" y="267" type="curve" smooth="yes"/>
      <point x="50" y="480"/>
      <point x="155" y="560"/>
      <point x="275" y="560" type="curve" smooth="yes"/>
      <point x="411" y="560"/>
      <point x="497" y="479"/>
      <point x="497" y="232" type="curve"/>
      <point x="111" y="232" type="line"/>
      <point x="124" y="144"/>
      <point x="183" y="112"/>
      <point x="275" y="111" type="curve" smooth="yes"/>
      <point x="363" y="110"/>
      <point x="405" y="131"/>
      <point x="434" y="171" type="curve"/>
    </contour>
  </outline>
</glyph>
<glyph name="f" format="1">
  <advance width="378"/>
  <unicode hex="0066"/>
  <outline>
    <contour>
      <point x="324" y="0" type="line"/>
      <point x="270" y="0"/>
      <point x="115" y="0"/>
      <point x="61" y="0" type="curve"/>
      <point x="61" y="144" type="line"/>
      <point x="324" y="144" type="line"/>
    </contour>
    <contour>
      <point x="327" y="366" type="line"/>
      <point x="204" y="366" type="line"/>
      <point x="204" y="0" type="line"/>
      <point x="139" y="0" type="line"/>
      <point x="139" y="366" type="line"/>
      <point x="60" y="366" type="line"/>
      <point x="60" y="530" type="line"/>
      <point x="138" y="530" type="line"/>
      <point x="118" y="712"/>
      <point x="189" y="790"/>
      <point x="284" y="790" type="curve" smooth="yes"/>
      <point x="322" y="790"/>
      <point x="350" y="776"/>
      <point x="373" y="758" type="curve"/>
      <point x="365" y="629" type="line"/>
      <point x="353" y="638"/>
      <point x="331" y="644"/>
      <point x="303" y="644" type="curve" smooth="yes"/>
      <point x="247" y="644"/>
      <point x="195" y="603"/>
      <point x="205" y="530" type="curve"/>
      <point x="327" y="530" type="line"/>
    </contour>
  </outline>
</glyph>
<glyph name="g" format="1">
  <advance width="580"/>
  <unicode hex="0067"/>
  <outline>
    <contour>
      <point x="278" y="223" type="curve" smooth="yes"/>
      <point x="375" y="223"/>
      <point x="423" y="276"/>
      <point x="423" y="321" type="curve" smooth="yes"/>
      <point x="422" y="379"/>
      <point x="376" y="414"/>
      <point x="278" y="414" type="curve" smooth="yes"/>
      <point x="177" y="414"/>
      <point x="138" y="377"/>
      <point x="137" y="321" type="curve"/>
      <point x="137" y="272"/>
      <point x="179" y="223"/>
    </contour>
    <contour>
      <point x="286" y="-243" type="curve" smooth="yes"/>
      <point x="177" y="-243"/>
      <point x="75" y="-190"/>
      <point x="50" y="-121" type="curve"/>
      <point x="75" y="-34" type="line"/>
      <point x="110" y="-86"/>
      <point x="194" y="-120"/>
      <point x="293" y="-120" type="curve" smooth="yes"/>
      <point x="402" y="-120"/>
      <point x="443" y="-86"/>
      <point x="443" y="-51" type="curve" smooth="yes"/>
      <point x="443" y="-23"/>
      <point x="413" y="-3"/>
      <point x="375" y="-3" type="curve" smooth="yes"/>
      <point x="318" y="-3"/>
      <point x="258" y="-17"/>
      <point x="190" y="-17" type="curve" smooth="yes"/>
      <point x="110" y="-17"/>
      <point x="71" y="44"/>
      <point x="70" y="100" type="curve" smooth="yes"/>
      <point x="69" y="134"/>
      <point x="81" y="172"/>
      <point x="113" y="196" type="curve"/>
      <point x="87" y="224"/>
      <point x="71" y="265"/>
      <point x="71" y="324" type="curve" smooth="yes"/>
      <point x="71" y="501"/>
      <point x="153" y="560"/>
      <point x="278" y="560" type="curve" smooth="yes"/>
      <point x="351" y="560"/>
      <point x="410" y="541"/>
      <point x="446" y="492" type="curve"/>
      <point x="472" y="544"/>
      <point x="524" y="558"/>
      <point x="594" y="550" type="curve"/>
      <point x="558" y="423" type="line"/>
      <point x="558" y="423"/>
      <point x="510" y="438"/>
      <point x="478" y="421" type="curve"/>
      <point x="485" y="394"/>
      <point x="489" y="363"/>
      <point x="489" y="326" type="curve" smooth="yes"/>
      <point x="489" y="172"/>
      <point x="370" y="137"/>
      <point x="278" y="137" type="curve" smooth="yes"/>
      <point x="245" y="137"/>
      <point x="210" y="141"/>
      <point x="178" y="153" type="curve"/>
      <point x="161" y="144"/>
      <point x="147" y="130"/>
      <point x="148" y="110" type="curve" smooth="yes"/>
      <point x="149" y="76"/>
      <point x="169" y="60"/>
      <point x="197" y="60" type="curve" smooth="yes"/>
      <point x="258" y="60"/>
      <point x="314" y="77"/>
      <point x="385" y="78" type="curve" smooth="yes"/>
      <point x="481" y="79"/>
      <point x="525" y="23"/>
      <point x="525" y="-61" type="curve" smooth="yes"/>
      <point x="525" y="-147"/>
      <point x="451" y="-243"/>
    </contour>
  </outline>
</glyph>
<glyph name="h" format="1">
  <advance width="632"/>
  <unicode hex="0068"/>
  <outline>
    <contour>
      <point x="617" y="0" type="line"/>
      <point x="562.667" y="0"/>
      <point x="408.333" y="0"/>
      <point x="354" y="0" type="curve"/>
      <point x="354" y="144" type="line"/>
      <point x="617" y="144" type="line"/>
    </contour>
    <contour>
      <point x="173" y="555" type="line"/>
      <point x="52" y="555"/>
      <point x="131" y="555"/>
      <point x="10" y="555" type="curve"/>
      <point x="10" y="730" type="line"/>
      <point x="173" y="730" type="line"/>
    </contour>
    <contour>
      <point x="273" y="0" type="line"/>
      <point x="185.333" y="-0"/>
      <point x="97.6667" y="0"/>
      <point x="10" y="0" type="curve"/>
      <point x="10" y="144" type="line"/>
      <point x="273" y="144" type="line"/>
    </contour>
    <contour>
      <point x="330" y="388" type="curve" smooth="yes"/>
      <point x="254" y="388"/>
      <point x="199" y="359"/>
      <point x="173" y="289" type="curve"/>
      <point x="173" y="0" type="line"/>
      <point x="109" y="0" type="line"/>
      <point x="109" y="723" type="line"/>
      <point x="173" y="723" type="line"/>
      <point x="173" y="457" type="line"/>
      <point x="201" y="523"/>
      <point x="265" y="560"/>
      <point x="347" y="560" type="curve" smooth="yes"/>
      <point x="468" y="560"/>
      <point x="523" y="499"/>
      <point x="523" y="304" type="curve" smooth="yes"/>
      <point x="523" y="0" type="line"/>
      <point x="460" y="0" type="line"/>
      <point x="460" y="241" type="line" smooth="yes"/>
      <point x="460" y="342"/>
      <point x="415" y="388"/>
    </contour>
  </outline>
</glyph>
<glyph name="i" format="1">
  <advance width="376"/>
  <unicode hex="0069"/>
  <outline>
    <contour>
      <point x="55" y="143" type="line"/>
      <point x="346" y="143" type="line"/>
      <point x="346" y="-1" type="line"/>
      <point x="245.667" y="-1.16309"/>
      <point x="155.333" y="1.57005"/>
      <point x="55" y="-1" type="curve"/>
    </contour>
    <contour>
      <point x="250" y="709" type="curve" smooth="yes"/>
      <point x="250" y="652"/>
      <point x="216" y="625"/>
      <point x="164" y="625" type="curve" smooth="yes"/>
      <point x="106" y="625"/>
      <point x="74" y="652"/>
      <point x="74" y="709" type="curve" smooth="yes"/>
      <point x="74" y="766"/>
      <point x="104" y="790"/>
      <point x="164" y="790" type="curve" smooth="yes"/>
      <point x="218" y="790"/>
      <point x="250" y="767"/>
    </contour>
    <contour>
      <point x="180" y="0" type="line"/>
      <point x="180" y="366" type="line"/>
      <point x="55" y="366" type="line"/>
      <point x="55" y="530" type="line"/>
      <point x="245" y="530" type="line"/>
      <point x="245" y="0" type="line"/>
    </contour>
  </outline>
</glyph>
<glyph name="k" format="1">
  <advance width="596"/>
  <unicode hex="006B"/>
  <outline>
    <contour>
      <point x="593" y="495" type="line"/>
      <point x="472" y="495"/>
      <point x="503" y="495"/>
      <point x="382" y="495" type="curve"/>
      <point x="382" y="550" type="line"/>
      <point x="593" y="550" type="line"/>
    </contour>
    <contour>
      <point x="592" y="0" type="line"/>
      <point x="504.333" y="0"/>
      <point x="416.667" y="0"/>
      <point x="329" y="0" type="curve"/>
      <point x="329" y="144" type="line"/>
      <point x="592" y="144" type="line"/>
    </contour>
    <contour>
      <point x="190" y="624" type="line"/>
      <point x="69" y="624"/>
      <point x="148" y="624"/>
      <point x="27" y="624" type="curve"/>
      <point x="27" y="799" type="line"/>
      <point x="190" y="799" type="line"/>
    </contour>
    <contour>
      <point x="290" y="0" type="line"/>
      <point x="202.333" y="0"/>
      <point x="114.667" y="0"/>
      <point x="27" y="0" type="curve"/>
      <point x="27" y="144" type="line"/>
      <point x="290" y="144" type="line"/>
    </contour>
    <contour>
      <point x="489" y="0" type="line"/>
      <point x="291" y="260" type="line"/>
      <point x="191" y="149" type="line"/>
      <point x="191" y="0" type="line"/>
      <point x="127" y="0" type="line"/>
      <point x="127" y="798" type="line"/>
      <point x="191" y="798" type="line"/>
      <point x="191" y="335" type="line"/>
      <point x="373" y="550" type="line"/>
      <point x="553" y="550" type="line"/>
      <point x="336" y="310" type="line"/>
      <point x="572" y="0" type="line"/>
    </contour>
  </outline>
</glyph>
<glyph name="l" format="1">
  <advance width="380"/>
  <unicode hex="006C"/>
  <outline>
    <contour>
      <point x="260" y="-10" type="curve" smooth="yes"/>
      <point x="172" y="-10"/>
      <point x="130" y="37"/>
      <point x="130" y="149" type="curve" smooth="yes"/>
      <point x="130" y="625" type="line"/>
      <point x="32" y="625" type="line"/>
      <point x="32" y="800" type="line"/>
      <point x="198" y="800" type="line"/>
      <point x="198" y="225" type="line" smooth="yes"/>
      <point x="198" y="165"/>
      <point x="220" y="130"/>
      <point x="278" y="130" type="curve" smooth="yes"/>
      <point x="318" y="130"/>
      <point x="348" y="141"/>
      <point x="367" y="161" type="curve"/>
      <point x="395" y="52" type="line"/>
      <point x="373" y="20"/>
      <point x="332" y="-10"/>
    </contour>
  </outline>
</glyph>
<glyph name="m" format="1">
  <advance width="1014"/>
  <unicode hex="006D"/>
  <outline>
    <contour>
      <point x="356" y="388" type="curve" smooth="yes"/>
      <point x="296" y="388"/>
      <point x="245" y="357"/>
      <point x="221" y="293" type="curve"/>
      <point x="221" y="0" type="line"/>
      <point x="156" y="0" type="line"/>
      <point x="156" y="550" type="line"/>
      <point x="221" y="550" type="line"/>
      <point x="221" y="463" type="line"/>
      <point x="246" y="525"/>
      <point x="298" y="560"/>
      <point x="364" y="560" type="curve" smooth="yes"/>
      <point x="454" y="560"/>
      <point x="504" y="528"/>
      <point x="528" y="439" type="curve"/>
      <point x="556" y="517"/>
      <point x="624" y="560"/>
      <point x="696" y="560" type="curve" smooth="yes"/>
      <point x="822" y="560"/>
      <point x="876" y="499"/>
      <point x="876" y="303" type="curve" smooth="yes"/>
      <point x="876" y="0" type="line"/>
      <point x="813" y="0" type="line"/>
      <point x="813" y="241" type="line" smooth="yes"/>
      <point x="813" y="342"/>
      <point x="778" y="388"/>
      <point x="691" y="388" type="curve" smooth="yes"/>
      <point x="623" y="388"/>
      <point x="572" y="359"/>
      <point x="547" y="286" type="curve"/>
      <point x="547" y="0" type="line"/>
      <point x="484" y="0" type="line"/>
      <point x="484" y="241" type="line" smooth="yes"/>
      <point x="484" y="346"/>
      <point x="452" y="388"/>
    </contour>
    <contour>
      <point x="61" y="550" type="line"/>
      <point x="221" y="550" type="line"/>
      <point x="221" y="386" type="line"/>
      <point x="165" y="387"/>
      <point x="89" y="387"/>
      <point x="61" y="386" type="curve"/>
    </contour>
    <contour>
      <point x="60" y="143" type="line"/>
      <point x="319" y="143" type="line"/>
      <point x="319" y="-1" type="line"/>
      <point x="263" y="0"/>
      <point x="88" y="1"/>
      <point x="60" y="-1" type="curve"/>
    </contour>
    <contour>
      <point x="390" y="143" type="line"/>
      <point x="649" y="143" type="line"/>
      <point x="649" y="-1" type="line"/>
      <point x="593" y="0"/>
      <point x="418" y="0"/>
      <point x="390" y="-1" type="curve"/>
    </contour>
    <contour>
      <point x="715" y="143" type="line"/>
      <point x="974" y="143" type="line"/>
      <point x="974" y="-1" type="line"/>
      <point x="918" y="0"/>
      <point x="743" y="0"/>
      <point x="715" y="-1" type="curve"/>
    </contour>
  </outline>
</glyph>
<glyph name="n" format="1">
  <advance width="706"/>
  <unicode hex="006E"/>
  <outline>
    <contour>
      <point x="60" y="550" type="line"/>
      <point x="220" y="550" type="line"/>
      <point x="220" y="386" type="line"/>
      <point x="164" y="387"/>
      <point x="88" y="387"/>
      <point x="60" y="386" type="curve"/>
    </contour>
    <contour>
      <point x="415" y="143" type="line"/>
      <point x="666" y="143" type="line"/>
      <point x="666" y="-1" type="line"/>
      <point x="566" y="-1"/>
      <point x="457" y="0"/>
      <point x="415" y="-1" type="curve"/>
    </contour>
    <contour>
      <point x="60" y="143" type="line"/>
      <point x="309" y="143" type="line"/>
      <point x="309" y="-1" type="line"/>
      <point x="253" y="0"/>
      <point x="88" y="0"/>
      <point x="60" y="-1" type="curve"/>
    </contour>
    <contour>
      <point x="380" y="389" type="curve" smooth="yes"/>
      <point x="304" y="389"/>
      <point x="247" y="360"/>
      <point x="220" y="290" type="curve"/>
      <point x="220" y="0" type="line"/>
      <point x="155" y="0" type="line"/>
      <point x="155" y="550" type="line"/>
      <point x="220" y="550" type="line"/>
      <point x="220" y="440" type="line"/>
      <point x="240" y="516"/>
      <point x="310" y="560"/>
      <point x="385" y="560" type="curve" smooth="yes"/>
      <point x="518" y="560"/>
      <point x="575" y="499"/>
      <point x="575" y="303" type="curve" smooth="yes"/>
      <point x="575" y="0" type="line"/>
      <point x="512" y="0" type="line"/>
      <point x="512" y="241" type="line" smooth="yes"/>
      <point x="512" y="343"/>
      <point x="474" y="389"/>
    </contour>
  </outline>
</glyph>
<glyph name="o" format="1">
  <advance width="530"/>
  <unicode hex="006F"/>
  <outline>
    <contour>
      <point x="265" y="-10" type="curve" smooth="yes"/>
      <point x="132" y="-10"/>
      <point x="35" y="73"/>
      <point x="35" y="265" type="curve" smooth="yes"/>
      <point x="35" y="478"/>
      <point x="129" y="560"/>
      <point x="265" y="560" type="curve" smooth="yes"/>
      <point x="402" y="560"/>
      <point x="495" y="478"/>
      <point x="495" y="265" type="curve" smooth="yes"/>
      <point x="495" y="73"/>
      <point x="399" y="-10"/>
    </contour>
    <contour>
      <point x="265" y="117" type="curve" smooth="yes"/>
      <point x="358" y="117"/>
      <point x="436" y="153"/>
      <point x="436" y="265" type="curve" smooth="yes"/>
      <point x="436" y="336"/>
      <point x="378" y="392"/>
      <point x="265" y="392" type="curve" smooth="yes"/>
      <point x="153" y="392"/>
      <point x="94" y="335"/>
      <point x="94" y="265" type="curve" smooth="yes"/>
      <point x="94" y="152"/>
      <point x="172" y="117"/>
    </contour>
  </outline>
</glyph>
<glyph name="p" format="1">
  <advance width="606"/>
  <unicode hex="0070"/>
  <outline>
    <contour>
      <point x="353" y="118" type="curve" smooth="yes"/>
      <point x="452" y="116"/>
      <point x="512" y="154"/>
      <point x="511" y="266" type="curve" smooth="yes"/>
      <point x="511" y="350"/>
      <point x="451" y="394"/>
      <point x="356" y="394" type="curve" smooth="yes"/>
      <point x="245" y="394"/>
      <point x="200" y="355"/>
      <point x="200" y="286" type="curve" smooth="yes"/>
      <point x="200" y="189" type="line"/>
      <point x="225" y="137"/>
      <point x="287" y="119"/>
    </contour>
    <contour>
      <point x="357" y="-10" type="curve" smooth="yes"/>
      <point x="300" y="-10"/>
      <point x="245" y="13"/>
      <point x="200" y="64" type="curve"/>
      <point x="200" y="-200" type="line"/>
      <point x="135" y="-200" type="line"/>
      <point x="135" y="550" type="line"/>
      <point x="200" y="550" type="line"/>
      <point x="200" y="462" type="line"/>
      <point x="233" y="532"/>
      <point x="301" y="560"/>
      <point x="363" y="560" type="curve" smooth="yes"/>
      <point x="483" y="560"/>
      <point x="571" y="486"/>
      <point x="571" y="258" type="curve" smooth="yes"/>
      <point x="571" y="77"/>
      <point x="479" y="-10"/>
    </contour>
    <contour>
      <point x="40" y="550" type="line"/>
      <point x="200" y="550" type="line"/>
      <point x="200" y="386" type="line"/>
      <point x="144" y="387"/>
      <point x="68" y="387"/>
      <point x="40" y="386" type="curve"/>
    </contour>
    <contour>
      <point x="40" y="-57" type="line"/>
      <point x="289" y="-57" type="line"/>
      <point x="289" y="-201" type="line"/>
      <point x="233" y="-200"/>
      <point x="68" y="-200"/>
      <point x="40" y="-201" type="curve"/>
    </contour>
  </outline>
</glyph>
<glyph name="q" format="1">
  <advance width="585"/>
  <unicode hex="0071"/>
  <outline>
    <contour>
      <point x="475" y="-200" type="line"/>
      <point x="410" y="-200" type="line"/>
      <point x="410" y="64" type="line"/>
      <point x="373" y="21"/>
      <point x="322" y="-10"/>
      <point x="254" y="-10" type="curve" smooth="yes"/>
      <point x="130" y="-10"/>
      <point x="39" y="74"/>
      <point x="39" y="263" type="curve" smooth="yes"/>
      <point x="39" y="463"/>
      <point x="110" y="560"/>
      <point x="248" y="560" type="curve" smooth="yes"/>
      <point x="308" y="560"/>
      <point x="377" y="531"/>
      <point x="410" y="461" type="curve"/>
      <point x="410" y="550" type="line"/>
      <point x="475" y="550" type="line"/>
    </contour>
    <contour>
      <point x="248" y="108" type="curve" smooth="yes"/>
      <point x="317" y="108"/>
      <point x="377" y="129"/>
      <point x="410" y="189" type="curve"/>
      <point x="410" y="279" type="line" smooth="yes"/>
      <point x="409" y="356"/>
      <point x="369" y="403"/>
      <point x="254" y="403" type="curve" smooth="yes"/>
      <point x="156" y="403"/>
      <point x="99" y="352"/>
      <point x="99" y="260" type="curve"/>
      <point x="98" y="167"/>
      <point x="149" y="108"/>
    </contour>
    <contour>
      <point x="410" y="550" type="line"/>
      <point x="570" y="550" type="line"/>
      <point x="570" y="386" type="line"/>
      <point x="514" y="387"/>
      <point x="438" y="387"/>
      <point x="410" y="386" type="curve"/>
    </contour>
    <contour>
      <point x="318" y="-57" type="line"/>
      <point x="567" y="-57" type="line"/>
      <point x="567" y="-201" type="line"/>
      <point x="511" y="-200"/>
      <point x="346" y="-200"/>
      <point x="318" y="-201" type="curve"/>
    </contour>
  </outline>
</glyph>
<glyph name="r" format="1">
  <advance width="459"/>
  <unicode hex="0072"/>
  <outline>
    <contour>
      <point x="220" y="285" type="curve" smooth="yes"/>
      <point x="220" y="0" type="line"/>
      <point x="154" y="0" type="line"/>
      <point x="154" y="387" type="line"/>
      <point x="94" y="387" type="line"/>
      <point x="94" y="550" type="line"/>
      <point x="179" y="550" type="line"/>
      <point x="213" y="472" type="line"/>
      <point x="236" y="532"/>
      <point x="286" y="560"/>
      <point x="327" y="560" type="curve" smooth="yes"/>
      <point x="375" y="560"/>
      <point x="398" y="545"/>
      <point x="424" y="523" type="curve"/>
      <point x="386" y="357" type="line"/>
      <point x="374" y="383"/>
      <point x="350" y="394"/>
      <point x="305" y="394" type="curve" smooth="yes"/>
      <point x="256" y="394"/>
      <point x="220" y="355"/>
    </contour>
    <contour>
      <point x="61" y="550" type="line"/>
      <point x="179" y="550" type="line"/>
      <point x="179" y="386" type="line"/>
      <point x="123" y="387"/>
      <point x="90" y="386"/>
      <point x="61" y="386" type="curve"/>
    </contour>
    <contour>
      <point x="61" y="142" type="line"/>
      <point x="310" y="142" type="line"/>
      <point x="310" y="-2" type="line"/>
      <point x="254" y="-1"/>
      <point x="89" y="-1"/>
      <point x="61" y="-2" type="curve"/>
    </contour>
  </outline>
</glyph>
<glyph name="s" format="1">
  <advance width="520"/>
  <unicode hex="0073"/>
  <outline>
    <contour>
      <point x="115" y="93" type="line"/>
      <point x="115" y="0" type="line"/>
      <point x="96" y="0"/>
      <point x="89" y="0"/>
      <point x="70" y="0" type="curve"/>
      <point x="70" y="193" type="line"/>
      <point x="115" y="193" type="line"/>
      <point x="146" y="153"/>
      <point x="163" y="118"/>
      <point x="253" y="118" type="curve" smooth="yes"/>
      <point x="343" y="118"/>
      <point x="380" y="148"/>
      <point x="380" y="182" type="curve" smooth="yes"/>
      <point x="380" y="209"/>
      <point x="344" y="227"/>
      <point x="259" y="236" type="curve" smooth="yes"/>
      <point x="129" y="249"/>
      <point x="73" y="288"/>
      <point x="73" y="406" type="curve" smooth="yes"/>
      <point x="73" y="500"/>
      <point x="146" y="560"/>
      <point x="249" y="560" type="curve" smooth="yes"/>
      <point x="319" y="560"/>
      <point x="395" y="530"/>
      <point x="425" y="477" type="curve"/>
      <point x="400" y="479" type="line"/>
      <point x="400" y="551" type="line"/>
      <point x="447" y="551" type="line"/>
      <point x="447" y="368" type="line"/>
      <point x="428" y="368"/>
      <point x="419" y="368"/>
      <point x="400" y="368" type="curve"/>
      <point x="381" y="404"/>
      <point x="350" y="427"/>
      <point x="266" y="427" type="curve" smooth="yes"/>
      <point x="191" y="427"/>
      <point x="148" y="398"/>
      <point x="148" y="361" type="curve" smooth="yes"/>
      <point x="148" y="335"/>
      <point x="177" y="317"/>
      <point x="265" y="308" type="curve" smooth="yes"/>
      <point x="408" y="294"/>
      <point x="460" y="250"/>
      <point x="460" y="139" type="curve" smooth="yes"/>
      <point x="460" y="49"/>
      <point x="391" y="-10"/>
      <point x="271" y="-10" type="curve" smooth="yes"/>
      <point x="186" y="-10"/>
      <point x="117" y="34"/>
      <point x="93" y="92" type="curve"/>
    </contour>
  </outline>
</glyph>
<glyph name="t" format="1">
  <advance width="416"/>
  <unicode hex="0074"/>
  <outline>
    <contour>
      <point x="386" y="54" type="line"/>
      <point x="368" y="14"/>
      <point x="311" y="-10"/>
      <point x="254" y="-10" type="curve" smooth="yes"/>
      <point x="176" y="-10"/>
      <point x="119" y="32"/>
      <point x="119" y="153" type="curve" smooth="yes"/>
      <point x="119" y="384" type="line"/>
      <point x="40" y="384" type="line"/>
      <point x="40" y="540" type="line"/>
      <point x="119" y="540" type="line"/>
      <point x="119" y="670" type="line"/>
      <point x="184" y="670" type="line"/>
      <point x="184" y="540" type="line"/>
      <point x="334" y="540" type="line"/>
      <point x="334" y="384" type="line"/>
      <point x="184" y="384" type="line"/>
      <point x="184" y="222" type="line" smooth="yes"/>
      <point x="184" y="150"/>
      <point x="218" y="125"/>
      <point x="267" y="124" type="curve" smooth="yes"/>
      <point x="309" y="123"/>
      <point x="343" y="137"/>
      <point x="359" y="155" type="curve"/>
    </contour>
  </outline>
</glyph>
<glyph name="u" format="1">
  <advance width="682"/>
  <unicode hex="0075"/>
  <outline>
    <contour>
      <point x="20" y="550" type="line"/>
      <point x="276" y="550" type="line"/>
      <point x="276" y="386" type="line"/>
      <point x="220" y="387"/>
      <point x="48" y="387"/>
      <point x="20" y="386" type="curve"/>
    </contour>
    <contour>
      <point x="372" y="550" type="line"/>
      <point x="628" y="550" type="line"/>
      <point x="628" y="386" type="line"/>
      <point x="572" y="387"/>
      <point x="400" y="387"/>
      <point x="372" y="386" type="curve"/>
    </contour>
    <contour>
      <point x="477" y="143" type="line"/>
      <point x="632" y="143" type="line"/>
      <point x="631" y="-1" type="line"/>
      <point x="476" y="-1" type="line"/>
    </contour>
    <contour>
      <point x="476" y="0" type="line"/>
      <point x="471" y="88" type="line"/>
      <point x="445" y="33"/>
      <point x="385" y="-10"/>
      <point x="299" y="-10" type="curve" smooth="yes"/>
      <point x="188" y="-10"/>
      <point x="117" y="50"/>
      <point x="117" y="227" type="curve" smooth="yes"/>
      <point x="117" y="550" type="line"/>
      <point x="181" y="550" type="line"/>
      <point x="181" y="287" type="line" smooth="yes"/>
      <point x="181" y="173"/>
      <point x="212" y="132"/>
      <point x="315" y="132" type="curve" smooth="yes"/>
      <point x="391" y="132"/>
      <point x="448" y="167"/>
      <point x="472" y="223" type="curve"/>
      <point x="472" y="550" type="line"/>
      <point x="537" y="550" type="line"/>
      <point x="537" y="0" type="line"/>
    </contour>
  </outline>
</glyph>
<glyph name="v" format="1">
  <advance width="560"/>
  <unicode hex="0076"/>
  <outline>
    <contour>
      <point x="296" y="550" type="line"/>
      <point x="550" y="550" type="line"/>
      <point x="550" y="386" type="line"/>
      <point x="476" y="386"/>
      <point x="340" y="386"/>
      <point x="296" y="386" type="curve"/>
    </contour>
    <contour>
      <point x="20" y="550" type="line"/>
      <point x="228" y="550" type="line"/>
      <point x="228" y="386" type="line"/>
      <point x="158" y="386"/>
      <point x="70" y="386"/>
      <point x="20" y="386" type="curve"/>
    </contour>
    <contour>
      <point x="335" y="0" type="line"/>
      <point x="240" y="0" type="line"/>
      <point x="40" y="550" type="line"/>
      <point x="110" y="550" type="line"/>
      <point x="266" y="125" type="line"/>
      <point x="406" y="550" type="line"/>
      <point x="530" y="550" type="line"/>
    </contour>
  </outline>
</glyph>
<glyph name="w" format="1">
  <advance width="801"/>
  <unicode hex="0077"/>
  <outline>
    <contour>
      <point x="529" y="550" type="line"/>
      <point x="791" y="550" type="line"/>
      <point x="791" y="386" type="line"/>
      <point x="735" y="387"/>
      <point x="558" y="386"/>
      <point x="529" y="386" type="curve"/>
    </contour>
    <contour>
      <point x="20" y="550" type="line"/>
      <point x="282" y="550" type="line"/>
      <point x="282" y="386" type="line"/>
      <point x="226" y="387"/>
      <point x="49" y="386"/>
      <point x="20" y="386" type="curve"/>
    </contour>
    <contour>
      <point x="509" y="0" type="line"/>
      <point x="415" y="268" type="line"/>
      <point x="323" y="0" type="line"/>
      <point x="230" y="0" type="line"/>
      <point x="63" y="550" type="line"/>
      <point x="136" y="550" type="line"/>
      <point x="258" y="133" type="line"/>
      <point x="362" y="451" type="line"/>
      <point x="417" y="451" type="line"/>
      <point x="525" y="132" type="line"/>
      <point x="643" y="550" type="line"/>
      <point x="763" y="550" type="line"/>
      <point x="595" y="0" type="line"/>
    </contour>
  </outline>
</glyph>
<glyph name="x" format="1">
  <advance width="530"/>
  <unicode hex="0078"/>
  <outline>
    <contour>
      <point x="241" y="550" type="line"/>
      <point x="521" y="550" type="line"/>
      <point x="521" y="386" type="line"/>
      <point x="465" y="387"/>
      <point x="269" y="387"/>
      <point x="241" y="386" type="curve"/>
    </contour>
    <contour>
      <point x="340" y="143" type="line"/>
      <point x="519" y="143" type="line"/>
      <point x="519" y="-1" type="line"/>
      <point x="463" y="0.0400391"/>
      <point x="468" y="0.737305"/>
      <point x="440" y="-1" type="curve"/>
    </contour>
    <contour>
      <point x="21" y="550" type="line"/>
      <point x="107" y="550" type="line"/>
      <point x="217" y="386" type="line"/>
      <point x="161" y="387"/>
      <point x="49" y="387"/>
      <point x="21" y="386" type="curve"/>
    </contour>
    <contour>
      <point x="20" y="143" type="line"/>
      <point x="309" y="143" type="line"/>
      <point x="309" y="-1" type="line"/>
      <point x="309" y="-1"/>
      <point x="48" y="0.695928"/>
      <point x="20" y="-1" type="curve"/>
    </contour>
    <contour>
      <point x="416" y="0" type="line"/>
      <point x="282" y="203" type="line"/>
      <point x="170" y="4" type="line"/>
      <point x="35" y="2" type="line"/>
      <point x="215" y="276" type="line"/>
      <point x="42" y="550" type="line"/>
      <point x="125" y="550" type="line"/>
      <point x="258" y="338" type="line"/>
      <point x="381" y="549" type="line"/>
      <point x="494" y="545" type="line"/>
      <point x="321" y="269" type="line"/>
      <point x="499" y="0" type="line"/>
    </contour>
  </outline>
</glyph>
<glyph name="y" format="1">
  <advance width="530"/>
  <unicode hex="0079"/>
  <outline>
    <contour>
      <point x="327" y="550" type="line"/>
      <point x="525" y="550" type="line"/>
      <point x="525" y="386" type="line"/>
      <point x="520" y="386"/>
      <point x="330" y="386"/>
      <point x="327" y="386" type="curve"/>
    </contour>
    <contour>
      <point x="7" y="550" type="line"/>
      <point x="269" y="550" type="line"/>
      <point x="269" y="386" type="line"/>
      <point x="7" y="386" type="line"/>
    </contour>
    <contour>
      <point x="142" y="-210" type="curve" smooth="yes"/>
      <point x="72" y="-210"/>
      <point x="16" y="-178"/>
      <point x="4" y="-123" type="curve"/>
      <point x="42" y="-17" type="line"/>
      <point x="70" y="-51"/>
      <point x="110" y="-70"/>
      <point x="142" y="-70" type="curve" smooth="yes"/>
      <point x="192" y="-70"/>
      <point x="217.062" y="-53.6392"/>
      <point x="235" y="-7" type="curve" smooth="yes"/>
      <point x="250" y="32" type="line"/>
      <point x="191" y="183"/>
      <point x="33" y="550"/>
      <point x="33" y="550" type="curve"/>
      <point x="154" y="550" type="line"/>
      <point x="154" y="550"/>
      <point x="254" y="294"/>
      <point x="302" y="171" type="curve"/>
      <point x="444" y="550" type="line"/>
      <point x="510" y="550" type="line"/>
      <point x="295" y="-39" type="line" smooth="yes"/>
      <point x="253" y="-153"/>
      <point x="228" y="-210"/>
    </contour>
  </outline>
</glyph>
<glyph name="z" format="1">
  <advance width="530"/>
  <unicode hex="007A"/>
  <outline>
    <contour>
      <point x="411" y="219" type="line"/>
      <point x="469" y="219" type="line"/>
      <point x="469" y="0" type="line"/>
      <point x="449.667" y="0"/>
      <point x="430.333" y="0"/>
      <point x="411" y="0" type="curve"/>
    </contour>
    <contour>
      <point x="79" y="549" type="line"/>
      <point x="137" y="549" type="line"/>
      <point x="137" y="320" type="line"/>
      <point x="117.667" y="320"/>
      <point x="98.333" y="320"/>
      <point x="79" y="320" type="curve"/>
    </contour>
    <contour>
      <point x="38" y="0" type="line"/>
      <point x="310" y="393" type="line"/>
      <point x="80" y="393" type="line"/>
      <point x="80" y="550" type="line"/>
      <point x="492" y="550" type="line"/>
      <point x="214" y="136" type="line"/>
      <point x="468" y="136" type="line"/>
      <point x="468" y="0" type="line"/>
    </contour>
  </outline>
</glyph>
<glyph name="braceright" format="1">
  <advance width="330"/>
  <unicode hex="007D"/>
  <outline>
    <contour>
      <point x="292" y="143" type="curve" smooth="yes"/>
      <point x="304" y="-75"/>
      <point x="229" y="-171"/>
      <point x="117" y="-210" type="curve"/>
      <point x="144" y="-9" type="line"/>
      <point x="214" y="7"/>
      <point x="247" y="70"/>
      <point x="233" y="183" type="curve" smooth="yes"/>
      <point x="228" y="223"/>
      <point x="245" y="264"/>
      <point x="307" y="278" type="curve"/>
      <point x="247" y="299"/>
      <point x="227" y="326"/>
      <point x="232" y="367" type="curve" smooth="yes"/>
      <point x="251" y="520"/>
      <point x="205" y="603"/>
      <point x="129" y="622" type="curve"/>
      <point x="110" y="810" type="line"/>
      <point x="225" y="768"/>
      <point x="304" y="671"/>
      <point x="292" y="407" type="curve" smooth="yes"/>
      <point x="292" y="385"/>
      <point x="310" y="355"/>
      <point x="371" y="366" type="curve"/>
      <point x="371" y="194" type="line"/>
      <point x="313" y="204"/>
      <point x="292" y="169"/>
    </contour>
  </outline>
</glyph>
<glyph name="asciitilde" format="1">
  <advance width="530"/>
  <unicode hex="007E"/>
  <outline>
    <contour>
      <point x="257" y="376" type="curve" smooth="yes"/>
      <point x="334" y="356"/>
      <point x="408" y="359"/>
      <point x="427" y="380" type="curve"/>
      <point x="434" y="367" type="line"/>
      <point x="400" y="281"/>
      <point x="321" y="242"/>
      <point x="254" y="265" type="curve" smooth="yes"/>
      <point x="171" y="293"/>
      <point x="106" y="281"/>
      <point x="84" y="256" type="curve"/>
      <point x="77" y="269" type="line"/>
      <point x="104" y="346"/>
      <point x="174" y="398"/>
    </contour>
  </outline>
</glyph>
<glyph name="cent" format="1">
  <advance width="530"/>
  <unicode hex="00A2"/>
  <outline>
    <contour>
      <point x="99" y="266" type="curve" smooth="yes"/>
      <point x="98" y="198"/>
      <point x="128" y="138"/>
      <point x="198" y="117" type="curve"/>
      <point x="254" y="402" type="line"/>
      <point x="160" y="400"/>
      <point x="100" y="350"/>
    </contour>
    <contour>
      <point x="255" y="-10" type="curve" smooth="yes"/>
      <point x="253" y="-10"/>
      <point x="251" y="-10"/>
      <point x="249" y="-10" type="curve" smooth="yes"/>
      <point x="234" y="-85" type="line"/>
      <point x="159" y="-85" type="line"/>
      <point x="176" y="4" type="line"/>
      <point x="93" y="35"/>
      <point x="40" y="122"/>
      <point x="40" y="271" type="curve" smooth="yes"/>
      <point x="40" y="479"/>
      <point x="135" y="560"/>
      <point x="255" y="560" type="curve" smooth="yes"/>
      <point x="265" y="560"/>
      <point x="275" y="560"/>
      <point x="284" y="559" type="curve"/>
      <point x="299" y="635" type="line"/>
      <point x="374" y="635" type="line"/>
      <point x="356" y="542" type="line"/>
      <point x="407" y="520"/>
      <point x="440" y="480"/>
      <point x="460" y="425" type="curve"/>
      <point x="414" y="338" type="line"/>
      <point x="394" y="363"/>
      <point x="368" y="384"/>
      <point x="327" y="394" type="curve"/>
      <point x="272" y="108" type="line"/>
      <point x="347" y="110"/>
      <point x="392" y="133"/>
      <point x="418" y="183" type="curve"/>
      <point x="470" y="112" type="line"/>
      <point x="436" y="34"/>
      <point x="363" y="-10"/>
    </contour>
  </outline>
</glyph>
<glyph name="brokenbar" format="1">
  <advance width="330"/>
  <unicode hex="00A6"/>
  <outline>
    <contour>
      <point x="129" y="800" type="line"/>
      <point x="201" y="800" type="line"/>
      <point x="201" y="383" type="line"/>
      <point x="129" y="363" type="line"/>
    </contour>
    <contour>
      <point x="129" y="208" type="line"/>
      <point x="201" y="228" type="line"/>
      <point x="201" y="-200" type="line"/>
      <point x="129" y="-200" type="line"/>
    </contour>
  </outline>
</glyph>
<glyph name="ordfeminine" format="1">
  <advance width="330"/>
  <unicode hex="00AA"/>
  <outline>
    <contour>
      <point x="160" y="431" type="curve" smooth="yes"/>
      <point x="201" y="431"/>
      <point x="238" y="439"/>
      <point x="259" y="459" type="curve"/>
      <point x="259" y="505" type="line"/>
      <point x="232" y="525"/>
      <point x="202" y="533"/>
      <point x="165" y="533" type="curve" smooth="yes"/>
      <point x="103" y="533"/>
      <point x="71" y="514"/>
      <point x="71" y="481" type="curve" smooth="yes"/>
      <point x="71" y="454"/>
      <point x="110" y="431"/>
    </contour>
    <contour>
      <point x="274" y="367" type="line"/>
      <point x="265" y="390" type="line"/>
      <point x="243" y="370"/>
      <point x="211" y="360"/>
      <point x="160" y="360" type="curve" smooth="yes"/>
      <point x="66" y="360"/>
      <point x="20" y="405"/>
      <point x="20" y="469" type="curve" smooth="yes"/>
      <point x="20" y="541"/>
      <point x="71" y="582"/>
      <point x="153" y="582" type="curve" smooth="yes"/>
      <point x="184" y="582"/>
      <point x="231" y="576"/>
      <point x="259" y="557" type="curve"/>
      <point x="255" y="619"/>
      <point x="225" y="645"/>
      <point x="163" y="645" type="curve" smooth="yes"/>
      <point x="107" y="645"/>
      <point x="73" y="627"/>
      <point x="56" y="606" type="curve"/>
      <point x="53" y="691" type="line"/>
      <point x="78" y="721"/>
      <point x="121" y="736"/>
      <point x="170" y="736" type="curve" smooth="yes"/>
      <point x="260" y="736"/>
      <point x="302" y="697"/>
      <point x="302" y="575" type="curve" smooth="yes"/>
      <point x="302" y="367" type="line"/>
    </contour>
  </outline>
</glyph>
<glyph name="logicalnot" format="1">
  <advance width="530"/>
  <unicode hex="00AC"/>
  <outline>
    <contour>
      <point x="460" y="170" type="line"/>
      <point x="383" y="170" type="line"/>
      <point x="383" y="366" type="line"/>
      <point x="70" y="366" type="line"/>
      <point x="70" y="495" type="line"/>
      <point x="460" y="495" type="line"/>
    </contour>
  </outline>
</glyph>
<glyph name="degree" format="1">
  <advance width="280"/>
  <unicode hex="00B0"/>
  <outline>
    <contour>
      <point x="260" y="625" type="curve" smooth="yes"/>
      <point x="259" y="536"/>
      <point x="209" y="496"/>
      <point x="141" y="496" type="curve" smooth="yes"/>
      <point x="79" y="496"/>
      <point x="21" y="535"/>
      <point x="20" y="625" type="curve" smooth="yes"/>
      <point x="21" y="714"/>
      <point x="71" y="754"/>
      <point x="139" y="754" type="curve" smooth="yes"/>
      <point x="201" y="754"/>
      <point x="259" y="715"/>
    </contour>
    <contour>
      <point x="218" y="625" type="curve" smooth="yes"/>
      <point x="216" y="665"/>
      <point x="181" y="682"/>
      <point x="139" y="682" type="curve" smooth="yes"/>
      <point x="99" y="682"/>
      <point x="64" y="670"/>
      <point x="63" y="625" type="curve" smooth="yes"/>
      <point x="64" y="578"/>
      <point x="99" y="558"/>
      <point x="141" y="558" type="curve" smooth="yes"/>
      <point x="181" y="558"/>
      <point x="216" y="572"/>
    </contour>
  </outline>
</glyph>
<glyph name="plusminus" format="1">
  <advance width="530"/>
  <unicode hex="00B1"/>
  <outline>
    <contour>
      <point x="458" y="327" type="line"/>
      <point x="297" y="327" type="line"/>
      <point x="297" y="230" type="line"/>
      <point x="220" y="230" type="line"/>
      <point x="220" y="327" type="line"/>
      <point x="72" y="327" type="line"/>
      <point x="72" y="436" type="line"/>
      <point x="220" y="436" type="line"/>
      <point x="220" y="550" type="line"/>
      <point x="297" y="550" type="line"/>
      <point x="297" y="436" type="line"/>
      <point x="458" y="436" type="line"/>
    </contour>
    <contour>
      <point x="448" y="70" type="line"/>
      <point x="62" y="70" type="line"/>
      <point x="62" y="179" type="line"/>
      <point x="448" y="179" type="line"/>
    </contour>
  </outline>
</glyph>
<glyph name="paragraph" format="1">
  <advance width="630"/>
  <unicode hex="00B6"/>
  <outline>
    <contour>
      <point x="500" y="593" type="line"/>
      <point x="430" y="593" type="line"/>
      <point x="430" y="0" type="line"/>
      <point x="360" y="0" type="line"/>
      <point x="360" y="270" type="line"/>
      <point x="179" y="270"/>
      <point x="70" y="351"/>
      <point x="70" y="500" type="curve" smooth="yes"/>
      <point x="70" y="672"/>
      <point x="183" y="750"/>
      <point x="360" y="750" type="curve" smooth="yes"/>
      <point x="570" y="750" type="line"/>
      <point x="570" y="0" type="line"/>
      <point x="500" y="0" type="line"/>
    </contour>
  </outline>
</glyph>
<glyph name="periodcentered" format="1">
  <advance width="230"/>
  <unicode hex="00B7"/>
  <outline>
    <contour>
      <point x="241" y="276" type="curve" smooth="yes"/>
      <point x="241" y="228"/>
      <point x="209" y="205"/>
      <point x="158" y="205" type="curve" smooth="yes"/>
      <point x="100" y="205"/>
      <point x="69" y="228"/>
      <point x="69" y="276" type="curve" smooth="yes"/>
      <point x="69" y="328"/>
      <point x="99" y="350"/>
      <point x="158" y="350" type="curve" smooth="yes"/>
      <point x="210" y="350"/>
      <point x="241" y="329"/>
    </contour>
  </outline>
</glyph>
<glyph name="ordmasculine" format="1">
  <advance width="330"/>
  <unicode hex="00BA"/>
  <outline>
    <contour>
      <point x="165" y="360" type="curve" smooth="yes"/>
      <point x="77" y="360"/>
      <point x="12" y="415"/>
      <point x="12" y="541" type="curve" smooth="yes"/>
      <point x="12" y="682"/>
      <point x="75" y="736"/>
      <point x="165" y="736" type="curve" smooth="yes"/>
      <point x="255" y="736"/>
      <point x="318" y="682"/>
      <point x="318" y="541" type="curve" smooth="yes"/>
      <point x="318" y="415"/>
      <point x="253" y="360"/>
    </contour>
    <contour>
      <point x="165" y="437" type="curve" smooth="yes"/>
      <point x="226" y="437"/>
      <point x="278" y="463"/>
      <point x="277" y="541" type="curve" smooth="yes"/>
      <point x="276" y="594"/>
      <point x="240" y="632"/>
      <point x="165" y="632" type="curve" smooth="yes"/>
      <point x="91" y="632"/>
      <point x="54" y="594"/>
      <point x="53" y="541" type="curve" smooth="yes"/>
      <point x="52" y="463"/>
      <point x="104" y="437"/>
    </contour>
  </outline>
</glyph>
<glyph name="guillemotright" format="1">
  <advance width="430"/>
  <unicode hex="00BB"/>
  <outline>
    <contour>
      <point x="362" y="271" type="line"/>
      <point x="208" y="-10" type="line"/>
      <point x="208" y="204" type="line"/>
      <point x="312" y="271" type="line"/>
      <point x="201" y="360" type="line"/>
      <point x="201" y="570" type="line"/>
    </contour>
    <contour>
      <point x="162" y="271" type="line"/>
      <point x="8" y="-10" type="line"/>
      <point x="8" y="204" type="line"/>
      <point x="112" y="271" type="line"/>
      <point x="1" y="360" type="line"/>
      <point x="1" y="570" type="line"/>
    </contour>
  </outline>
</glyph>
<glyph name="questiondown" format="1">
  <advance width="530"/>
  <unicode hex="00BF"/>
  <outline>
    <contour>
      <point x="311" y="502" type="curve" smooth="yes"/>
      <point x="311" y="452"/>
      <point x="286" y="432"/>
      <point x="244" y="432" type="curve" smooth="yes"/>
      <point x="197" y="432"/>
      <point x="173" y="453"/>
      <point x="173" y="502" type="curve" smooth="yes"/>
      <point x="173" y="540"/>
      <point x="198" y="558"/>
      <point x="244" y="558" type="curve" smooth="yes"/>
      <point x="285" y="558"/>
      <point x="311" y="540"/>
    </contour>
    <contour>
      <point x="319" y="219" type="curve" smooth="yes"/>
      <point x="424" y="205"/>
      <point x="488" y="143"/>
      <point x="488" y="11" type="curve" smooth="yes"/>
      <point x="488" y="-129"/>
      <point x="405" y="-210"/>
      <point x="269" y="-210" type="curve" smooth="yes"/>
      <point x="144" y="-210"/>
      <point x="69" y="-154"/>
      <point x="42" y="-43" type="curve"/>
      <point x="103" y="16" type="line"/>
      <point x="128" y="-32"/>
      <point x="187" y="-57"/>
      <point x="269" y="-57" type="curve" smooth="yes"/>
      <point x="397" y="-57"/>
      <point x="428" y="-20"/>
      <point x="428" y="18" type="curve" smooth="yes"/>
      <point x="428" y="56"/>
      <point x="400" y="82"/>
      <point x="309" y="92" type="curve" smooth="yes"/>
      <point x="203" y="104"/>
      <point x="146" y="160"/>
      <point x="146" y="269" type="curve" smooth="yes"/>
      <point x="146" y="304"/>
      <point x="167" y="342"/>
      <point x="191" y="372" type="curve"/>
      <point x="241" y="364" type="line"/>
      <point x="229" y="341"/>
      <point x="218" y="313"/>
      <point x="218" y="294" type="curve" smooth="yes"/>
      <point x="218" y="246"/>
      <point x="275" y="225"/>
    </contour>
  </outline>
</glyph>
<glyph name="Agrave" format="1">
  <advance width="730"/>
  <unicode hex="00C0"/>
  <outline>
    <contour>
      <point x="542" y="570" type="line"/>
      <point x="421" y="570"/>
      <point x="540" y="570"/>
      <point x="419" y="570" type="curve"/>
      <point x="289" y="730" type="line"/>
      <point x="542" y="730" type="line"/>
    </contour>
    <contour>
      <point x="732" y="0" type="line"/>
      <point x="631.667" y="0"/>
      <point x="531.333" y="0"/>
      <point x="431" y="0" type="curve"/>
      <point x="431" y="140" type="line"/>
      <point x="732" y="140" type="line"/>
    </contour>
    <contour>
      <point x="354" y="0" type="line"/>
      <point x="233" y="0"/>
      <point x="112" y="0"/>
      <point x="-9" y="0" type="curve"/>
      <point x="-9" y="140" type="line"/>
      <point x="354" y="140" type="line"/>
    </contour>
    <contour>
      <point x="380" y="583" type="line"/>
      <point x="292" y="330" type="line"/>
      <point x="475" y="330" type="line"/>
    </contour>
    <contour>
      <point x="598" y="0" type="line"/>
      <point x="501" y="259" type="line"/>
      <point x="269" y="259" type="line"/>
      <point x="183" y="0" type="line"/>
      <point x="33" y="0" type="line"/>
      <point x="289" y="730" type="line"/>
      <point x="412" y="730" type="line"/>
      <point x="679" y="0" type="line"/>
    </contour>
    <contour>
      <point x="505" y="773" type="line"/>
      <point x="451" y="835"/>
      <point x="318" y="853"/>
      <point x="241" y="814" type="curve"/>
      <point x="236" y="940" type="line"/>
      <point x="344" y="962"/>
      <point x="482" y="899"/>
      <point x="517" y="795" type="curve"/>
    </contour>
  </outline>
</glyph>
<glyph name="Aacute" format="1">
  <advance width="730"/>
  <unicode hex="00C1"/>
  <outline>
    <contour>
      <point x="552" y="570" type="line"/>
      <point x="431" y="570"/>
      <point x="550" y="570"/>
      <point x="429" y="570" type="curve"/>
      <point x="299" y="730" type="line"/>
      <point x="552" y="730" type="line"/>
    </contour>
    <contour>
      <point x="742" y="0" type="line"/>
      <point x="641.667" y="0"/>
      <point x="541.333" y="0"/>
      <point x="441" y="0" type="curve"/>
      <point x="441" y="140" type="line"/>
      <point x="742" y="140" type="line"/>
    </contour>
    <contour>
      <point x="364" y="0" type="line"/>
      <point x="243" y="0"/>
      <point x="122" y="0"/>
      <point x="1" y="0" type="curve"/>
      <point x="1" y="140" type="line"/>
      <point x="364" y="140" type="line"/>
    </contour>
    <contour>
      <point x="390" y="583" type="line"/>
      <point x="302" y="330" type="line"/>
      <point x="485" y="330" type="line"/>
    </contour>
    <contour>
      <point x="608" y="0" type="line"/>
      <point x="511" y="259" type="line"/>
      <point x="279" y="259" type="line"/>
      <point x="193" y="0" type="line"/>
      <point x="43" y="0" type="line"/>
      <point x="299" y="730" type="line"/>
      <point x="422" y="730" type="line"/>
      <point x="689" y="0" type="line"/>
    </contour>
    <contour>
      <point x="217" y="773" type="curve"/>
      <point x="205" y="795" type="line"/>
      <point x="240" y="898"/>
      <point x="379" y="961"/>
      <point x="486" y="940" type="curve"/>
      <point x="481" y="814" type="line"/>
      <point x="403" y="853"/>
      <point x="271" y="835"/>
    </contour>
  </outline>
</glyph>
<glyph name="Acircumflex" format="1">
  <advance width="730"/>
  <unicode hex="00C2"/>
  <outline>
    <contour>
      <point x="542" y="570" type="line"/>
      <point x="421" y="570"/>
      <point x="540" y="570"/>
      <point x="419" y="570" type="curve"/>
      <point x="289" y="730" type="line"/>
      <point x="542" y="730" type="line"/>
    </contour>
    <contour>
      <point x="732" y="0" type="line"/>
      <point x="631.667" y="0"/>
      <point x="531.333" y="0"/>
      <point x="431" y="0" type="curve"/>
      <point x="431" y="140" type="line"/>
      <point x="732" y="140" type="line"/>
    </contour>
    <contour>
      <point x="354" y="0" type="line"/>
      <point x="233" y="0"/>
      <point x="112" y="0"/>
      <point x="-9" y="0" type="curve"/>
      <point x="-9" y="140" type="line"/>
      <point x="354" y="140" type="line"/>
    </contour>
    <contour>
      <point x="380" y="583" type="line"/>
      <point x="292" y="330" type="line"/>
      <point x="475" y="330" type="line"/>
    </contour>
    <contour>
      <point x="598" y="0" type="line"/>
      <point x="501" y="259" type="line"/>
      <point x="269" y="259" type="line"/>
      <point x="183" y="0" type="line"/>
      <point x="33" y="0" type="line"/>
      <point x="289" y="730" type="line"/>
      <point x="412" y="730" type="line"/>
      <point x="679" y="0" type="line"/>
    </contour>
    <contour>
      <point x="547" y="785" type="line"/>
      <point x="479" y="780"/>
      <point x="385" y="799"/>
      <point x="365" y="839" type="curve"/>
      <point x="345" y="799"/>
      <point x="251" y="780"/>
      <point x="183" y="785" type="curve"/>
      <point x="183" y="819" type="line"/>
      <point x="247" y="830"/>
      <point x="323" y="901"/>
      <point x="355" y="960" type="curve"/>
      <point x="375" y="960" type="line"/>
      <point x="407" y="901"/>
      <point x="483" y="830"/>
      <point x="547" y="819" type="curve"/>
    </contour>
  </outline>
</glyph>
<glyph name="Atilde" format="1">
  <advance width="730"/>
  <unicode hex="00C3"/>
  <outline>
    <contour>
      <point x="542" y="570" type="line"/>
      <point x="421" y="570"/>
      <point x="540" y="570"/>
      <point x="419" y="570" type="curve"/>
      <point x="289" y="730" type="line"/>
      <point x="542" y="730" type="line"/>
    </contour>
    <contour>
      <point x="732" y="0" type="line"/>
      <point x="631.667" y="0"/>
      <point x="531.333" y="0"/>
      <point x="431" y="0" type="curve"/>
      <point x="431" y="140" type="line"/>
      <point x="732" y="140" type="line"/>
    </contour>
    <contour>
      <point x="354" y="0" type="line"/>
      <point x="233" y="0"/>
      <point x="112" y="0"/>
      <point x="-9" y="0" type="curve"/>
      <point x="-9" y="140" type="line"/>
      <point x="354" y="140" type="line"/>
    </contour>
    <contour>
      <point x="380" y="583" type="line"/>
      <point x="292" y="330" type="line"/>
      <point x="475" y="330" type="line"/>
    </contour>
    <contour>
      <point x="598" y="0" type="line"/>
      <point x="501" y="259" type="line"/>
      <point x="269" y="259" type="line"/>
      <point x="183" y="0" type="line"/>
      <point x="33" y="0" type="line"/>
      <point x="289" y="730" type="line"/>
      <point x="412" y="730" type="line"/>
      <point x="679" y="0" type="line"/>
    </contour>
    <contour>
      <point x="367" y="906" type="curve" smooth="yes"/>
      <point x="444" y="886"/>
      <point x="518" y="889"/>
      <point x="537" y="910" type="curve"/>
      <point x="544" y="897" type="line"/>
      <point x="510" y="811"/>
      <point x="431" y="772"/>
      <point x="364" y="795" type="curve" smooth="yes"/>
      <point x="281" y="823"/>
      <point x="216" y="811"/>
      <point x="194" y="786" type="curve"/>
      <point x="187" y="799" type="line"/>
      <point x="214" y="876"/>
      <point x="284" y="928"/>
    </contour>
  </outline>
</glyph>
<glyph name="Adieresis" format="1">
  <advance width="730"/>
  <unicode hex="00C4"/>
  <outline>
    <contour>
      <point x="542" y="570" type="line"/>
      <point x="421" y="570"/>
      <point x="540" y="570"/>
      <point x="419" y="570" type="curve"/>
      <point x="289" y="730" type="line"/>
      <point x="542" y="730" type="line"/>
    </contour>
    <contour>
      <point x="732" y="0" type="line"/>
      <point x="631.667" y="0"/>
      <point x="531.333" y="0"/>
      <point x="431" y="0" type="curve"/>
      <point x="431" y="140" type="line"/>
      <point x="732" y="140" type="line"/>
    </contour>
    <contour>
      <point x="354" y="0" type="line"/>
      <point x="233" y="0"/>
      <point x="112" y="0"/>
      <point x="-9" y="0" type="curve"/>
      <point x="-9" y="140" type="line"/>
      <point x="354" y="140" type="line"/>
    </contour>
    <contour>
      <point x="380" y="583" type="line"/>
      <point x="292" y="330" type="line"/>
      <point x="475" y="330" type="line"/>
    </contour>
    <contour>
      <point x="598" y="0" type="line"/>
      <point x="501" y="259" type="line"/>
      <point x="269" y="259" type="line"/>
      <point x="183" y="0" type="line"/>
      <point x="33" y="0" type="line"/>
      <point x="289" y="730" type="line"/>
      <point x="412" y="730" type="line"/>
      <point x="679" y="0" type="line"/>
    </contour>
    <contour>
      <point x="547" y="850" type="curve" smooth="yes"/>
      <point x="547" y="807"/>
      <point x="519" y="786"/>
      <point x="473" y="786" type="curve" smooth="yes"/>
      <point x="421" y="786"/>
      <point x="393" y="807"/>
      <point x="393" y="850" type="curve" smooth="yes"/>
      <point x="393" y="897"/>
      <point x="420" y="917"/>
      <point x="473" y="917" type="curve" smooth="yes"/>
      <point x="520" y="917"/>
      <point x="547" y="898"/>
    </contour>
    <contour>
      <point x="337" y="850" type="curve" smooth="yes"/>
      <point x="337" y="807"/>
      <point x="309" y="786"/>
      <point x="263" y="786" type="curve" smooth="yes"/>
      <point x="210" y="786"/>
      <point x="183" y="807"/>
      <point x="183" y="850" type="curve" smooth="yes"/>
      <point x="183" y="897"/>
      <point x="210" y="917"/>
      <point x="263" y="917" type="curve" smooth="yes"/>
      <point x="310" y="917"/>
      <point x="337" y="898"/>
    </contour>
  </outline>
</glyph>
<glyph name="Aring" format="1">
  <advance width="730"/>
  <unicode hex="00C5"/>
  <outline>
    <contour>
      <point x="542" y="570" type="line"/>
      <point x="421" y="570"/>
      <point x="540" y="570"/>
      <point x="419" y="570" type="curve"/>
      <point x="289" y="730" type="line"/>
      <point x="542" y="730" type="line"/>
    </contour>
    <contour>
      <point x="732" y="0" type="line"/>
      <point x="631.667" y="0"/>
      <point x="531.333" y="0"/>
      <point x="431" y="0" type="curve"/>
      <point x="431" y="140" type="line"/>
      <point x="732" y="140" type="line"/>
    </contour>
    <contour>
      <point x="354" y="0" type="line"/>
      <point x="233" y="0"/>
      <point x="112" y="0"/>
      <point x="-9" y="0" type="curve"/>
      <point x="-9" y="140" type="line"/>
      <point x="354" y="140" type="line"/>
    </contour>
    <contour>
      <point x="380" y="583" type="line"/>
      <point x="292" y="330" type="line"/>
      <point x="475" y="330" type="line"/>
    </contour>
    <contour>
      <point x="598" y="0" type="line"/>
      <point x="501" y="259" type="line"/>
      <point x="269" y="259" type="line"/>
      <point x="183" y="0" type="line"/>
      <point x="33" y="0" type="line"/>
      <point x="289" y="730" type="line"/>
      <point x="412" y="730" type="line"/>
      <point x="679" y="0" type="line"/>
    </contour>
    <contour>
      <point x="470" y="885" type="curve" smooth="yes"/>
      <point x="469" y="814"/>
      <point x="426" y="783"/>
      <point x="366" y="783" type="curve" smooth="yes"/>
      <point x="312" y="783"/>
      <point x="261" y="814"/>
      <point x="260" y="885" type="curve" smooth="yes"/>
      <point x="261" y="962"/>
      <point x="303" y="994"/>
      <point x="364" y="994" type="curve" smooth="yes"/>
      <point x="420" y="994"/>
      <point x="469" y="962"/>
    </contour>
    <contour>
      <point x="436" y="885" type="curve" smooth="yes"/>
      <point x="435" y="912"/>
      <point x="413" y="935"/>
      <point x="364" y="935" type="curve" smooth="yes"/>
      <point x="318" y="935"/>
      <point x="295" y="915"/>
      <point x="295" y="885" type="curve" smooth="yes"/>
      <point x="295" y="858"/>
      <point x="318" y="840"/>
      <point x="366" y="840" type="curve" smooth="yes"/>
      <point x="412" y="840"/>
      <point x="437" y="857"/>
    </contour>
  </outline>
</glyph>
<glyph name="Ccedilla" format="1">
  <advance width="730"/>
  <unicode hex="00C7"/>
  <outline>
    <contour>
      <point x="320.486" y="-9.53287" type="move"/>
    </contour>
    <contour>
      <point x="564" y="481" type="curve"/>
      <point x="583.333" y="481"/>
      <point x="602.667" y="481"/>
      <point x="622" y="481" type="curve"/>
      <point x="622" y="730" type="line"/>
      <point x="564" y="730" type="line"/>
      <point x="564" y="625" type="line"/>
      <point x="529" y="684"/>
      <point x="437.125" y="740"/>
      <point x="349" y="740" type="curve" smooth="yes"/>
      <point x="174.997" y="740"/>
      <point x="50" y="631"/>
      <point x="50" y="354" type="curve" smooth="yes"/>
      <point x="50" y="116.932"/>
      <point x="158.659" y="-1.2627"/>
      <point x="320.486" y="-9.5332" type="curve"/>
      <point x="313.486" y="-23.5332"/>
      <point x="305" y="-37"/>
      <point x="305" y="-55" type="curve" smooth="yes"/>
      <point x="305" y="-80"/>
      <point x="329" y="-94"/>
      <point x="358" y="-94" type="curve" smooth="yes"/>
      <point x="374" y="-94"/>
      <point x="398" y="-90"/>
      <point x="416" y="-90" type="curve" smooth="yes"/>
      <point x="432" y="-90"/>
      <point x="442" y="-99"/>
      <point x="442" y="-109" type="curve" smooth="yes"/>
      <point x="442" y="-126"/>
      <point x="427" y="-134"/>
      <point x="361" y="-134" type="curve" smooth="yes"/>
      <point x="317" y="-134"/>
      <point x="284" y="-118"/>
      <point x="274" y="-101" type="curve"/>
      <point x="239" y="-157" type="line"/>
      <point x="247" y="-192"/>
      <point x="305" y="-210"/>
      <point x="356" y="-210" type="curve" smooth="yes"/>
      <point x="443" y="-210"/>
      <point x="488" y="-177"/>
      <point x="488" y="-112" type="curve" smooth="yes"/>
      <point x="488" y="-63"/>
      <point x="461" y="-43"/>
      <point x="428" y="-43" type="curve" smooth="yes"/>
      <point x="375" y="-43"/>
      <point x="367" y="-36"/>
      <point x="367" y="-25" type="curve" smooth="yes"/>
      <point x="367" y="-20"/>
      <point x="367" y="-14.4893"/>
      <point x="368" y="-9.48926" type="curve"/>
      <point x="522.157" y="-2.5166"/>
      <point x="608.535" y="75.558"/>
      <point x="640" y="210" type="curve"/>
      <point x="581" y="255" type="line"/>
      <point x="555" y="177"/>
      <point x="467" y="139"/>
      <point x="353" y="139" type="curve" smooth="yes"/>
      <point x="190" y="139"/>
      <point x="111" y="211"/>
      <point x="112" y="342" type="curve" smooth="yes"/>
      <point x="113" y="472"/>
      <point x="198" y="548"/>
      <point x="349" y="548" type="curve" smooth="yes"/>
      <point x="458" y="548"/>
      <point x="529" y="525"/>
    </contour>
    <contour>
      <point x="557.768" y="639.774" type="move"/>
    </contour>
  </outline>
</glyph>
<glyph name="Egrave" format="1">
  <advance width="630"/>
  <unicode hex="00C8"/>
  <outline>
    <contour>
      <point x="405" y="467" type="line"/>
      <point x="453" y="467" type="line"/>
      <point x="453" y="238" type="line"/>
      <point x="433.667" y="238"/>
      <point x="424.333" y="238"/>
      <point x="405" y="238" type="curve"/>
    </contour>
    <contour>
      <point x="496" y="730" type="line"/>
      <point x="554" y="730" type="line"/>
      <point x="554" y="471" type="line"/>
      <point x="534.667" y="471"/>
      <point x="515.333" y="471"/>
      <point x="496" y="471" type="curve"/>
    </contour>
    <contour>
      <point x="503" y="229" type="line"/>
      <point x="561" y="229" type="line"/>
      <point x="561" y="0" type="line"/>
      <point x="541.667" y="0"/>
      <point x="522.333" y="0"/>
      <point x="503" y="0" type="curve"/>
    </contour>
    <contour>
      <point x="413" y="550" type="line"/>
      <point x="292" y="550"/>
      <point x="141" y="550"/>
      <point x="20" y="550" type="curve"/>
      <point x="20" y="730" type="line"/>
      <point x="413" y="730" type="line"/>
    </contour>
    <contour>
      <point x="561" y="0" type="line"/>
      <point x="380.667" y="0"/>
      <point x="200.333" y="0"/>
      <point x="20" y="0" type="curve"/>
      <point x="20" y="144" type="line"/>
      <point x="561" y="144" type="line"/>
    </contour>
    <contour>
      <point x="110" y="0" type="line"/>
      <point x="110" y="730" type="line"/>
      <point x="554" y="730" type="line"/>
      <point x="554" y="550" type="line"/>
      <point x="181" y="550" type="line"/>
      <point x="181" y="383" type="line"/>
      <point x="453" y="383" type="line"/>
      <point x="453" y="327" type="line"/>
      <point x="181" y="327" type="line"/>
      <point x="181" y="131" type="line"/>
      <point x="560" y="131" type="line"/>
      <point x="560" y="0" type="line"/>
    </contour>
    <contour>
      <point x="445" y="773" type="line"/>
      <point x="391" y="835"/>
      <point x="258" y="853"/>
      <point x="181" y="814" type="curve"/>
      <point x="176" y="940" type="line"/>
      <point x="284" y="962"/>
      <point x="422" y="899"/>
      <point x="457" y="795" type="curve"/>
    </contour>
  </outline>
</glyph>
<glyph name="Eacute" format="1">
  <advance width="630"/>
  <unicode hex="00C9"/>
  <outline>
    <contour>
      <point x="405" y="467" type="line"/>
      <point x="453" y="467" type="line"/>
      <point x="453" y="238" type="line"/>
      <point x="433.667" y="238"/>
      <point x="424.333" y="238"/>
      <point x="405" y="238" type="curve"/>
    </contour>
    <contour>
      <point x="496" y="730" type="line"/>
      <point x="554" y="730" type="line"/>
      <point x="554" y="471" type="line"/>
      <point x="534.667" y="471"/>
      <point x="515.333" y="471"/>
      <point x="496" y="471" type="curve"/>
    </contour>
    <contour>
      <point x="503" y="229" type="line"/>
      <point x="561" y="229" type="line"/>
      <point x="561" y="0" type="line"/>
      <point x="541.667" y="0"/>
      <point x="522.333" y="0"/>
      <point x="503" y="0" type="curve"/>
    </contour>
    <contour>
      <point x="413" y="550" type="line"/>
      <point x="292" y="550"/>
      <point x="141" y="550"/>
      <point x="20" y="550" type="curve"/>
      <point x="20" y="730" type="line"/>
      <point x="413" y="730" type="line"/>
    </contour>
    <contour>
      <point x="561" y="0" type="line"/>
      <point x="380.667" y="0"/>
      <point x="200.333" y="0"/>
      <point x="20" y="0" type="curve"/>
      <point x="20" y="144" type="line"/>
      <point x="561" y="144" type="line"/>
    </contour>
    <contour>
      <point x="110" y="0" type="line"/>
      <point x="110" y="730" type="line"/>
      <point x="554" y="730" type="line"/>
      <point x="554" y="550" type="line"/>
      <point x="181" y="550" type="line"/>
      <point x="181" y="383" type="line"/>
      <point x="453" y="383" type="line"/>
      <point x="453" y="327" type="line"/>
      <point x="181" y="327" type="line"/>
      <point x="181" y="131" type="line"/>
      <point x="560" y="131" type="line"/>
      <point x="560" y="0" type="line"/>
    </contour>
    <contour>
      <point x="167" y="773" type="curve"/>
      <point x="155" y="795" type="line"/>
      <point x="190" y="898"/>
      <point x="329" y="961"/>
      <point x="436" y="940" type="curve"/>
      <point x="431" y="814" type="line"/>
      <point x="353" y="853"/>
      <point x="221" y="835"/>
    </contour>
  </outline>
</glyph>
<glyph name="Ecircumflex" format="1">
  <advance width="630"/>
  <unicode hex="00CA"/>
  <outline>
    <contour>
      <point x="405" y="467" type="line"/>
      <point x="453" y="467" type="line"/>
      <point x="453" y="238" type="line"/>
      <point x="433.667" y="238"/>
      <point x="424.333" y="238"/>
      <point x="405" y="238" type="curve"/>
    </contour>
    <contour>
      <point x="496" y="730" type="line"/>
      <point x="554" y="730" type="line"/>
      <point x="554" y="471" type="line"/>
      <point x="534.667" y="471"/>
      <point x="515.333" y="471"/>
      <point x="496" y="471" type="curve"/>
    </contour>
    <contour>
      <point x="503" y="229" type="line"/>
      <point x="561" y="229" type="line"/>
      <point x="561" y="0" type="line"/>
      <point x="541.667" y="0"/>
      <point x="522.333" y="0"/>
      <point x="503" y="0" type="curve"/>
    </contour>
    <contour>
      <point x="413" y="550" type="line"/>
      <point x="292" y="550"/>
      <point x="141" y="550"/>
      <point x="20" y="550" type="curve"/>
      <point x="20" y="730" type="line"/>
      <point x="413" y="730" type="line"/>
    </contour>
    <contour>
      <point x="561" y="0" type="line"/>
      <point x="380.667" y="0"/>
      <point x="200.333" y="0"/>
      <point x="20" y="0" type="curve"/>
      <point x="20" y="144" type="line"/>
      <point x="561" y="144" type="line"/>
    </contour>
    <contour>
      <point x="110" y="0" type="line"/>
      <point x="110" y="730" type="line"/>
      <point x="554" y="730" type="line"/>
      <point x="554" y="550" type="line"/>
      <point x="181" y="550" type="line"/>
      <point x="181" y="383" type="line"/>
      <point x="453" y="383" type="line"/>
      <point x="453" y="327" type="line"/>
      <point x="181" y="327" type="line"/>
      <point x="181" y="131" type="line"/>
      <point x="560" y="131" type="line"/>
      <point x="560" y="0" type="line"/>
    </contour>
    <contour>
      <point x="487" y="785" type="line"/>
      <point x="419" y="780"/>
      <point x="325" y="799"/>
      <point x="305" y="839" type="curve"/>
      <point x="285" y="799"/>
      <point x="191" y="780"/>
      <point x="123" y="785" type="curve"/>
      <point x="123" y="819" type="line"/>
      <point x="187" y="830"/>
      <point x="263" y="901"/>
      <point x="295" y="960" type="curve"/>
      <point x="315" y="960" type="line"/>
      <point x="347" y="901"/>
      <point x="423" y="830"/>
      <point x="487" y="819" type="curve"/>
    </contour>
  </outline>
</glyph>
<glyph name="Edieresis" format="1">
  <advance width="670"/>
  <unicode hex="00CB"/>
  <outline>
    <contour>
      <point x="445" y="467" type="line"/>
      <point x="493" y="467" type="line"/>
      <point x="493" y="238" type="line"/>
      <point x="474" y="238"/>
      <point x="464" y="238"/>
      <point x="445" y="238" type="curve"/>
    </contour>
    <contour>
      <point x="536" y="730" type="line"/>
      <point x="594" y="730" type="line"/>
      <point x="594" y="471" type="line"/>
      <point x="575" y="471"/>
      <point x="555" y="471"/>
      <point x="536" y="471" type="curve"/>
    </contour>
    <contour>
      <point x="543" y="229" type="line"/>
      <point x="601" y="229" type="line"/>
      <point x="601" y="0" type="line"/>
      <point x="582" y="0"/>
      <point x="562" y="0"/>
      <point x="543" y="0" type="curve"/>
    </contour>
    <contour>
      <point x="453" y="550" type="line"/>
      <point x="332" y="550"/>
      <point x="181" y="550"/>
      <point x="60" y="550" type="curve"/>
      <point x="60" y="730" type="line"/>
      <point x="453" y="730" type="line"/>
    </contour>
    <contour>
      <point x="601" y="0" type="line"/>
      <point x="421" y="0"/>
      <point x="240" y="0"/>
      <point x="60" y="0" type="curve"/>
      <point x="60" y="144" type="line"/>
      <point x="601" y="144" type="line"/>
    </contour>
    <contour>
      <point x="150" y="0" type="line"/>
      <point x="150" y="730" type="line"/>
      <point x="594" y="730" type="line"/>
      <point x="594" y="550" type="line"/>
      <point x="221" y="550" type="line"/>
      <point x="221" y="383" type="line"/>
      <point x="493" y="383" type="line"/>
      <point x="493" y="327" type="line"/>
      <point x="221" y="327" type="line"/>
      <point x="221" y="131" type="line"/>
      <point x="600" y="131" type="line"/>
      <point x="600" y="0" type="line"/>
    </contour>
    <contour>
      <point x="527" y="850" type="curve" smooth="yes"/>
      <point x="527" y="807"/>
      <point x="499" y="786"/>
      <point x="453" y="786" type="curve" smooth="yes"/>
      <point x="401" y="786"/>
      <point x="373" y="807"/>
      <point x="373" y="850" type="curve" smooth="yes"/>
      <point x="373" y="897"/>
      <point x="400" y="917"/>
      <point x="453" y="917" type="curve" smooth="yes"/>
      <point x="500" y="917"/>
      <point x="527" y="898"/>
    </contour>
    <contour>
      <point x="317" y="850" type="curve" smooth="yes"/>
      <point x="317" y="807"/>
      <point x="289" y="786"/>
      <point x="243" y="786" type="curve" smooth="yes"/>
      <point x="190" y="786"/>
      <point x="163" y="807"/>
      <point x="163" y="850" type="curve" smooth="yes"/>
      <point x="163" y="897"/>
      <point x="190" y="917"/>
      <point x="243" y="917" type="curve" smooth="yes"/>
      <point x="290" y="917"/>
      <point x="317" y="898"/>
    </contour>
  </outline>
</glyph>
<glyph name="Idieresis" format="1">
  <advance width="480"/>
  <unicode hex="00CF"/>
  <outline>
    <contour>
      <point x="417" y="850" type="curve" smooth="yes"/>
      <point x="417" y="807"/>
      <point x="389" y="786"/>
      <point x="343" y="786" type="curve" smooth="yes"/>
      <point x="291" y="786"/>
      <point x="263" y="807"/>
      <point x="263" y="850" type="curve" smooth="yes"/>
      <point x="263" y="897"/>
      <point x="290" y="917"/>
      <point x="343" y="917" type="curve" smooth="yes"/>
      <point x="390" y="917"/>
      <point x="417" y="898"/>
    </contour>
    <contour>
      <point x="207" y="850" type="curve" smooth="yes"/>
      <point x="207" y="807"/>
      <point x="179" y="786"/>
      <point x="133" y="786" type="curve" smooth="yes"/>
      <point x="80" y="786"/>
      <point x="53" y="807"/>
      <point x="53" y="850" type="curve" smooth="yes"/>
      <point x="53" y="897"/>
      <point x="80" y="917"/>
      <point x="133" y="917" type="curve" smooth="yes"/>
      <point x="180" y="917"/>
      <point x="207" y="898"/>
    </contour>
    <contour>
      <point x="410" y="0" type="line"/>
      <point x="50" y="0" type="line"/>
      <point x="50" y="141" type="line"/>
      <point x="196" y="141" type="line"/>
      <point x="196" y="550" type="line"/>
      <point x="56" y="550" type="line"/>
      <point x="56" y="730" type="line"/>
      <point x="404" y="730" type="line"/>
      <point x="404" y="550" type="line"/>
      <point x="268" y="550" type="line"/>
      <point x="268" y="141" type="line"/>
      <point x="410" y="141" type="line"/>
    </contour>
  </outline>
</glyph>
<glyph name="Eth" format="1">
  <advance width="780"/>
  <unicode hex="00D0"/>
  <outline>
    <contour>
      <point x="377" y="0" type="curve" smooth="yes"/>
      <point x="130" y="0" type="line"/>
      <point x="130" y="292" type="line"/>
      <point x="50" y="292" type="line"/>
      <point x="50" y="403" type="line"/>
      <point x="130" y="403" type="line"/>
      <point x="130" y="730" type="line"/>
      <point x="373" y="730" type="line" smooth="yes"/>
      <point x="552" y="730"/>
      <point x="681" y="626"/>
      <point x="681" y="359" type="curve" smooth="yes"/>
      <point x="681" y="90"/>
      <point x="553" y="0"/>
    </contour>
    <contour>
      <point x="202" y="144" type="line"/>
      <point x="411" y="144" type="line" smooth="yes"/>
      <point x="516" y="144"/>
      <point x="620" y="225"/>
      <point x="620" y="346" type="curve" smooth="yes"/>
      <point x="620" y="466"/>
      <point x="531" y="555"/>
      <point x="394" y="555" type="curve" smooth="yes"/>
      <point x="202" y="555" type="line"/>
      <point x="202" y="403" type="line"/>
      <point x="418" y="403" type="line"/>
      <point x="418" y="292" type="line"/>
      <point x="202" y="292" type="line"/>
    </contour>
  </outline>
</glyph>
<glyph name="Ntilde" format="1">
  <advance width="780"/>
  <unicode hex="00D1"/>
  <outline>
    <contour>
      <point x="367" y="906" type="curve" smooth="yes"/>
      <point x="444" y="886"/>
      <point x="518" y="889"/>
      <point x="537" y="910" type="curve"/>
      <point x="544" y="897" type="line"/>
      <point x="510" y="811"/>
      <point x="431" y="772"/>
      <point x="364" y="795" type="curve" smooth="yes"/>
      <point x="281" y="823"/>
      <point x="216" y="811"/>
      <point x="194" y="786" type="curve"/>
      <point x="187" y="799" type="line"/>
      <point x="214" y="876"/>
      <point x="284" y="928"/>
    </contour>
    <contour>
      <point x="519" y="0" type="line"/>
      <point x="167" y="590" type="line"/>
      <point x="167" y="0" type="line"/>
      <point x="95" y="0" type="line"/>
      <point x="95" y="730" type="line"/>
      <point x="261" y="730" type="line"/>
      <point x="593" y="106" type="line"/>
      <point x="593" y="730" type="line"/>
      <point x="665" y="730" type="line"/>
      <point x="665" y="0" type="line"/>
    </contour>
  </outline>
</glyph>
<glyph name="Odieresis" format="1">
  <advance width="730"/>
  <unicode hex="00D6"/>
  <outline>
    <contour>
      <point x="547" y="850" type="curve" smooth="yes"/>
      <point x="547" y="807"/>
      <point x="519" y="786"/>
      <point x="473" y="786" type="curve" smooth="yes"/>
      <point x="421" y="786"/>
      <point x="393" y="807"/>
      <point x="393" y="850" type="curve" smooth="yes"/>
      <point x="393" y="897"/>
      <point x="420" y="917"/>
      <point x="473" y="917" type="curve" smooth="yes"/>
      <point x="520" y="917"/>
      <point x="547" y="898"/>
    </contour>
    <contour>
      <point x="337" y="850" type="curve" smooth="yes"/>
      <point x="337" y="807"/>
      <point x="309" y="786"/>
      <point x="263" y="786" type="curve" smooth="yes"/>
      <point x="210" y="786"/>
      <point x="183" y="807"/>
      <point x="183" y="850" type="curve" smooth="yes"/>
      <point x="183" y="897"/>
      <point x="210" y="917"/>
      <point x="263" y="917" type="curve" smooth="yes"/>
      <point x="310" y="917"/>
      <point x="337" y="898"/>
    </contour>
    <contour>
      <point x="355" y="-10" type="curve" smooth="yes"/>
      <point x="183" y="-10"/>
      <point x="58" y="99"/>
      <point x="58" y="351" type="curve" smooth="yes"/>
      <point x="58" y="632"/>
      <point x="179" y="740"/>
      <point x="355" y="740" type="curve" smooth="yes"/>
      <point x="531" y="740"/>
      <point x="652" y="632"/>
      <point x="652" y="351" type="curve" smooth="yes"/>
      <point x="652" y="99"/>
      <point x="528" y="-10"/>
    </contour>
    <contour>
      <point x="355" y="129" type="curve" smooth="yes"/>
      <point x="484" y="129"/>
      <point x="592" y="184"/>
      <point x="591" y="351" type="curve" smooth="yes"/>
      <point x="589" y="464"/>
      <point x="509" y="544"/>
      <point x="355" y="544" type="curve" smooth="yes"/>
      <point x="200" y="544"/>
      <point x="121" y="464"/>
      <point x="120" y="351" type="curve" smooth="yes"/>
      <point x="119" y="185"/>
      <point x="228" y="129"/>
    </contour>
  </outline>
</glyph>
<glyph name="Oslash" format="1">
  <advance width="730"/>
  <unicode hex="00D8"/>
  <outline>
    <contour>
      <point x="120" y="351" type="curve" smooth="yes"/>
      <point x="119" y="236"/>
      <point x="172" y="174"/>
      <point x="246" y="146" type="curve"/>
      <point x="428" y="537" type="line"/>
      <point x="406" y="542"/>
      <point x="382" y="544"/>
      <point x="355" y="544" type="curve" smooth="yes"/>
      <point x="200" y="544"/>
      <point x="121" y="464"/>
    </contour>
    <contour>
      <point x="355" y="129" type="curve" smooth="yes"/>
      <point x="484" y="129"/>
      <point x="592" y="184"/>
      <point x="591" y="351" type="curve" smooth="yes"/>
      <point x="590" y="421"/>
      <point x="559" y="478"/>
      <point x="499" y="511" type="curve"/>
      <point x="322" y="130" type="line"/>
      <point x="333" y="129"/>
      <point x="344" y="129"/>
    </contour>
    <contour>
      <point x="355" y="-10" type="curve" smooth="yes"/>
      <point x="322" y="-10"/>
      <point x="291" y="-6"/>
      <point x="262" y="2" type="curve"/>
      <point x="224" y="-80" type="line"/>
      <point x="147" y="-66" type="line"/>
      <point x="193" y="33" type="line"/>
      <point x="110" y="85"/>
      <point x="58" y="188"/>
      <point x="58" y="351" type="curve" smooth="yes"/>
      <point x="58" y="632"/>
      <point x="179" y="740"/>
      <point x="355" y="740" type="curve" smooth="yes"/>
      <point x="412" y="740"/>
      <point x="463" y="729"/>
      <point x="506" y="704" type="curve"/>
      <point x="543" y="784" type="line"/>
      <point x="620" y="770" type="line"/>
      <point x="566" y="655" type="line"/>
      <point x="620" y="593"/>
      <point x="652" y="494"/>
      <point x="652" y="351" type="curve" smooth="yes"/>
      <point x="652" y="99"/>
      <point x="528" y="-10"/>
    </contour>
  </outline>
</glyph>
<glyph name="Ugrave" format="1">
  <advance width="730"/>
  <unicode hex="00D9"/>
  <outline>
    <contour>
      <point x="480" y="773" type="line"/>
      <point x="426" y="835"/>
      <point x="293" y="853"/>
      <point x="216" y="814" type="curve"/>
      <point x="211" y="940" type="line"/>
      <point x="319" y="962"/>
      <point x="457" y="899"/>
      <point x="492" y="795" type="curve"/>
    </contour>
    <contour>
      <point x="572" y="361" type="curve" smooth="yes"/>
      <point x="572" y="730" type="line"/>
      <point x="640" y="730" type="line"/>
      <point x="640" y="296" type="line" smooth="yes"/>
      <point x="640" y="83"/>
      <point x="530" y="-10"/>
      <point x="355" y="-10" type="curve" smooth="yes"/>
      <point x="188" y="-10"/>
      <point x="70" y="82"/>
      <point x="70" y="294" type="curve" smooth="yes"/>
      <point x="70" y="730" type="line"/>
      <point x="136" y="730" type="line"/>
      <point x="136" y="369" type="line" smooth="yes"/>
      <point x="136" y="310"/>
      <point x="144" y="251"/>
      <point x="179" y="215" type="curve" smooth="yes"/>
      <point x="220" y="174"/>
      <point x="279" y="155"/>
      <point x="358" y="155" type="curve" smooth="yes"/>
      <point x="432" y="155"/>
      <point x="491" y="173"/>
      <point x="530" y="215" type="curve" smooth="yes"/>
      <point x="561" y="249"/>
      <point x="572" y="308"/>
    </contour>
  </outline>
</glyph>
<glyph name="Yacute" format="1">
  <advance width="680"/>
  <unicode hex="00DD"/>
  <outline>
    <contour>
      <point x="157" y="773" type="curve"/>
      <point x="145" y="795" type="line"/>
      <point x="180" y="898"/>
      <point x="319" y="961"/>
      <point x="426" y="940" type="curve"/>
      <point x="421" y="814" type="line"/>
      <point x="343" y="853"/>
      <point x="211" y="835"/>
    </contour>
    <contour>
      <point x="359" y="0" type="line"/>
      <point x="288" y="0" type="line"/>
      <point x="288" y="252" type="line"/>
      <point x="20" y="730" type="line"/>
      <point x="93" y="730" type="line"/>
      <point x="292" y="357" type="line"/>
      <point x="491" y="730" type="line"/>
      <point x="640" y="730" type="line"/>
      <point x="359" y="232" type="line"/>
    </contour>
  </outline>
</glyph>
<glyph name="acircumflex" format="1">
  <advance width="530"/>
  <unicode hex="00E2"/>
  <outline>
    <contour>
      <point x="444" y="625" type="line"/>
      <point x="376" y="620"/>
      <point x="282" y="639"/>
      <point x="262" y="679" type="curve"/>
      <point x="242" y="639"/>
      <point x="148" y="620"/>
      <point x="80" y="625" type="curve"/>
      <point x="80" y="659" type="line"/>
      <point x="144" y="670"/>
      <point x="220" y="741"/>
      <point x="252" y="800" type="curve"/>
      <point x="272" y="800" type="line"/>
      <point x="304" y="741"/>
      <point x="380" y="670"/>
      <point x="444" y="659" type="curve"/>
    </contour>
    <contour>
      <point x="248" y="95" type="curve" smooth="yes"/>
      <point x="310" y="95"/>
      <point x="365" y="109"/>
      <point x="397" y="139" type="curve"/>
      <point x="397" y="210" type="line"/>
      <point x="356" y="241"/>
      <point x="311" y="256"/>
      <point x="255" y="256" type="curve" smooth="yes"/>
      <point x="162" y="256"/>
      <point x="115" y="223"/>
      <point x="115" y="173" type="curve" smooth="yes"/>
      <point x="115" y="132"/>
      <point x="172" y="95"/>
    </contour>
    <contour>
      <point x="420" y="0" type="line"/>
      <point x="407" y="35" type="line"/>
      <point x="372" y="5"/>
      <point x="325" y="-10"/>
      <point x="247" y="-10" type="curve" smooth="yes"/>
      <point x="105" y="-10"/>
      <point x="37" y="58"/>
      <point x="37" y="155" type="curve" smooth="yes"/>
      <point x="37" y="265"/>
      <point x="113" y="327"/>
      <point x="237" y="327" type="curve" smooth="yes"/>
      <point x="284" y="327"/>
      <point x="354" y="318"/>
      <point x="396" y="289" type="curve"/>
      <point x="391" y="383"/>
      <point x="347" y="422"/>
      <point x="253" y="422" type="curve" smooth="yes"/>
      <point x="168" y="422"/>
      <point x="118" y="395"/>
      <point x="91" y="363" type="curve"/>
      <point x="87" y="492" type="line"/>
      <point x="125" y="537"/>
      <point x="188" y="560"/>
      <point x="263" y="560" type="curve" smooth="yes"/>
      <point x="399" y="560"/>
      <point x="460" y="501"/>
      <point x="460" y="316" type="curve" smooth="yes"/>
      <point x="460" y="0" type="line"/>
    </contour>
  </outline>
</glyph>
<glyph name="aring" format="1">
  <advance width="530"/>
  <unicode hex="00E5"/>
  <outline>
    <contour>
      <point x="360" y="695" type="curve" smooth="yes"/>
      <point x="359" y="624"/>
      <point x="316" y="593"/>
      <point x="256" y="593" type="curve" smooth="yes"/>
      <point x="202" y="593"/>
      <point x="151" y="624"/>
      <point x="150" y="695" type="curve" smooth="yes"/>
      <point x="151" y="772"/>
      <point x="193" y="804"/>
      <point x="254" y="804" type="curve" smooth="yes"/>
      <point x="310" y="804"/>
      <point x="359" y="772"/>
    </contour>
    <contour>
      <point x="326" y="695" type="curve" smooth="yes"/>
      <point x="325" y="722"/>
      <point x="303" y="745"/>
      <point x="254" y="745" type="curve" smooth="yes"/>
      <point x="208" y="745"/>
      <point x="185" y="725"/>
      <point x="185" y="695" type="curve" smooth="yes"/>
      <point x="185" y="668"/>
      <point x="208" y="650"/>
      <point x="256" y="650" type="curve" smooth="yes"/>
      <point x="302" y="650"/>
      <point x="327" y="667"/>
    </contour>
    <contour>
      <point x="248" y="95" type="curve" smooth="yes"/>
      <point x="310" y="95"/>
      <point x="365" y="109"/>
      <point x="397" y="139" type="curve"/>
      <point x="397" y="210" type="line"/>
      <point x="356" y="241"/>
      <point x="311" y="256"/>
      <point x="255" y="256" type="curve" smooth="yes"/>
      <point x="162" y="256"/>
      <point x="115" y="223"/>
      <point x="115" y="173" type="curve" smooth="yes"/>
      <point x="115" y="132"/>
      <point x="172" y="95"/>
    </contour>
    <contour>
      <point x="420" y="0" type="line"/>
      <point x="407" y="35" type="line"/>
      <point x="372" y="5"/>
      <point x="325" y="-10"/>
      <point x="247" y="-10" type="curve" smooth="yes"/>
      <point x="105" y="-10"/>
      <point x="37" y="58"/>
      <point x="37" y="155" type="curve" smooth="yes"/>
      <point x="37" y="265"/>
      <point x="113" y="327"/>
      <point x="237" y="327" type="curve" smooth="yes"/>
      <point x="284" y="327"/>
      <point x="354" y="318"/>
      <point x="396" y="289" type="curve"/>
      <point x="391" y="383"/>
      <point x="347" y="422"/>
      <point x="253" y="422" type="curve" smooth="yes"/>
      <point x="168" y="422"/>
      <point x="118" y="395"/>
      <point x="91" y="363" type="curve"/>
      <point x="87" y="492" type="line"/>
      <point x="125" y="537"/>
      <point x="188" y="560"/>
      <point x="263" y="560" type="curve" smooth="yes"/>
      <point x="399" y="560"/>
      <point x="460" y="501"/>
      <point x="460" y="316" type="curve" smooth="yes"/>
      <point x="460" y="0" type="line"/>
    </contour>
  </outline>
</glyph>
<glyph name="ae" format="1">
  <advance width="880"/>
  <unicode hex="00E6"/>
  <outline>
    <contour>
      <point x="458" y="316" type="line"/>
      <point x="453" y="297" type="line"/>
      <point x="775" y="297" type="line"/>
      <point x="775" y="358"/>
      <point x="712" y="418"/>
      <point x="610" y="418" type="curve" smooth="yes"/>
      <point x="543" y="418"/>
      <point x="481" y="382"/>
      <point x="458" y="321" type="curve"/>
    </contour>
    <contour>
      <point x="246" y="95" type="curve" smooth="yes"/>
      <point x="308" y="95"/>
      <point x="363" y="109"/>
      <point x="395" y="139" type="curve"/>
      <point x="395" y="199" type="line" smooth="yes"/>
      <point x="394" y="203"/>
      <point x="394" y="207"/>
      <point x="393" y="212" type="curve" smooth="yes"/>
      <point x="353" y="242"/>
      <point x="308" y="256"/>
      <point x="253" y="256" type="curve" smooth="yes"/>
      <point x="160" y="256"/>
      <point x="113" y="223"/>
      <point x="113" y="173" type="curve" smooth="yes"/>
      <point x="113" y="132"/>
      <point x="170" y="95"/>
    </contour>
    <contour>
      <point x="821" y="126" type="line"/>
      <point x="788" y="50"/>
      <point x="714" y="-10"/>
      <point x="617" y="-10" type="curve" smooth="yes"/>
      <point x="537" y="-10"/>
      <point x="478" y="22"/>
      <point x="440" y="77" type="curve"/>
      <point x="404" y="19"/>
      <point x="353" y="-10"/>
      <point x="245" y="-10" type="curve" smooth="yes"/>
      <point x="103" y="-10"/>
      <point x="35" y="58"/>
      <point x="35" y="155" type="curve" smooth="yes"/>
      <point x="35" y="265"/>
      <point x="111" y="327"/>
      <point x="235" y="327" type="curve" smooth="yes"/>
      <point x="281" y="327"/>
      <point x="348" y="318"/>
      <point x="390" y="292" type="curve"/>
      <point x="391" y="300"/>
      <point x="391" y="307"/>
      <point x="392" y="314" type="curve" smooth="yes"/>
      <point x="380" y="390"/>
      <point x="336" y="422"/>
      <point x="251" y="422" type="curve" smooth="yes"/>
      <point x="166" y="422"/>
      <point x="116" y="395"/>
      <point x="89" y="363" type="curve"/>
      <point x="85" y="492" type="line"/>
      <point x="123" y="537"/>
      <point x="186" y="560"/>
      <point x="261" y="560" type="curve" smooth="yes"/>
      <point x="350" y="560"/>
      <point x="407" y="534"/>
      <point x="436" y="464" type="curve"/>
      <point x="478" y="532"/>
      <point x="544" y="560"/>
      <point x="615" y="560" type="curve" smooth="yes"/>
      <point x="751" y="560"/>
      <point x="840" y="460"/>
      <point x="840" y="232" type="curve"/>
      <point x="451" y="232" type="line"/>
      <point x="464" y="144"/>
      <point x="523" y="102"/>
      <point x="615" y="101" type="curve" smooth="yes"/>
      <point x="703" y="100"/>
      <point x="745" y="121"/>
      <point x="774" y="161" type="curve"/>
    </contour>
  </outline>
</glyph>
<glyph name="ccedilla" format="1">
  <advance width="530"/>
  <unicode hex="00E7"/>
  <outline>
    <contour>
      <point x="248" y="-210" type="curve" smooth="yes"/>
      <point x="197" y="-210"/>
      <point x="139" y="-192"/>
      <point x="131" y="-157" type="curve"/>
      <point x="166" y="-101" type="line"/>
      <point x="176" y="-118"/>
      <point x="209" y="-134"/>
      <point x="253" y="-134" type="curve" smooth="yes"/>
      <point x="319" y="-134"/>
      <point x="334" y="-126"/>
      <point x="334" y="-109" type="curve" smooth="yes"/>
      <point x="334" y="-99"/>
      <point x="324" y="-90"/>
      <point x="308" y="-90" type="curve" smooth="yes"/>
      <point x="290" y="-90"/>
      <point x="266" y="-94"/>
      <point x="250" y="-94" type="curve" smooth="yes"/>
      <point x="221" y="-94"/>
      <point x="197" y="-80"/>
      <point x="197" y="-55" type="curve" smooth="yes"/>
      <point x="197" y="-36"/>
      <point x="201" y="-20"/>
      <point x="208" y="-6" type="curve"/>
      <point x="107" y="15"/>
      <point x="40" y="104"/>
      <point x="40" y="271" type="curve" smooth="yes"/>
      <point x="40" y="479"/>
      <point x="135" y="560"/>
      <point x="255" y="560" type="curve" smooth="yes"/>
      <point x="366" y="560"/>
      <point x="429" y="510"/>
      <point x="460" y="425" type="curve"/>
      <point x="414" y="338" type="line"/>
      <point x="385" y="375"/>
      <point x="343" y="402"/>
      <point x="260" y="402" type="curve" smooth="yes"/>
      <point x="163" y="402"/>
      <point x="100" y="352"/>
      <point x="99" y="266" type="curve" smooth="yes"/>
      <point x="98" y="181"/>
      <point x="145" y="108"/>
      <point x="260" y="108" type="curve" smooth="yes"/>
      <point x="343" y="108"/>
      <point x="391" y="130"/>
      <point x="418" y="183" type="curve"/>
      <point x="470" y="112" type="line"/>
      <point x="436" y="34"/>
      <point x="363" y="-10"/>
      <point x="261" y="-10" type="curve"/>
      <point x="260" y="-15"/>
      <point x="259" y="-20"/>
      <point x="259" y="-25" type="curve" smooth="yes"/>
      <point x="259" y="-36"/>
      <point x="267" y="-43"/>
      <point x="320" y="-43" type="curve" smooth="yes"/>
      <point x="353" y="-43"/>
      <point x="380" y="-63"/>
      <point x="380" y="-112" type="curve" smooth="yes"/>
      <point x="380" y="-177"/>
      <point x="335" y="-210"/>
    </contour>
  </outline>
</glyph>
<glyph name="igrave" format="1">
  <advance width="330"/>
  <unicode hex="00EC"/>
  <outline>
    <contour>
      <point x="274" y="613" type="line"/>
      <point x="220" y="675"/>
      <point x="87" y="693"/>
      <point x="10" y="654" type="curve"/>
      <point x="5" y="780" type="line"/>
      <point x="113" y="802"/>
      <point x="251" y="739"/>
      <point x="286" y="635" type="curve"/>
    </contour>
    <contour>
      <point x="175" y="0" type="line"/>
      <point x="175" y="369" type="line"/>
      <point x="50" y="369" type="line"/>
      <point x="50" y="539" type="line"/>
      <point x="240" y="539" type="line"/>
      <point x="240" y="0" type="line"/>
    </contour>
  </outline>
</glyph>
<glyph name="icircumflex" format="1">
  <advance width="330"/>
  <unicode hex="00EE"/>
  <outline>
    <contour>
      <point x="334" y="625" type="line"/>
      <point x="266" y="620"/>
      <point x="172" y="639"/>
      <point x="152" y="679" type="curve"/>
      <point x="132" y="639"/>
      <point x="38" y="620"/>
      <point x="-30" y="625" type="curve"/>
      <point x="-30" y="659" type="line"/>
      <point x="34" y="670"/>
      <point x="110" y="741"/>
      <point x="142" y="800" type="curve"/>
      <point x="162" y="800" type="line"/>
      <point x="194" y="741"/>
      <point x="270" y="670"/>
      <point x="334" y="659" type="curve"/>
    </contour>
    <contour>
      <point x="175" y="0" type="line"/>
      <point x="175" y="369" type="line"/>
      <point x="50" y="369" type="line"/>
      <point x="50" y="539" type="line"/>
      <point x="240" y="539" type="line"/>
      <point x="240" y="0" type="line"/>
    </contour>
  </outline>
</glyph>
<glyph name="idieresis" format="1">
  <advance width="330"/>
  <unicode hex="00EF"/>
  <outline>
    <contour>
      <point x="330" y="730" type="curve" smooth="yes"/>
      <point x="330" y="687"/>
      <point x="302" y="666"/>
      <point x="256" y="666" type="curve" smooth="yes"/>
      <point x="204" y="666"/>
      <point x="176" y="687"/>
      <point x="176" y="730" type="curve" smooth="yes"/>
      <point x="176" y="777"/>
      <point x="203" y="797"/>
      <point x="256" y="797" type="curve" smooth="yes"/>
      <point x="303" y="797"/>
      <point x="330" y="778"/>
    </contour>
    <contour>
      <point x="120" y="730" type="curve" smooth="yes"/>
      <point x="120" y="687"/>
      <point x="92" y="666"/>
      <point x="46" y="666" type="curve" smooth="yes"/>
      <point x="-7" y="666"/>
      <point x="-34" y="687"/>
      <point x="-34" y="730" type="curve" smooth="yes"/>
      <point x="-34" y="777"/>
      <point x="-7" y="797"/>
      <point x="46" y="797" type="curve" smooth="yes"/>
      <point x="93" y="797"/>
      <point x="120" y="778"/>
    </contour>
    <contour>
      <point x="175" y="0" type="line"/>
      <point x="175" y="369" type="line"/>
      <point x="50" y="369" type="line"/>
      <point x="50" y="539" type="line"/>
      <point x="240" y="539" type="line"/>
      <point x="240" y="0" type="line"/>
    </contour>
  </outline>
</glyph>
<glyph name="ntilde" format="1">
  <advance width="530"/>
  <unicode hex="00F1"/>
  <outline>
    <contour>
      <point x="257" y="786" type="curve" smooth="yes"/>
      <point x="334" y="766"/>
      <point x="408" y="769"/>
      <point x="427" y="790" type="curve"/>
      <point x="434" y="777" type="line"/>
      <point x="400" y="691"/>
      <point x="321" y="652"/>
      <point x="254" y="675" type="curve" smooth="yes"/>
      <point x="171" y="703"/>
      <point x="106" y="691"/>
      <point x="84" y="666" type="curve"/>
      <point x="77" y="679" type="line"/>
      <point x="104" y="756"/>
      <point x="174" y="808"/>
    </contour>
    <contour>
      <point x="270" y="389" type="curve" smooth="yes"/>
      <point x="194" y="389"/>
      <point x="137" y="360"/>
      <point x="110" y="290" type="curve"/>
      <point x="110" y="0" type="line"/>
      <point x="45" y="0" type="line"/>
      <point x="45" y="550" type="line"/>
      <point x="110" y="550" type="line"/>
      <point x="110" y="460" type="line"/>
      <point x="139" y="525"/>
      <point x="200" y="560"/>
      <point x="275" y="560" type="curve" smooth="yes"/>
      <point x="408" y="560"/>
      <point x="465" y="499"/>
      <point x="465" y="303" type="curve" smooth="yes"/>
      <point x="465" y="0" type="line"/>
      <point x="402" y="0" type="line"/>
      <point x="402" y="241" type="line" smooth="yes"/>
      <point x="402" y="343"/>
      <point x="364" y="389"/>
    </contour>
  </outline>
</glyph>
<glyph name="ograve" format="1">
  <advance width="530"/>
  <unicode hex="00F2"/>
  <outline>
    <contour>
      <point x="384" y="613" type="line"/>
      <point x="330" y="675"/>
      <point x="197" y="693"/>
      <point x="120" y="654" type="curve"/>
      <point x="115" y="780" type="line"/>
      <point x="223" y="802"/>
      <point x="361" y="739"/>
      <point x="396" y="635" type="curve"/>
    </contour>
    <contour>
      <point x="255" y="-10" type="curve" smooth="yes"/>
      <point x="122" y="-10"/>
      <point x="25" y="73"/>
      <point x="25" y="265" type="curve" smooth="yes"/>
      <point x="25" y="478"/>
      <point x="119" y="560"/>
      <point x="255" y="560" type="curve" smooth="yes"/>
      <point x="392" y="560"/>
      <point x="485" y="478"/>
      <point x="485" y="265" type="curve" smooth="yes"/>
      <point x="485" y="73"/>
      <point x="389" y="-10"/>
    </contour>
    <contour>
      <point x="255" y="107" type="curve" smooth="yes"/>
      <point x="348" y="107"/>
      <point x="427" y="146"/>
      <point x="426" y="265" type="curve" smooth="yes"/>
      <point x="425" y="345"/>
      <point x="368" y="402"/>
      <point x="255" y="402" type="curve" smooth="yes"/>
      <point x="143" y="402"/>
      <point x="85" y="345"/>
      <point x="84" y="265" type="curve" smooth="yes"/>
      <point x="83" y="146"/>
      <point x="162" y="107"/>
    </contour>
  </outline>
</glyph>
<glyph name="divide" format="1">
  <advance width="530"/>
  <unicode hex="00F7"/>
  <outline>
    <contour>
      <point x="343" y="487" type="curve" smooth="yes"/>
      <point x="343" y="444"/>
      <point x="315" y="423"/>
      <point x="269" y="423" type="curve" smooth="yes"/>
      <point x="216" y="423"/>
      <point x="189" y="444"/>
      <point x="189" y="487" type="curve" smooth="yes"/>
      <point x="189" y="534"/>
      <point x="216" y="554"/>
      <point x="269" y="554" type="curve" smooth="yes"/>
      <point x="316" y="554"/>
      <point x="343" y="535"/>
    </contour>
    <contour>
      <point x="448" y="267" type="line"/>
      <point x="62" y="267" type="line"/>
      <point x="62" y="376" type="line"/>
      <point x="448" y="376" type="line"/>
    </contour>
    <contour>
      <point x="345" y="148" type="curve" smooth="yes"/>
      <point x="345" y="105"/>
      <point x="317" y="84"/>
      <point x="271" y="84" type="curve" smooth="yes"/>
      <point x="219" y="84"/>
      <point x="191" y="105"/>
      <point x="191" y="148" type="curve" smooth="yes"/>
      <point x="191" y="195"/>
      <point x="218" y="215"/>
      <point x="271" y="215" type="curve" smooth="yes"/>
      <point x="318" y="215"/>
      <point x="345" y="196"/>
    </contour>
  </outline>
</glyph>
<glyph name="oslash" format="1">
  <advance width="530"/>
  <unicode hex="00F8"/>
  <outline>
    <contour>
      <point x="84" y="265" type="curve" smooth="yes"/>
      <point x="83" y="192"/>
      <point x="113" y="149"/>
      <point x="158" y="127" type="curve"/>
      <point x="303" y="398" type="line"/>
      <point x="288" y="401"/>
      <point x="272" y="402"/>
      <point x="255" y="402" type="curve" smooth="yes"/>
      <point x="143" y="402"/>
      <point x="85" y="345"/>
    </contour>
    <contour>
      <point x="255" y="107" type="curve" smooth="yes"/>
      <point x="348" y="107"/>
      <point x="427" y="146"/>
      <point x="426" y="265" type="curve" smooth="yes"/>
      <point x="425" y="309"/>
      <point x="408" y="346"/>
      <point x="373" y="371" type="curve"/>
      <point x="233" y="108" type="line"/>
      <point x="240" y="107"/>
      <point x="247" y="107"/>
    </contour>
    <contour>
      <point x="255" y="-10" type="curve" smooth="yes"/>
      <point x="227" y="-10"/>
      <point x="200" y="-6"/>
      <point x="176" y="1" type="curve"/>
      <point x="143" y="-60" type="line"/>
      <point x="65" y="-47" type="line"/>
      <point x="110" y="37" type="line"/>
      <point x="57" y="80"/>
      <point x="25" y="154"/>
      <point x="25" y="265" type="curve" smooth="yes"/>
      <point x="25" y="478"/>
      <point x="119" y="560"/>
      <point x="255" y="560" type="curve" smooth="yes"/>
      <point x="300" y="560"/>
      <point x="340" y="551"/>
      <point x="374" y="532" type="curve"/>
      <point x="407" y="593" type="line"/>
      <point x="485" y="580" type="line"/>
      <point x="431" y="480" type="line"/>
      <point x="466" y="432"/>
      <point x="485" y="362"/>
      <point x="485" y="265" type="curve" smooth="yes"/>
      <point x="485" y="73"/>
      <point x="389" y="-10"/>
    </contour>
  </outline>
</glyph>
<glyph name="ugrave" format="1">
  <advance width="530"/>
  <unicode hex="00F9"/>
  <outline>
    <contour>
      <point x="384" y="613" type="line"/>
      <point x="330" y="675"/>
      <point x="197" y="693"/>
      <point x="120" y="654" type="curve"/>
      <point x="115" y="780" type="line"/>
      <point x="223" y="802"/>
      <point x="361" y="739"/>
      <point x="396" y="635" type="curve"/>
    </contour>
    <contour>
      <point x="404" y="0" type="line"/>
      <point x="399" y="88" type="line"/>
      <point x="373" y="33"/>
      <point x="313" y="-10"/>
      <point x="227" y="-10" type="curve" smooth="yes"/>
      <point x="116" y="-10"/>
      <point x="45" y="50"/>
      <point x="45" y="227" type="curve" smooth="yes"/>
      <point x="45" y="550" type="line"/>
      <point x="109" y="550" type="line"/>
      <point x="109" y="279" type="line" smooth="yes"/>
      <point x="109" y="165"/>
      <point x="140" y="124"/>
      <point x="243" y="124" type="curve" smooth="yes"/>
      <point x="319" y="124"/>
      <point x="376" y="159"/>
      <point x="400" y="215" type="curve"/>
      <point x="400" y="550" type="line"/>
      <point x="465" y="550" type="line"/>
      <point x="465" y="0" type="line"/>
    </contour>
  </outline>
</glyph>
<glyph name="thorn" format="1">
  <advance width="530"/>
  <unicode hex="00FE"/>
  <outline>
    <contour>
      <point x="273" y="108" type="curve" smooth="yes"/>
      <point x="372" y="106"/>
      <point x="432" y="154"/>
      <point x="431" y="266" type="curve" smooth="yes"/>
      <point x="431" y="350"/>
      <point x="371" y="404"/>
      <point x="276" y="404" type="curve" smooth="yes"/>
      <point x="165" y="404"/>
      <point x="120" y="355"/>
      <point x="120" y="286" type="curve" smooth="yes"/>
      <point x="120" y="189" type="line"/>
      <point x="145" y="137"/>
      <point x="207" y="109"/>
    </contour>
    <contour>
      <point x="277" y="-10" type="curve" smooth="yes"/>
      <point x="220" y="-10"/>
      <point x="165" y="13"/>
      <point x="120" y="64" type="curve"/>
      <point x="120" y="-200" type="line"/>
      <point x="55" y="-200" type="line"/>
      <point x="55" y="730" type="line"/>
      <point x="120" y="730" type="line"/>
      <point x="120" y="462" type="line"/>
      <point x="153" y="532"/>
      <point x="221" y="560"/>
      <point x="283" y="560" type="curve" smooth="yes"/>
      <point x="403" y="560"/>
      <point x="491" y="486"/>
      <point x="491" y="258" type="curve" smooth="yes"/>
      <point x="491" y="77"/>
      <point x="399" y="-10"/>
    </contour>
  </outline>
</glyph>
<glyph name="Amacron" format="1">
  <advance width="730"/>
  <unicode hex="0100"/>
  <outline>
    <contour>
      <point x="542" y="570" type="line"/>
      <point x="421" y="570"/>
      <point x="540" y="570"/>
      <point x="419" y="570" type="curve"/>
      <point x="289" y="730" type="line"/>
      <point x="542" y="730" type="line"/>
    </contour>
    <contour>
      <point x="732" y="0" type="line"/>
      <point x="631.667" y="0"/>
      <point x="531.333" y="0"/>
      <point x="431" y="0" type="curve"/>
      <point x="431" y="140" type="line"/>
      <point x="732" y="140" type="line"/>
    </contour>
    <contour>
      <point x="354" y="0" type="line"/>
      <point x="233" y="0"/>
      <point x="112" y="0"/>
      <point x="-9" y="0" type="curve"/>
      <point x="-9" y="140" type="line"/>
      <point x="354" y="140" type="line"/>
    </contour>
    <contour>
      <point x="380" y="583" type="line"/>
      <point x="292" y="330" type="line"/>
      <point x="475" y="330" type="line"/>
    </contour>
    <contour>
      <point x="598" y="0" type="line"/>
      <point x="501" y="259" type="line"/>
      <point x="269" y="259" type="line"/>
      <point x="183" y="0" type="line"/>
      <point x="33" y="0" type="line"/>
      <point x="289" y="730" type="line"/>
      <point x="412" y="730" type="line"/>
      <point x="679" y="0" type="line"/>
    </contour>
    <contour>
      <point x="539" y="791" type="line"/>
      <point x="191" y="791" type="line"/>
      <point x="191" y="890" type="line"/>
      <point x="539" y="890" type="line"/>
    </contour>
  </outline>
</glyph>
<glyph name="Abreve" format="1">
  <advance width="730"/>
  <unicode hex="0102"/>
  <outline>
    <contour>
      <point x="542" y="570" type="line"/>
      <point x="421" y="570"/>
      <point x="540" y="570"/>
      <point x="419" y="570" type="curve"/>
      <point x="289" y="730" type="line"/>
      <point x="542" y="730" type="line"/>
    </contour>
    <contour>
      <point x="732" y="0" type="line"/>
      <point x="631.667" y="0"/>
      <point x="531.333" y="0"/>
      <point x="431" y="0" type="curve"/>
      <point x="431" y="140" type="line"/>
      <point x="732" y="140" type="line"/>
    </contour>
    <contour>
      <point x="354" y="0" type="line"/>
      <point x="233" y="0"/>
      <point x="112" y="0"/>
      <point x="-9" y="0" type="curve"/>
      <point x="-9" y="140" type="line"/>
      <point x="354" y="140" type="line"/>
    </contour>
    <contour>
      <point x="380" y="583" type="line"/>
      <point x="292" y="330" type="line"/>
      <point x="475" y="330" type="line"/>
    </contour>
    <contour>
      <point x="598" y="0" type="line"/>
      <point x="501" y="259" type="line"/>
      <point x="269" y="259" type="line"/>
      <point x="183" y="0" type="line"/>
      <point x="33" y="0" type="line"/>
      <point x="289" y="730" type="line"/>
      <point x="412" y="730" type="line"/>
      <point x="679" y="0" type="line"/>
    </contour>
    <contour>
      <point x="360" y="779" type="curve" smooth="yes"/>
      <point x="264" y="779"/>
      <point x="195" y="834"/>
      <point x="195" y="960" type="curve"/>
      <point x="246" y="960" type="line"/>
      <point x="245" y="889"/>
      <point x="299" y="866"/>
      <point x="360" y="866" type="curve" smooth="yes"/>
      <point x="429" y="866"/>
      <point x="486" y="889"/>
      <point x="485" y="960" type="curve"/>
      <point x="535" y="960" type="line"/>
      <point x="535" y="834"/>
      <point x="462" y="779"/>
    </contour>
  </outline>
</glyph>
<glyph name="Aogonek" format="1">
  <advance width="730"/>
  <unicode hex="0104"/>
  <outline>
    <contour>
      <point x="542" y="570" type="line"/>
      <point x="421" y="570"/>
      <point x="540" y="570"/>
      <point x="419" y="570" type="curve"/>
      <point x="289" y="730" type="line"/>
      <point x="542" y="730" type="line"/>
    </contour>
    <contour>
      <point x="732" y="0" type="line"/>
      <point x="631.667" y="0"/>
      <point x="531.333" y="0"/>
      <point x="431" y="0" type="curve"/>
      <point x="431" y="140" type="line"/>
      <point x="732" y="140" type="line"/>
    </contour>
    <contour>
      <point x="354" y="0" type="line"/>
      <point x="233" y="0"/>
      <point x="112" y="0"/>
      <point x="-9" y="0" type="curve"/>
      <point x="-9" y="140" type="line"/>
      <point x="354" y="140" type="line"/>
    </contour>
    <contour>
      <point x="380" y="583" type="line"/>
      <point x="292" y="330" type="line"/>
      <point x="475" y="330" type="line"/>
    </contour>
    <contour>
      <point x="598" y="0" type="line"/>
      <point x="501" y="259" type="line"/>
      <point x="269" y="259" type="line"/>
      <point x="183" y="0" type="line"/>
      <point x="33" y="0" type="line"/>
      <point x="289" y="730" type="line"/>
      <point x="412" y="730" type="line"/>
      <point x="679" y="0" type="line"/>
    </contour>
    <contour>
      <point x="574.97" y="76" type="line"/>
      <point x="602" y="5" type="line"/>
      <point x="564" y="-31"/>
      <point x="551" y="-70"/>
      <point x="551" y="-103" type="curve" smooth="yes"/>
      <point x="552" y="-167"/>
      <point x="600" y="-210"/>
      <point x="691" y="-210" type="curve" smooth="yes"/>
      <point x="733" y="-210"/>
      <point x="771" y="-203"/>
      <point x="793" y="-190" type="curve"/>
      <point x="780" y="-155" type="line"/>
      <point x="766" y="-162"/>
      <point x="749" y="-163"/>
      <point x="733" y="-163" type="curve" smooth="yes"/>
      <point x="685" y="-162"/>
      <point x="646" y="-129"/>
      <point x="646" y="-81" type="curve" smooth="yes"/>
      <point x="646" y="-42"/>
      <point x="660" y="-12"/>
      <point x="677" y="0" type="curve"/>
      <point x="678" y="0" type="line"/>
    </contour>
  </outline>
</glyph>
<glyph name="aogonek" format="1">
  <advance width="530"/>
  <unicode hex="0105"/>
  <outline>
    <contour>
      <point x="490" y="-210" type="curve" smooth="yes"/>
      <point x="399" y="-210"/>
      <point x="351" y="-167"/>
      <point x="350" y="-103" type="curve" smooth="yes"/>
      <point x="350" y="-67"/>
      <point x="365" y="-23"/>
      <point x="414" y="16" type="curve"/>
      <point x="407" y="35" type="line"/>
      <point x="372" y="5"/>
      <point x="325" y="-10"/>
      <point x="247" y="-10" type="curve" smooth="yes"/>
      <point x="105" y="-10"/>
      <point x="37" y="58"/>
      <point x="37" y="155" type="curve" smooth="yes"/>
      <point x="37" y="265"/>
      <point x="113" y="327"/>
      <point x="237" y="327" type="curve" smooth="yes"/>
      <point x="284" y="327"/>
      <point x="354" y="318"/>
      <point x="396" y="289" type="curve"/>
      <point x="391" y="383"/>
      <point x="347" y="422"/>
      <point x="253" y="422" type="curve" smooth="yes"/>
      <point x="168" y="422"/>
      <point x="118" y="395"/>
      <point x="91" y="363" type="curve"/>
      <point x="87" y="492" type="line"/>
      <point x="125" y="537"/>
      <point x="188" y="560"/>
      <point x="263" y="560" type="curve" smooth="yes"/>
      <point x="399" y="560"/>
      <point x="460" y="501"/>
      <point x="460" y="316" type="curve" smooth="yes"/>
      <point x="460" y="13" type="line"/>
      <point x="476" y="0" type="line"/>
      <point x="459" y="-12"/>
      <point x="445" y="-42"/>
      <point x="445" y="-81" type="curve" smooth="yes"/>
      <point x="445" y="-129"/>
      <point x="484" y="-162"/>
      <point x="532" y="-163" type="curve" smooth="yes"/>
      <point x="548" y="-163"/>
      <point x="565" y="-162"/>
      <point x="579" y="-155" type="curve"/>
      <point x="592" y="-190" type="line"/>
      <point x="570" y="-203"/>
      <point x="532" y="-210"/>
    </contour>
    <contour>
      <point x="248" y="95" type="curve" smooth="yes"/>
      <point x="310" y="95"/>
      <point x="365" y="109"/>
      <point x="397" y="139" type="curve"/>
      <point x="397" y="210" type="line"/>
      <point x="356" y="241"/>
      <point x="311" y="256"/>
      <point x="255" y="256" type="curve" smooth="yes"/>
      <point x="162" y="256"/>
      <point x="115" y="223"/>
      <point x="115" y="173" type="curve" smooth="yes"/>
      <point x="115" y="132"/>
      <point x="172" y="95"/>
    </contour>
  </outline>
</glyph>
<glyph name="Cacute" format="1">
  <advance width="677"/>
  <unicode hex="0106"/>
  <outline>
    <contour>
      <point x="574" y="730" type="line"/>
      <point x="632" y="730" type="line"/>
      <point x="632" y="481" type="line"/>
      <point x="613" y="481"/>
      <point x="593" y="481"/>
      <point x="574" y="481" type="curve"/>
    </contour>
    <contour>
      <point x="591" y="255" type="curve"/>
      <point x="650" y="210" type="line"/>
      <point x="617" y="69"/>
      <point x="517" y="-10"/>
      <point x="349" y="-10" type="curve" smooth="yes"/>
      <point x="177" y="-10"/>
      <point x="60" y="108"/>
      <point x="60" y="354" type="curve" smooth="yes"/>
      <point x="60" y="631"/>
      <point x="185" y="740"/>
      <point x="359" y="740" type="curve" smooth="yes"/>
      <point x="489" y="740"/>
      <point x="599" y="656"/>
      <point x="599" y="538" type="curve"/>
      <point x="574" y="481" type="line"/>
      <point x="539" y="525"/>
      <point x="468" y="548"/>
      <point x="359" y="548" type="curve" smooth="yes"/>
      <point x="208" y="548"/>
      <point x="123" y="472"/>
      <point x="122" y="342" type="curve" smooth="yes"/>
      <point x="121" y="211"/>
      <point x="200" y="139"/>
      <point x="363" y="139" type="curve" smooth="yes"/>
      <point x="477" y="139"/>
      <point x="565" y="177"/>
    </contour>
    <contour>
      <point x="217" y="773" type="curve"/>
      <point x="205" y="795" type="line"/>
      <point x="240" y="898"/>
      <point x="379" y="961"/>
      <point x="486" y="940" type="curve"/>
      <point x="481" y="814" type="line"/>
      <point x="403" y="853"/>
      <point x="271" y="835"/>
    </contour>
  </outline>
</glyph>
<glyph name="cacute" format="1">
  <advance width="530"/>
  <unicode hex="0107"/>
  <outline>
    <contour>
      <point x="126" y="613" type="curve"/>
      <point x="114" y="635" type="line"/>
      <point x="149" y="738"/>
      <point x="288" y="801"/>
      <point x="395" y="780" type="curve"/>
      <point x="390" y="654" type="line"/>
      <point x="312" y="693"/>
      <point x="180" y="675"/>
    </contour>
    <contour>
      <point x="255" y="-10" type="curve" smooth="yes"/>
      <point x="128" y="-10"/>
      <point x="40" y="79"/>
      <point x="40" y="271" type="curve" smooth="yes"/>
      <point x="40" y="479"/>
      <point x="135" y="560"/>
      <point x="255" y="560" type="curve" smooth="yes"/>
      <point x="366" y="560"/>
      <point x="429" y="510"/>
      <point x="460" y="425" type="curve"/>
      <point x="414" y="338" type="line"/>
      <point x="385" y="375"/>
      <point x="343" y="402"/>
      <point x="260" y="402" type="curve" smooth="yes"/>
      <point x="163" y="402"/>
      <point x="100" y="352"/>
      <point x="99" y="266" type="curve" smooth="yes"/>
      <point x="98" y="181"/>
      <point x="145" y="108"/>
      <point x="260" y="108" type="curve" smooth="yes"/>
      <point x="343" y="108"/>
      <point x="391" y="130"/>
      <point x="418" y="183" type="curve"/>
      <point x="470" y="112" type="line"/>
      <point x="436" y="34"/>
      <point x="363" y="-10"/>
    </contour>
  </outline>
</glyph>
<glyph name="Cdotaccent" format="1">
  <advance width="677"/>
  <unicode hex="010A"/>
  <outline>
    <contour>
      <point x="574" y="730" type="line"/>
      <point x="632" y="730" type="line"/>
      <point x="632" y="481" type="line"/>
      <point x="613" y="481"/>
      <point x="593" y="481"/>
      <point x="574" y="481" type="curve"/>
    </contour>
    <contour>
      <point x="591" y="255" type="curve"/>
      <point x="650" y="210" type="line"/>
      <point x="617" y="69"/>
      <point x="517" y="-10"/>
      <point x="349" y="-10" type="curve" smooth="yes"/>
      <point x="177" y="-10"/>
      <point x="60" y="108"/>
      <point x="60" y="354" type="curve" smooth="yes"/>
      <point x="60" y="631"/>
      <point x="185" y="740"/>
      <point x="359" y="740" type="curve" smooth="yes"/>
      <point x="489" y="740"/>
      <point x="599" y="656"/>
      <point x="599" y="538" type="curve"/>
      <point x="574" y="481" type="line"/>
      <point x="539" y="525"/>
      <point x="468" y="548"/>
      <point x="359" y="548" type="curve" smooth="yes"/>
      <point x="208" y="548"/>
      <point x="123" y="472"/>
      <point x="122" y="342" type="curve" smooth="yes"/>
      <point x="121" y="211"/>
      <point x="200" y="139"/>
      <point x="363" y="139" type="curve" smooth="yes"/>
      <point x="477" y="139"/>
      <point x="565" y="177"/>
    </contour>
    <contour>
      <point x="451" y="850" type="curve" smooth="yes"/>
      <point x="451" y="802"/>
      <point x="419" y="779"/>
      <point x="368" y="779" type="curve" smooth="yes"/>
      <point x="310" y="779"/>
      <point x="279" y="802"/>
      <point x="279" y="850" type="curve" smooth="yes"/>
      <point x="279" y="902"/>
      <point x="309" y="924"/>
      <point x="368" y="924" type="curve" smooth="yes"/>
      <point x="420" y="924"/>
      <point x="451" y="903"/>
    </contour>
  </outline>
</glyph>
<glyph name="cdotaccent" format="1">
  <advance width="530"/>
  <unicode hex="010B"/>
  <outline>
    <contour>
      <point x="341" y="730" type="curve" smooth="yes"/>
      <point x="341" y="682"/>
      <point x="309" y="659"/>
      <point x="258" y="659" type="curve" smooth="yes"/>
      <point x="200" y="659"/>
      <point x="169" y="682"/>
      <point x="169" y="730" type="curve" smooth="yes"/>
      <point x="169" y="782"/>
      <point x="199" y="804"/>
      <point x="258" y="804" type="curve" smooth="yes"/>
      <point x="310" y="804"/>
      <point x="341" y="783"/>
    </contour>
    <contour>
      <point x="255" y="-10" type="curve" smooth="yes"/>
      <point x="128" y="-10"/>
      <point x="40" y="79"/>
      <point x="40" y="271" type="curve" smooth="yes"/>
      <point x="40" y="479"/>
      <point x="135" y="560"/>
      <point x="255" y="560" type="curve" smooth="yes"/>
      <point x="366" y="560"/>
      <point x="429" y="510"/>
      <point x="460" y="425" type="curve"/>
      <point x="414" y="338" type="line"/>
      <point x="385" y="375"/>
      <point x="343" y="402"/>
      <point x="260" y="402" type="curve" smooth="yes"/>
      <point x="163" y="402"/>
      <point x="100" y="352"/>
      <point x="99" y="266" type="curve" smooth="yes"/>
      <point x="98" y="181"/>
      <point x="145" y="108"/>
      <point x="260" y="108" type="curve" smooth="yes"/>
      <point x="343" y="108"/>
      <point x="391" y="130"/>
      <point x="418" y="183" type="curve"/>
      <point x="470" y="112" type="line"/>
      <point x="436" y="34"/>
      <point x="363" y="-10"/>
    </contour>
  </outline>
</glyph>
<glyph name="Ccaron" format="1">
  <advance width="730"/>
  <unicode hex="010C"/>
  <outline>
    <contour>
      <point x="574" y="730" type="line"/>
      <point x="632" y="730" type="line"/>
      <point x="632" y="481" type="line"/>
      <point x="612.667" y="481"/>
      <point x="593.333" y="481"/>
      <point x="574" y="481" type="curve"/>
    </contour>
    <contour>
      <point x="591" y="255" type="curve"/>
      <point x="650" y="210" type="line"/>
      <point x="617" y="69"/>
      <point x="517" y="-10"/>
      <point x="349" y="-10" type="curve" smooth="yes"/>
      <point x="177" y="-10"/>
      <point x="60" y="108"/>
      <point x="60" y="354" type="curve" smooth="yes"/>
      <point x="60" y="631"/>
      <point x="184.997" y="740"/>
      <point x="359" y="740" type="curve" smooth="yes"/>
      <point x="489" y="740"/>
      <point x="599" y="656"/>
      <point x="599" y="538" type="curve"/>
      <point x="574" y="481" type="line"/>
      <point x="539" y="525"/>
      <point x="468" y="548"/>
      <point x="359" y="548" type="curve" smooth="yes"/>
      <point x="208" y="548"/>
      <point x="123" y="472"/>
      <point x="122" y="342" type="curve" smooth="yes"/>
      <point x="121" y="211"/>
      <point x="200" y="139"/>
      <point x="363" y="139" type="curve" smooth="yes"/>
      <point x="477" y="139"/>
      <point x="565" y="177"/>
    </contour>
    <contour>
      <point x="547" y="950" type="curve"/>
      <point x="547" y="916" type="line"/>
      <point x="479" y="904"/>
      <point x="407" y="835"/>
      <point x="375" y="775" type="curve"/>
      <point x="355" y="775" type="line"/>
      <point x="323" y="835"/>
      <point x="251" y="904"/>
      <point x="183" y="916" type="curve"/>
      <point x="183" y="950" type="line"/>
      <point x="255" y="955"/>
      <point x="345" y="936"/>
      <point x="365" y="896" type="curve"/>
      <point x="385" y="936"/>
      <point x="475" y="955"/>
    </contour>
  </outline>
</glyph>
<glyph name="ccaron" format="1">
  <advance width="530"/>
  <unicode hex="010D"/>
  <outline>
    <contour>
      <point x="444" y="800" type="curve"/>
      <point x="444" y="766" type="line"/>
      <point x="376" y="754"/>
      <point x="304" y="685"/>
      <point x="272" y="625" type="curve"/>
      <point x="252" y="625" type="line"/>
      <point x="220" y="685"/>
      <point x="148" y="754"/>
      <point x="80" y="766" type="curve"/>
      <point x="80" y="800" type="line"/>
      <point x="152" y="805"/>
      <point x="242" y="786"/>
      <point x="262" y="746" type="curve"/>
      <point x="282" y="786"/>
      <point x="372" y="805"/>
    </contour>
    <contour>
      <point x="255" y="-10" type="curve" smooth="yes"/>
      <point x="128" y="-10"/>
      <point x="40" y="79"/>
      <point x="40" y="271" type="curve" smooth="yes"/>
      <point x="40" y="479"/>
      <point x="135" y="560"/>
      <point x="255" y="560" type="curve" smooth="yes"/>
      <point x="366" y="560"/>
      <point x="429" y="510"/>
      <point x="460" y="425" type="curve"/>
      <point x="414" y="338" type="line"/>
      <point x="385" y="375"/>
      <point x="343" y="402"/>
      <point x="260" y="402" type="curve" smooth="yes"/>
      <point x="163" y="402"/>
      <point x="100" y="352"/>
      <point x="99" y="266" type="curve" smooth="yes"/>
      <point x="98" y="181"/>
      <point x="145" y="108"/>
      <point x="260" y="108" type="curve" smooth="yes"/>
      <point x="343" y="108"/>
      <point x="391" y="130"/>
      <point x="418" y="183" type="curve"/>
      <point x="470" y="112" type="line"/>
      <point x="436" y="34"/>
      <point x="363" y="-10"/>
    </contour>
  </outline>
</glyph>
<glyph name="Dcaron" format="1">
  <advance width="780"/>
  <unicode hex="010E"/>
  <outline>
    <contour>
      <point x="403" y="555" type="line"/>
      <point x="282" y="555"/>
      <point x="161" y="555"/>
      <point x="40" y="555" type="curve"/>
      <point x="40" y="730" type="line"/>
      <point x="403" y="730" type="line"/>
    </contour>
    <contour>
      <point x="403" y="0" type="line"/>
      <point x="282" y="0"/>
      <point x="161" y="0"/>
      <point x="40" y="0" type="curve"/>
      <point x="40" y="144" type="line"/>
      <point x="403" y="144" type="line"/>
    </contour>
    <contour>
      <point x="150" y="0" type="line"/>
      <point x="150" y="730" type="line"/>
      <point x="393" y="730" type="line" smooth="yes"/>
      <point x="572" y="730"/>
      <point x="701" y="626"/>
      <point x="701" y="359" type="curve" smooth="yes"/>
      <point x="701" y="90"/>
      <point x="573" y="0"/>
      <point x="397" y="0" type="curve" smooth="yes"/>
    </contour>
    <contour>
      <point x="222" y="144" type="line"/>
      <point x="431" y="144" type="line" smooth="yes"/>
      <point x="536" y="144"/>
      <point x="640" y="225"/>
      <point x="640" y="346" type="curve" smooth="yes"/>
      <point x="640" y="466"/>
      <point x="551" y="555"/>
      <point x="414" y="555" type="curve" smooth="yes"/>
      <point x="222" y="555" type="line"/>
    </contour>
    <contour>
      <point x="547" y="950" type="curve"/>
      <point x="547" y="916" type="line"/>
      <point x="479" y="904"/>
      <point x="407" y="835"/>
      <point x="375" y="775" type="curve"/>
      <point x="355" y="775" type="line"/>
      <point x="323" y="835"/>
      <point x="251" y="904"/>
      <point x="183" y="916" type="curve"/>
      <point x="183" y="950" type="line"/>
      <point x="255" y="955"/>
      <point x="345" y="936"/>
      <point x="365" y="896" type="curve"/>
      <point x="385" y="936"/>
      <point x="475" y="955"/>
    </contour>
  </outline>
</glyph>
<glyph name="Emacron" format="1">
  <advance width="670"/>
  <unicode hex="0112"/>
  <outline>
    <contour>
      <point x="445" y="467" type="line"/>
      <point x="493" y="467" type="line"/>
      <point x="493" y="238" type="line"/>
      <point x="474" y="238"/>
      <point x="464" y="238"/>
      <point x="445" y="238" type="curve"/>
    </contour>
    <contour>
      <point x="536" y="730" type="line"/>
      <point x="594" y="730" type="line"/>
      <point x="594" y="471" type="line"/>
      <point x="575" y="471"/>
      <point x="555" y="471"/>
      <point x="536" y="471" type="curve"/>
    </contour>
    <contour>
      <point x="543" y="229" type="line"/>
      <point x="601" y="229" type="line"/>
      <point x="601" y="0" type="line"/>
      <point x="582" y="0"/>
      <point x="562" y="0"/>
      <point x="543" y="0" type="curve"/>
    </contour>
    <contour>
      <point x="453" y="550" type="line"/>
      <point x="332" y="550"/>
      <point x="181" y="550"/>
      <point x="60" y="550" type="curve"/>
      <point x="60" y="730" type="line"/>
      <point x="453" y="730" type="line"/>
    </contour>
    <contour>
      <point x="601" y="0" type="line"/>
      <point x="421" y="0"/>
      <point x="240" y="0"/>
      <point x="60" y="0" type="curve"/>
      <point x="60" y="144" type="line"/>
      <point x="601" y="144" type="line"/>
    </contour>
    <contour>
      <point x="150" y="0" type="line"/>
      <point x="150" y="730" type="line"/>
      <point x="594" y="730" type="line"/>
      <point x="594" y="550" type="line"/>
      <point x="221" y="550" type="line"/>
      <point x="221" y="383" type="line"/>
      <point x="493" y="383" type="line"/>
      <point x="493" y="327" type="line"/>
      <point x="221" y="327" type="line"/>
      <point x="221" y="131" type="line"/>
      <point x="600" y="131" type="line"/>
      <point x="600" y="0" type="line"/>
    </contour>
    <contour>
      <point x="519" y="791" type="line"/>
      <point x="171" y="791" type="line"/>
      <point x="171" y="890" type="line"/>
      <point x="519" y="890" type="line"/>
    </contour>
  </outline>
</glyph>
<glyph name="Ebreve" format="1">
  <advance width="630"/>
  <unicode hex="0114"/>
  <outline>
    <contour>
      <point x="405" y="467" type="line"/>
      <point x="453" y="467" type="line"/>
      <point x="453" y="238" type="line"/>
      <point x="433.667" y="238"/>
      <point x="424.333" y="238"/>
      <point x="405" y="238" type="curve"/>
    </contour>
    <contour>
      <point x="496" y="730" type="line"/>
      <point x="554" y="730" type="line"/>
      <point x="554" y="471" type="line"/>
      <point x="534.667" y="471"/>
      <point x="515.333" y="471"/>
      <point x="496" y="471" type="curve"/>
    </contour>
    <contour>
      <point x="503" y="229" type="line"/>
      <point x="561" y="229" type="line"/>
      <point x="561" y="0" type="line"/>
      <point x="541.667" y="0"/>
      <point x="522.333" y="0"/>
      <point x="503" y="0" type="curve"/>
    </contour>
    <contour>
      <point x="413" y="550" type="line"/>
      <point x="292" y="550"/>
      <point x="141" y="550"/>
      <point x="20" y="550" type="curve"/>
      <point x="20" y="730" type="line"/>
      <point x="413" y="730" type="line"/>
    </contour>
    <contour>
      <point x="561" y="0" type="line"/>
      <point x="380.667" y="0"/>
      <point x="200.333" y="0"/>
      <point x="20" y="0" type="curve"/>
      <point x="20" y="144" type="line"/>
      <point x="561" y="144" type="line"/>
    </contour>
    <contour>
      <point x="110" y="0" type="line"/>
      <point x="110" y="730" type="line"/>
      <point x="554" y="730" type="line"/>
      <point x="554" y="550" type="line"/>
      <point x="181" y="550" type="line"/>
      <point x="181" y="383" type="line"/>
      <point x="453" y="383" type="line"/>
      <point x="453" y="327" type="line"/>
      <point x="181" y="327" type="line"/>
      <point x="181" y="131" type="line"/>
      <point x="560" y="131" type="line"/>
      <point x="560" y="0" type="line"/>
    </contour>
    <contour>
      <point x="300" y="779" type="curve" smooth="yes"/>
      <point x="204" y="779"/>
      <point x="135" y="834"/>
      <point x="135" y="960" type="curve"/>
      <point x="186" y="960" type="line"/>
      <point x="185" y="889"/>
      <point x="239" y="866"/>
      <point x="300" y="866" type="curve" smooth="yes"/>
      <point x="369" y="866"/>
      <point x="426" y="889"/>
      <point x="425" y="960" type="curve"/>
      <point x="475" y="960" type="line"/>
      <point x="475" y="834"/>
      <point x="402" y="779"/>
    </contour>
  </outline>
</glyph>
<glyph name="Edotaccent" format="1">
  <advance width="630"/>
  <unicode hex="0116"/>
  <outline>
    <contour>
      <point x="405" y="467" type="line"/>
      <point x="453" y="467" type="line"/>
      <point x="453" y="238" type="line"/>
      <point x="433.667" y="238"/>
      <point x="424.333" y="238"/>
      <point x="405" y="238" type="curve"/>
    </contour>
    <contour>
      <point x="496" y="730" type="line"/>
      <point x="554" y="730" type="line"/>
      <point x="554" y="471" type="line"/>
      <point x="534.667" y="471"/>
      <point x="515.333" y="471"/>
      <point x="496" y="471" type="curve"/>
    </contour>
    <contour>
      <point x="503" y="229" type="line"/>
      <point x="561" y="229" type="line"/>
      <point x="561" y="0" type="line"/>
      <point x="541.667" y="0"/>
      <point x="522.333" y="0"/>
      <point x="503" y="0" type="curve"/>
    </contour>
    <contour>
      <point x="413" y="550" type="line"/>
      <point x="292" y="550"/>
      <point x="141" y="550"/>
      <point x="20" y="550" type="curve"/>
      <point x="20" y="730" type="line"/>
      <point x="413" y="730" type="line"/>
    </contour>
    <contour>
      <point x="561" y="0" type="line"/>
      <point x="380.667" y="0"/>
      <point x="200.333" y="0"/>
      <point x="20" y="0" type="curve"/>
      <point x="20" y="144" type="line"/>
      <point x="561" y="144" type="line"/>
    </contour>
    <contour>
      <point x="110" y="0" type="line"/>
      <point x="110" y="730" type="line"/>
      <point x="554" y="730" type="line"/>
      <point x="554" y="550" type="line"/>
      <point x="181" y="550" type="line"/>
      <point x="181" y="383" type="line"/>
      <point x="453" y="383" type="line"/>
      <point x="453" y="327" type="line"/>
      <point x="181" y="327" type="line"/>
      <point x="181" y="131" type="line"/>
      <point x="560" y="131" type="line"/>
      <point x="560" y="0" type="line"/>
    </contour>
    <contour>
      <point x="391" y="850" type="curve" smooth="yes"/>
      <point x="391" y="802"/>
      <point x="359" y="779"/>
      <point x="308" y="779" type="curve" smooth="yes"/>
      <point x="250" y="779"/>
      <point x="219" y="802"/>
      <point x="219" y="850" type="curve" smooth="yes"/>
      <point x="219" y="902"/>
      <point x="249" y="924"/>
      <point x="308" y="924" type="curve" smooth="yes"/>
      <point x="360" y="924"/>
      <point x="391" y="903"/>
    </contour>
  </outline>
</glyph>
<glyph name="edotaccent" format="1">
  <advance width="530"/>
  <unicode hex="0117"/>
  <outline>
    <contour>
      <point x="341" y="730" type="curve" smooth="yes"/>
      <point x="341" y="682"/>
      <point x="309" y="659"/>
      <point x="258" y="659" type="curve" smooth="yes"/>
      <point x="200" y="659"/>
      <point x="169" y="682"/>
      <point x="169" y="730" type="curve" smooth="yes"/>
      <point x="169" y="782"/>
      <point x="199" y="804"/>
      <point x="258" y="804" type="curve" smooth="yes"/>
      <point x="310" y="804"/>
      <point x="341" y="783"/>
    </contour>
    <contour>
      <point x="255" y="418" type="curve" smooth="yes"/>
      <point x="180" y="418"/>
      <point x="110" y="373"/>
      <point x="96" y="297" type="curve"/>
      <point x="420" y="297" type="line"/>
      <point x="420" y="358"/>
      <point x="357" y="418"/>
    </contour>
    <contour>
      <point x="466" y="126" type="line"/>
      <point x="433" y="50"/>
      <point x="359" y="-10"/>
      <point x="262" y="-10" type="curve" smooth="yes"/>
      <point x="112" y="-10"/>
      <point x="35" y="105"/>
      <point x="35" y="267" type="curve" smooth="yes"/>
      <point x="35" y="480"/>
      <point x="140" y="560"/>
      <point x="260" y="560" type="curve" smooth="yes"/>
      <point x="396" y="560"/>
      <point x="485" y="460"/>
      <point x="485" y="232" type="curve"/>
      <point x="96" y="232" type="line"/>
      <point x="109" y="144"/>
      <point x="168" y="102"/>
      <point x="260" y="101" type="curve" smooth="yes"/>
      <point x="348" y="100"/>
      <point x="390" y="121"/>
      <point x="419" y="161" type="curve"/>
    </contour>
  </outline>
</glyph>
<glyph name="Eogonek" format="1">
  <advance width="670"/>
  <unicode hex="0118"/>
  <outline>
    <contour>
      <point x="445" y="467" type="line"/>
      <point x="493" y="467" type="line"/>
      <point x="493" y="238" type="line"/>
      <point x="474" y="238"/>
      <point x="464" y="238"/>
      <point x="445" y="238" type="curve"/>
    </contour>
    <contour>
      <point x="536" y="730" type="line"/>
      <point x="594" y="730" type="line"/>
      <point x="594" y="471" type="line"/>
      <point x="575" y="471"/>
      <point x="555" y="471"/>
      <point x="536" y="471" type="curve"/>
    </contour>
    <contour>
      <point x="543" y="229" type="line"/>
      <point x="601" y="229" type="line"/>
      <point x="601" y="0" type="line"/>
      <point x="582" y="0"/>
      <point x="562" y="0"/>
      <point x="543" y="0" type="curve"/>
    </contour>
    <contour>
      <point x="453" y="550" type="line"/>
      <point x="332" y="550"/>
      <point x="181" y="550"/>
      <point x="60" y="550" type="curve"/>
      <point x="60" y="730" type="line"/>
      <point x="453" y="730" type="line"/>
    </contour>
    <contour>
      <point x="601" y="0" type="line"/>
      <point x="421" y="0"/>
      <point x="240" y="0"/>
      <point x="60" y="0" type="curve"/>
      <point x="60" y="144" type="line"/>
      <point x="601" y="144" type="line"/>
    </contour>
    <contour>
      <point x="150" y="0" type="line"/>
      <point x="150" y="730" type="line"/>
      <point x="594" y="730" type="line"/>
      <point x="594" y="550" type="line"/>
      <point x="221" y="550" type="line"/>
      <point x="221" y="383" type="line"/>
      <point x="493" y="383" type="line"/>
      <point x="493" y="327" type="line"/>
      <point x="221" y="327" type="line"/>
      <point x="221" y="131" type="line"/>
      <point x="600" y="131" type="line"/>
      <point x="600" y="0" type="line"/>
    </contour>
    <contour>
      <point x="350" y="0" type="line"/>
      <point x="333" y="-12"/>
      <point x="319" y="-42"/>
      <point x="319" y="-81" type="curve" smooth="yes"/>
      <point x="319" y="-129"/>
      <point x="358" y="-162"/>
      <point x="406" y="-163" type="curve" smooth="yes"/>
      <point x="422" y="-163"/>
      <point x="439" y="-162"/>
      <point x="453" y="-155" type="curve"/>
      <point x="466" y="-190" type="line"/>
      <point x="444" y="-203"/>
      <point x="406" y="-210"/>
      <point x="364" y="-210" type="curve" smooth="yes"/>
      <point x="273" y="-210"/>
      <point x="225" y="-167"/>
      <point x="224" y="-103" type="curve" smooth="yes"/>
      <point x="224" y="-72"/>
      <point x="235" y="-35"/>
      <point x="270" y="0" type="curve"/>
    </contour>
  </outline>
</glyph>
